G04 #@! TF.GenerationSoftware,KiCad,Pcbnew,(5.1.10)-1*
G04 #@! TF.CreationDate,2021-07-20T07:39:08+09:00*
G04 #@! TF.ProjectId,MIX04,4d495830-342e-46b6-9963-61645f706362,Ver. 1.0*
G04 #@! TF.SameCoordinates,Original*
G04 #@! TF.FileFunction,Legend,Top*
G04 #@! TF.FilePolarity,Positive*
%FSLAX46Y46*%
G04 Gerber Fmt 4.6, Leading zero omitted, Abs format (unit mm)*
G04 Created by KiCad (PCBNEW (5.1.10)-1) date 2021-07-20 07:39:08*
%MOMM*%
%LPD*%
G01*
G04 APERTURE LIST*
%ADD10C,0.220000*%
%ADD11C,0.300000*%
%ADD12C,0.500000*%
%ADD13C,0.010000*%
%ADD14C,0.120000*%
%ADD15C,0.150000*%
G04 APERTURE END LIST*
D10*
X103592380Y-110306666D02*
X104592380Y-109973333D01*
X103592380Y-109640000D01*
X104211428Y-109306666D02*
X104211428Y-108544761D01*
X103640000Y-106782857D02*
X103592380Y-106878095D01*
X103592380Y-107020952D01*
X103640000Y-107163809D01*
X103735238Y-107259047D01*
X103830476Y-107306666D01*
X104020952Y-107354285D01*
X104163809Y-107354285D01*
X104354285Y-107306666D01*
X104449523Y-107259047D01*
X104544761Y-107163809D01*
X104592380Y-107020952D01*
X104592380Y-106925714D01*
X104544761Y-106782857D01*
X104497142Y-106735238D01*
X104163809Y-106735238D01*
X104163809Y-106925714D01*
X103640000Y-104259047D02*
X103592380Y-104354285D01*
X103592380Y-104497142D01*
X103640000Y-104640000D01*
X103735238Y-104735238D01*
X103830476Y-104782857D01*
X104020952Y-104830476D01*
X104163809Y-104830476D01*
X104354285Y-104782857D01*
X104449523Y-104735238D01*
X104544761Y-104640000D01*
X104592380Y-104497142D01*
X104592380Y-104401904D01*
X104544761Y-104259047D01*
X104497142Y-104211428D01*
X104163809Y-104211428D01*
X104163809Y-104401904D01*
X103640000Y-101735238D02*
X103592380Y-101830476D01*
X103592380Y-101973333D01*
X103640000Y-102116190D01*
X103735238Y-102211428D01*
X103830476Y-102259047D01*
X104020952Y-102306666D01*
X104163809Y-102306666D01*
X104354285Y-102259047D01*
X104449523Y-102211428D01*
X104544761Y-102116190D01*
X104592380Y-101973333D01*
X104592380Y-101878095D01*
X104544761Y-101735238D01*
X104497142Y-101687619D01*
X104163809Y-101687619D01*
X104163809Y-101878095D01*
X103592380Y-99878095D02*
X104592380Y-99544761D01*
X103592380Y-99211428D01*
X104211428Y-98878095D02*
X104211428Y-98116190D01*
X104592380Y-98497142D02*
X103830476Y-98497142D01*
X116078095Y-139835000D02*
X115982857Y-139787380D01*
X115840000Y-139787380D01*
X115697142Y-139835000D01*
X115601904Y-139930238D01*
X115554285Y-140025476D01*
X115506666Y-140215952D01*
X115506666Y-140358809D01*
X115554285Y-140549285D01*
X115601904Y-140644523D01*
X115697142Y-140739761D01*
X115840000Y-140787380D01*
X115935238Y-140787380D01*
X116078095Y-140739761D01*
X116125714Y-140692142D01*
X116125714Y-140358809D01*
X115935238Y-140358809D01*
X116554285Y-140787380D02*
X116554285Y-139787380D01*
X117125714Y-140787380D01*
X117125714Y-139787380D01*
X117601904Y-140787380D02*
X117601904Y-139787380D01*
X117840000Y-139787380D01*
X117982857Y-139835000D01*
X118078095Y-139930238D01*
X118125714Y-140025476D01*
X118173333Y-140215952D01*
X118173333Y-140358809D01*
X118125714Y-140549285D01*
X118078095Y-140644523D01*
X117982857Y-140739761D01*
X117840000Y-140787380D01*
X117601904Y-140787380D01*
X145137380Y-141105000D02*
X145042142Y-141057380D01*
X144899285Y-141057380D01*
X144756428Y-141105000D01*
X144661190Y-141200238D01*
X144613571Y-141295476D01*
X144565952Y-141485952D01*
X144565952Y-141628809D01*
X144613571Y-141819285D01*
X144661190Y-141914523D01*
X144756428Y-142009761D01*
X144899285Y-142057380D01*
X144994523Y-142057380D01*
X145137380Y-142009761D01*
X145185000Y-141962142D01*
X145185000Y-141628809D01*
X144994523Y-141628809D01*
X146565952Y-141057380D02*
X146756428Y-141057380D01*
X146851666Y-141105000D01*
X146946904Y-141200238D01*
X146994523Y-141390714D01*
X146994523Y-141724047D01*
X146946904Y-141914523D01*
X146851666Y-142009761D01*
X146756428Y-142057380D01*
X146565952Y-142057380D01*
X146470714Y-142009761D01*
X146375476Y-141914523D01*
X146327857Y-141724047D01*
X146327857Y-141390714D01*
X146375476Y-141200238D01*
X146470714Y-141105000D01*
X146565952Y-141057380D01*
X147423095Y-141057380D02*
X147423095Y-141866904D01*
X147470714Y-141962142D01*
X147518333Y-142009761D01*
X147613571Y-142057380D01*
X147804047Y-142057380D01*
X147899285Y-142009761D01*
X147946904Y-141962142D01*
X147994523Y-141866904D01*
X147994523Y-141057380D01*
X148327857Y-141057380D02*
X148899285Y-141057380D01*
X148613571Y-142057380D02*
X148613571Y-141057380D01*
X132135952Y-141105000D02*
X132040714Y-141057380D01*
X131897857Y-141057380D01*
X131755000Y-141105000D01*
X131659761Y-141200238D01*
X131612142Y-141295476D01*
X131564523Y-141485952D01*
X131564523Y-141628809D01*
X131612142Y-141819285D01*
X131659761Y-141914523D01*
X131755000Y-142009761D01*
X131897857Y-142057380D01*
X131993095Y-142057380D01*
X132135952Y-142009761D01*
X132183571Y-141962142D01*
X132183571Y-141628809D01*
X131993095Y-141628809D01*
X133374047Y-142057380D02*
X133374047Y-141057380D01*
X133850238Y-142057380D02*
X133850238Y-141057380D01*
X134421666Y-142057380D01*
X134421666Y-141057380D01*
X134755000Y-141057380D02*
X135088333Y-142057380D01*
X135421666Y-141057380D01*
X135516904Y-142152619D02*
X136278809Y-142152619D01*
X136707380Y-141057380D02*
X136897857Y-141057380D01*
X136993095Y-141105000D01*
X137088333Y-141200238D01*
X137135952Y-141390714D01*
X137135952Y-141724047D01*
X137088333Y-141914523D01*
X136993095Y-142009761D01*
X136897857Y-142057380D01*
X136707380Y-142057380D01*
X136612142Y-142009761D01*
X136516904Y-141914523D01*
X136469285Y-141724047D01*
X136469285Y-141390714D01*
X136516904Y-141200238D01*
X136612142Y-141105000D01*
X136707380Y-141057380D01*
X137564523Y-141057380D02*
X137564523Y-141866904D01*
X137612142Y-141962142D01*
X137659761Y-142009761D01*
X137755000Y-142057380D01*
X137945476Y-142057380D01*
X138040714Y-142009761D01*
X138088333Y-141962142D01*
X138135952Y-141866904D01*
X138135952Y-141057380D01*
X138469285Y-141057380D02*
X139040714Y-141057380D01*
X138755000Y-142057380D02*
X138755000Y-141057380D01*
X160575952Y-137882380D02*
X160766428Y-137882380D01*
X160861666Y-137930000D01*
X160956904Y-138025238D01*
X161004523Y-138215714D01*
X161004523Y-138549047D01*
X160956904Y-138739523D01*
X160861666Y-138834761D01*
X160766428Y-138882380D01*
X160575952Y-138882380D01*
X160480714Y-138834761D01*
X160385476Y-138739523D01*
X160337857Y-138549047D01*
X160337857Y-138215714D01*
X160385476Y-138025238D01*
X160480714Y-137930000D01*
X160575952Y-137882380D01*
X161433095Y-137882380D02*
X161433095Y-138691904D01*
X161480714Y-138787142D01*
X161528333Y-138834761D01*
X161623571Y-138882380D01*
X161814047Y-138882380D01*
X161909285Y-138834761D01*
X161956904Y-138787142D01*
X162004523Y-138691904D01*
X162004523Y-137882380D01*
X162337857Y-137882380D02*
X162909285Y-137882380D01*
X162623571Y-138882380D02*
X162623571Y-137882380D01*
X164480714Y-138882380D02*
X164004523Y-138882380D01*
X164004523Y-137882380D01*
X164671190Y-137882380D02*
X165004523Y-138882380D01*
X165337857Y-137882380D01*
X166147380Y-138882380D02*
X165671190Y-138882380D01*
X165671190Y-137882380D01*
X160575952Y-121102380D02*
X160575952Y-120102380D01*
X161052142Y-121102380D02*
X161052142Y-120102380D01*
X161623571Y-121102380D01*
X161623571Y-120102380D01*
X162528333Y-120435714D02*
X162528333Y-121102380D01*
X162290238Y-120054761D02*
X162052142Y-120769047D01*
X162671190Y-120769047D01*
X164290238Y-121102380D02*
X163814047Y-121102380D01*
X163814047Y-120102380D01*
X164480714Y-120102380D02*
X164814047Y-121102380D01*
X165147380Y-120102380D01*
X165956904Y-121102380D02*
X165480714Y-121102380D01*
X165480714Y-120102380D01*
X160575952Y-103322380D02*
X160575952Y-102322380D01*
X161052142Y-103322380D02*
X161052142Y-102322380D01*
X161623571Y-103322380D01*
X161623571Y-102322380D01*
X162004523Y-102322380D02*
X162623571Y-102322380D01*
X162290238Y-102703333D01*
X162433095Y-102703333D01*
X162528333Y-102750952D01*
X162575952Y-102798571D01*
X162623571Y-102893809D01*
X162623571Y-103131904D01*
X162575952Y-103227142D01*
X162528333Y-103274761D01*
X162433095Y-103322380D01*
X162147380Y-103322380D01*
X162052142Y-103274761D01*
X162004523Y-103227142D01*
X164290238Y-103322380D02*
X163814047Y-103322380D01*
X163814047Y-102322380D01*
X164480714Y-102322380D02*
X164814047Y-103322380D01*
X165147380Y-102322380D01*
X165956904Y-103322380D02*
X165480714Y-103322380D01*
X165480714Y-102322380D01*
X160575952Y-85542380D02*
X160575952Y-84542380D01*
X161052142Y-85542380D02*
X161052142Y-84542380D01*
X161623571Y-85542380D01*
X161623571Y-84542380D01*
X162052142Y-84637619D02*
X162099761Y-84590000D01*
X162195000Y-84542380D01*
X162433095Y-84542380D01*
X162528333Y-84590000D01*
X162575952Y-84637619D01*
X162623571Y-84732857D01*
X162623571Y-84828095D01*
X162575952Y-84970952D01*
X162004523Y-85542380D01*
X162623571Y-85542380D01*
X164290238Y-85542380D02*
X163814047Y-85542380D01*
X163814047Y-84542380D01*
X164480714Y-84542380D02*
X164814047Y-85542380D01*
X165147380Y-84542380D01*
X165956904Y-85542380D02*
X165480714Y-85542380D01*
X165480714Y-84542380D01*
X160575952Y-67762380D02*
X160575952Y-66762380D01*
X161052142Y-67762380D02*
X161052142Y-66762380D01*
X161623571Y-67762380D01*
X161623571Y-66762380D01*
X162623571Y-67762380D02*
X162052142Y-67762380D01*
X162337857Y-67762380D02*
X162337857Y-66762380D01*
X162242619Y-66905238D01*
X162147380Y-67000476D01*
X162052142Y-67048095D01*
X164290238Y-67762380D02*
X163814047Y-67762380D01*
X163814047Y-66762380D01*
X164480714Y-66762380D02*
X164814047Y-67762380D01*
X165147380Y-66762380D01*
X165956904Y-67762380D02*
X165480714Y-67762380D01*
X165480714Y-66762380D01*
X146709047Y-63952380D02*
X146709047Y-62952380D01*
X147185238Y-63952380D02*
X147185238Y-62952380D01*
X147756666Y-63952380D01*
X147756666Y-62952380D01*
X148756666Y-63952380D02*
X148185238Y-63952380D01*
X148470952Y-63952380D02*
X148470952Y-62952380D01*
X148375714Y-63095238D01*
X148280476Y-63190476D01*
X148185238Y-63238095D01*
X150470952Y-63000000D02*
X150375714Y-62952380D01*
X150232857Y-62952380D01*
X150090000Y-63000000D01*
X149994761Y-63095238D01*
X149947142Y-63190476D01*
X149899523Y-63380952D01*
X149899523Y-63523809D01*
X149947142Y-63714285D01*
X149994761Y-63809523D01*
X150090000Y-63904761D01*
X150232857Y-63952380D01*
X150328095Y-63952380D01*
X150470952Y-63904761D01*
X150518571Y-63857142D01*
X150518571Y-63523809D01*
X150328095Y-63523809D01*
X134009047Y-63952380D02*
X134009047Y-62952380D01*
X134485238Y-63952380D02*
X134485238Y-62952380D01*
X135056666Y-63952380D01*
X135056666Y-62952380D01*
X135485238Y-63047619D02*
X135532857Y-63000000D01*
X135628095Y-62952380D01*
X135866190Y-62952380D01*
X135961428Y-63000000D01*
X136009047Y-63047619D01*
X136056666Y-63142857D01*
X136056666Y-63238095D01*
X136009047Y-63380952D01*
X135437619Y-63952380D01*
X136056666Y-63952380D01*
X137770952Y-63000000D02*
X137675714Y-62952380D01*
X137532857Y-62952380D01*
X137390000Y-63000000D01*
X137294761Y-63095238D01*
X137247142Y-63190476D01*
X137199523Y-63380952D01*
X137199523Y-63523809D01*
X137247142Y-63714285D01*
X137294761Y-63809523D01*
X137390000Y-63904761D01*
X137532857Y-63952380D01*
X137628095Y-63952380D01*
X137770952Y-63904761D01*
X137818571Y-63857142D01*
X137818571Y-63523809D01*
X137628095Y-63523809D01*
X121309047Y-63952380D02*
X121309047Y-62952380D01*
X121785238Y-63952380D02*
X121785238Y-62952380D01*
X122356666Y-63952380D01*
X122356666Y-62952380D01*
X122737619Y-62952380D02*
X123356666Y-62952380D01*
X123023333Y-63333333D01*
X123166190Y-63333333D01*
X123261428Y-63380952D01*
X123309047Y-63428571D01*
X123356666Y-63523809D01*
X123356666Y-63761904D01*
X123309047Y-63857142D01*
X123261428Y-63904761D01*
X123166190Y-63952380D01*
X122880476Y-63952380D01*
X122785238Y-63904761D01*
X122737619Y-63857142D01*
X125070952Y-63000000D02*
X124975714Y-62952380D01*
X124832857Y-62952380D01*
X124690000Y-63000000D01*
X124594761Y-63095238D01*
X124547142Y-63190476D01*
X124499523Y-63380952D01*
X124499523Y-63523809D01*
X124547142Y-63714285D01*
X124594761Y-63809523D01*
X124690000Y-63904761D01*
X124832857Y-63952380D01*
X124928095Y-63952380D01*
X125070952Y-63904761D01*
X125118571Y-63857142D01*
X125118571Y-63523809D01*
X124928095Y-63523809D01*
X108609047Y-63952380D02*
X108609047Y-62952380D01*
X109085238Y-63952380D02*
X109085238Y-62952380D01*
X109656666Y-63952380D01*
X109656666Y-62952380D01*
X110561428Y-63285714D02*
X110561428Y-63952380D01*
X110323333Y-62904761D02*
X110085238Y-63619047D01*
X110704285Y-63619047D01*
X112370952Y-63000000D02*
X112275714Y-62952380D01*
X112132857Y-62952380D01*
X111990000Y-63000000D01*
X111894761Y-63095238D01*
X111847142Y-63190476D01*
X111799523Y-63380952D01*
X111799523Y-63523809D01*
X111847142Y-63714285D01*
X111894761Y-63809523D01*
X111990000Y-63904761D01*
X112132857Y-63952380D01*
X112228095Y-63952380D01*
X112370952Y-63904761D01*
X112418571Y-63857142D01*
X112418571Y-63523809D01*
X112228095Y-63523809D01*
D11*
X110341428Y-50843571D02*
X110341428Y-49343571D01*
X110984285Y-50843571D02*
X110984285Y-50057857D01*
X110912857Y-49915000D01*
X110770000Y-49843571D01*
X110555714Y-49843571D01*
X110412857Y-49915000D01*
X110341428Y-49986428D01*
X111484285Y-49843571D02*
X112055714Y-49843571D01*
X111698571Y-49343571D02*
X111698571Y-50629285D01*
X111770000Y-50772142D01*
X111912857Y-50843571D01*
X112055714Y-50843571D01*
X112341428Y-49843571D02*
X112912857Y-49843571D01*
X112555714Y-49343571D02*
X112555714Y-50629285D01*
X112627142Y-50772142D01*
X112770000Y-50843571D01*
X112912857Y-50843571D01*
X113412857Y-49843571D02*
X113412857Y-51343571D01*
X113412857Y-49915000D02*
X113555714Y-49843571D01*
X113841428Y-49843571D01*
X113984285Y-49915000D01*
X114055714Y-49986428D01*
X114127142Y-50129285D01*
X114127142Y-50557857D01*
X114055714Y-50700714D01*
X113984285Y-50772142D01*
X113841428Y-50843571D01*
X113555714Y-50843571D01*
X113412857Y-50772142D01*
X114698571Y-50772142D02*
X114841428Y-50843571D01*
X115127142Y-50843571D01*
X115270000Y-50772142D01*
X115341428Y-50629285D01*
X115341428Y-50557857D01*
X115270000Y-50415000D01*
X115127142Y-50343571D01*
X114912857Y-50343571D01*
X114770000Y-50272142D01*
X114698571Y-50129285D01*
X114698571Y-50057857D01*
X114770000Y-49915000D01*
X114912857Y-49843571D01*
X115127142Y-49843571D01*
X115270000Y-49915000D01*
X115984285Y-50700714D02*
X116055714Y-50772142D01*
X115984285Y-50843571D01*
X115912857Y-50772142D01*
X115984285Y-50700714D01*
X115984285Y-50843571D01*
X115984285Y-49915000D02*
X116055714Y-49986428D01*
X115984285Y-50057857D01*
X115912857Y-49986428D01*
X115984285Y-49915000D01*
X115984285Y-50057857D01*
X117770000Y-49272142D02*
X116484285Y-51200714D01*
X119341428Y-49272142D02*
X118055714Y-51200714D01*
X120484285Y-50843571D02*
X120484285Y-49343571D01*
X120484285Y-50772142D02*
X120341428Y-50843571D01*
X120055714Y-50843571D01*
X119912857Y-50772142D01*
X119841428Y-50700714D01*
X119770000Y-50557857D01*
X119770000Y-50129285D01*
X119841428Y-49986428D01*
X119912857Y-49915000D01*
X120055714Y-49843571D01*
X120341428Y-49843571D01*
X120484285Y-49915000D01*
X121841428Y-50843571D02*
X121841428Y-50057857D01*
X121770000Y-49915000D01*
X121627142Y-49843571D01*
X121341428Y-49843571D01*
X121198571Y-49915000D01*
X121841428Y-50772142D02*
X121698571Y-50843571D01*
X121341428Y-50843571D01*
X121198571Y-50772142D01*
X121127142Y-50629285D01*
X121127142Y-50486428D01*
X121198571Y-50343571D01*
X121341428Y-50272142D01*
X121698571Y-50272142D01*
X121841428Y-50200714D01*
X123198571Y-50843571D02*
X123198571Y-49343571D01*
X123198571Y-50772142D02*
X123055714Y-50843571D01*
X122770000Y-50843571D01*
X122627142Y-50772142D01*
X122555714Y-50700714D01*
X122484285Y-50557857D01*
X122484285Y-50129285D01*
X122555714Y-49986428D01*
X122627142Y-49915000D01*
X122770000Y-49843571D01*
X123055714Y-49843571D01*
X123198571Y-49915000D01*
X124127142Y-49986428D02*
X123984285Y-49915000D01*
X123912857Y-49843571D01*
X123841428Y-49700714D01*
X123841428Y-49629285D01*
X123912857Y-49486428D01*
X123984285Y-49415000D01*
X124127142Y-49343571D01*
X124412857Y-49343571D01*
X124555714Y-49415000D01*
X124627142Y-49486428D01*
X124698571Y-49629285D01*
X124698571Y-49700714D01*
X124627142Y-49843571D01*
X124555714Y-49915000D01*
X124412857Y-49986428D01*
X124127142Y-49986428D01*
X123984285Y-50057857D01*
X123912857Y-50129285D01*
X123841428Y-50272142D01*
X123841428Y-50557857D01*
X123912857Y-50700714D01*
X123984285Y-50772142D01*
X124127142Y-50843571D01*
X124412857Y-50843571D01*
X124555714Y-50772142D01*
X124627142Y-50700714D01*
X124698571Y-50557857D01*
X124698571Y-50272142D01*
X124627142Y-50129285D01*
X124555714Y-50057857D01*
X124412857Y-49986428D01*
X125555714Y-49986428D02*
X125412857Y-49915000D01*
X125341428Y-49843571D01*
X125270000Y-49700714D01*
X125270000Y-49629285D01*
X125341428Y-49486428D01*
X125412857Y-49415000D01*
X125555714Y-49343571D01*
X125841428Y-49343571D01*
X125984285Y-49415000D01*
X126055714Y-49486428D01*
X126127142Y-49629285D01*
X126127142Y-49700714D01*
X126055714Y-49843571D01*
X125984285Y-49915000D01*
X125841428Y-49986428D01*
X125555714Y-49986428D01*
X125412857Y-50057857D01*
X125341428Y-50129285D01*
X125270000Y-50272142D01*
X125270000Y-50557857D01*
X125341428Y-50700714D01*
X125412857Y-50772142D01*
X125555714Y-50843571D01*
X125841428Y-50843571D01*
X125984285Y-50772142D01*
X126055714Y-50700714D01*
X126127142Y-50557857D01*
X126127142Y-50272142D01*
X126055714Y-50129285D01*
X125984285Y-50057857D01*
X125841428Y-49986428D01*
X126841428Y-50843571D02*
X127127142Y-50843571D01*
X127270000Y-50772142D01*
X127341428Y-50700714D01*
X127484285Y-50486428D01*
X127555714Y-50200714D01*
X127555714Y-49629285D01*
X127484285Y-49486428D01*
X127412857Y-49415000D01*
X127270000Y-49343571D01*
X126984285Y-49343571D01*
X126841428Y-49415000D01*
X126770000Y-49486428D01*
X126698571Y-49629285D01*
X126698571Y-49986428D01*
X126770000Y-50129285D01*
X126841428Y-50200714D01*
X126984285Y-50272142D01*
X127270000Y-50272142D01*
X127412857Y-50200714D01*
X127484285Y-50129285D01*
X127555714Y-49986428D01*
X128055714Y-49343571D02*
X128984285Y-49343571D01*
X128484285Y-49915000D01*
X128698571Y-49915000D01*
X128841428Y-49986428D01*
X128912857Y-50057857D01*
X128984285Y-50200714D01*
X128984285Y-50557857D01*
X128912857Y-50700714D01*
X128841428Y-50772142D01*
X128698571Y-50843571D01*
X128270000Y-50843571D01*
X128127142Y-50772142D01*
X128055714Y-50700714D01*
X129627142Y-50700714D02*
X129698571Y-50772142D01*
X129627142Y-50843571D01*
X129555714Y-50772142D01*
X129627142Y-50700714D01*
X129627142Y-50843571D01*
X130341428Y-50843571D02*
X130341428Y-49343571D01*
X130341428Y-49915000D02*
X130484285Y-49843571D01*
X130770000Y-49843571D01*
X130912857Y-49915000D01*
X130984285Y-49986428D01*
X131055714Y-50129285D01*
X131055714Y-50557857D01*
X130984285Y-50700714D01*
X130912857Y-50772142D01*
X130770000Y-50843571D01*
X130484285Y-50843571D01*
X130341428Y-50772142D01*
X131912857Y-50843571D02*
X131770000Y-50772142D01*
X131698571Y-50629285D01*
X131698571Y-49343571D01*
X132698571Y-50843571D02*
X132555714Y-50772142D01*
X132484285Y-50700714D01*
X132412857Y-50557857D01*
X132412857Y-50129285D01*
X132484285Y-49986428D01*
X132555714Y-49915000D01*
X132698571Y-49843571D01*
X132912857Y-49843571D01*
X133055714Y-49915000D01*
X133127142Y-49986428D01*
X133198571Y-50129285D01*
X133198571Y-50557857D01*
X133127142Y-50700714D01*
X133055714Y-50772142D01*
X132912857Y-50843571D01*
X132698571Y-50843571D01*
X134484285Y-49843571D02*
X134484285Y-51057857D01*
X134412857Y-51200714D01*
X134341428Y-51272142D01*
X134198571Y-51343571D01*
X133984285Y-51343571D01*
X133841428Y-51272142D01*
X134484285Y-50772142D02*
X134341428Y-50843571D01*
X134055714Y-50843571D01*
X133912857Y-50772142D01*
X133841428Y-50700714D01*
X133770000Y-50557857D01*
X133770000Y-50129285D01*
X133841428Y-49986428D01*
X133912857Y-49915000D01*
X134055714Y-49843571D01*
X134341428Y-49843571D01*
X134484285Y-49915000D01*
X135127142Y-50772142D02*
X135270000Y-50843571D01*
X135555714Y-50843571D01*
X135698571Y-50772142D01*
X135770000Y-50629285D01*
X135770000Y-50557857D01*
X135698571Y-50415000D01*
X135555714Y-50343571D01*
X135341428Y-50343571D01*
X135198571Y-50272142D01*
X135127142Y-50129285D01*
X135127142Y-50057857D01*
X135198571Y-49915000D01*
X135341428Y-49843571D01*
X135555714Y-49843571D01*
X135698571Y-49915000D01*
X136412857Y-49843571D02*
X136412857Y-51343571D01*
X136412857Y-49915000D02*
X136555714Y-49843571D01*
X136841428Y-49843571D01*
X136984285Y-49915000D01*
X137055714Y-49986428D01*
X137127142Y-50129285D01*
X137127142Y-50557857D01*
X137055714Y-50700714D01*
X136984285Y-50772142D01*
X136841428Y-50843571D01*
X136555714Y-50843571D01*
X136412857Y-50772142D01*
X137984285Y-50843571D02*
X137841428Y-50772142D01*
X137770000Y-50700714D01*
X137698571Y-50557857D01*
X137698571Y-50129285D01*
X137770000Y-49986428D01*
X137841428Y-49915000D01*
X137984285Y-49843571D01*
X138198571Y-49843571D01*
X138341428Y-49915000D01*
X138412857Y-49986428D01*
X138484285Y-50129285D01*
X138484285Y-50557857D01*
X138412857Y-50700714D01*
X138341428Y-50772142D01*
X138198571Y-50843571D01*
X137984285Y-50843571D01*
X138912857Y-49843571D02*
X139484285Y-49843571D01*
X139127142Y-49343571D02*
X139127142Y-50629285D01*
X139198571Y-50772142D01*
X139341428Y-50843571D01*
X139484285Y-50843571D01*
X139984285Y-50700714D02*
X140055714Y-50772142D01*
X139984285Y-50843571D01*
X139912857Y-50772142D01*
X139984285Y-50700714D01*
X139984285Y-50843571D01*
X141341428Y-50772142D02*
X141198571Y-50843571D01*
X140912857Y-50843571D01*
X140770000Y-50772142D01*
X140698571Y-50700714D01*
X140627142Y-50557857D01*
X140627142Y-50129285D01*
X140698571Y-49986428D01*
X140770000Y-49915000D01*
X140912857Y-49843571D01*
X141198571Y-49843571D01*
X141341428Y-49915000D01*
X142198571Y-50843571D02*
X142055714Y-50772142D01*
X141984285Y-50700714D01*
X141912857Y-50557857D01*
X141912857Y-50129285D01*
X141984285Y-49986428D01*
X142055714Y-49915000D01*
X142198571Y-49843571D01*
X142412857Y-49843571D01*
X142555714Y-49915000D01*
X142627142Y-49986428D01*
X142698571Y-50129285D01*
X142698571Y-50557857D01*
X142627142Y-50700714D01*
X142555714Y-50772142D01*
X142412857Y-50843571D01*
X142198571Y-50843571D01*
X143341428Y-50843571D02*
X143341428Y-49843571D01*
X143341428Y-49986428D02*
X143412857Y-49915000D01*
X143555714Y-49843571D01*
X143770000Y-49843571D01*
X143912857Y-49915000D01*
X143984285Y-50057857D01*
X143984285Y-50843571D01*
X143984285Y-50057857D02*
X144055714Y-49915000D01*
X144198571Y-49843571D01*
X144412857Y-49843571D01*
X144555714Y-49915000D01*
X144627142Y-50057857D01*
X144627142Y-50843571D01*
X146412857Y-49272142D02*
X145127142Y-51200714D01*
D12*
X106991428Y-69302142D02*
X106991428Y-66302142D01*
X107991428Y-68445000D01*
X108991428Y-66302142D01*
X108991428Y-69302142D01*
X110420000Y-69302142D02*
X110420000Y-66302142D01*
X111562857Y-66302142D02*
X113562857Y-69302142D01*
X113562857Y-66302142D02*
X111562857Y-69302142D01*
X115277142Y-66302142D02*
X115562857Y-66302142D01*
X115848571Y-66445000D01*
X115991428Y-66587857D01*
X116134285Y-66873571D01*
X116277142Y-67445000D01*
X116277142Y-68159285D01*
X116134285Y-68730714D01*
X115991428Y-69016428D01*
X115848571Y-69159285D01*
X115562857Y-69302142D01*
X115277142Y-69302142D01*
X114991428Y-69159285D01*
X114848571Y-69016428D01*
X114705714Y-68730714D01*
X114562857Y-68159285D01*
X114562857Y-67445000D01*
X114705714Y-66873571D01*
X114848571Y-66587857D01*
X114991428Y-66445000D01*
X115277142Y-66302142D01*
X118848571Y-67302142D02*
X118848571Y-69302142D01*
X118134285Y-66159285D02*
X117419999Y-68302142D01*
X119277142Y-68302142D01*
X122277142Y-66302142D02*
X123277142Y-69302142D01*
X124277142Y-66302142D01*
X126420000Y-69159285D02*
X126134285Y-69302142D01*
X125562857Y-69302142D01*
X125277142Y-69159285D01*
X125134285Y-68873571D01*
X125134285Y-67730714D01*
X125277142Y-67445000D01*
X125562857Y-67302142D01*
X126134285Y-67302142D01*
X126420000Y-67445000D01*
X126562857Y-67730714D01*
X126562857Y-68016428D01*
X125134285Y-68302142D01*
X127848571Y-69302142D02*
X127848571Y-67302142D01*
X127848571Y-67873571D02*
X127991428Y-67587857D01*
X128134285Y-67445000D01*
X128420000Y-67302142D01*
X128705714Y-67302142D01*
X129705714Y-69016428D02*
X129848571Y-69159285D01*
X129705714Y-69302142D01*
X129562857Y-69159285D01*
X129705714Y-69016428D01*
X129705714Y-69302142D01*
X132705714Y-69302142D02*
X130991428Y-69302142D01*
X131848571Y-69302142D02*
X131848571Y-66302142D01*
X131562857Y-66730714D01*
X131277142Y-67016428D01*
X130991428Y-67159285D01*
X133991428Y-69016428D02*
X134134285Y-69159285D01*
X133991428Y-69302142D01*
X133848571Y-69159285D01*
X133991428Y-69016428D01*
X133991428Y-69302142D01*
X135991428Y-66302142D02*
X136277142Y-66302142D01*
X136562857Y-66445000D01*
X136705714Y-66587857D01*
X136848571Y-66873571D01*
X136991428Y-67445000D01*
X136991428Y-68159285D01*
X136848571Y-68730714D01*
X136705714Y-69016428D01*
X136562857Y-69159285D01*
X136277142Y-69302142D01*
X135991428Y-69302142D01*
X135705714Y-69159285D01*
X135562857Y-69016428D01*
X135420000Y-68730714D01*
X135277142Y-68159285D01*
X135277142Y-67445000D01*
X135420000Y-66873571D01*
X135562857Y-66587857D01*
X135705714Y-66445000D01*
X135991428Y-66302142D01*
D13*
G04 #@! TO.C,G\u002A\u002A\u002A*
G36*
X117293475Y-71645079D02*
G01*
X117441490Y-71657607D01*
X117532412Y-71679799D01*
X117533958Y-71680602D01*
X117588047Y-71719416D01*
X117695313Y-71804338D01*
X117844700Y-71926321D01*
X118025149Y-72076320D01*
X118225599Y-72245289D01*
X118260095Y-72274591D01*
X118461268Y-72442459D01*
X118643708Y-72588659D01*
X118796681Y-72705075D01*
X118909456Y-72783591D01*
X118971299Y-72816090D01*
X118976503Y-72816375D01*
X119019436Y-72779044D01*
X119045090Y-72678663D01*
X119054418Y-72573899D01*
X119057423Y-72374706D01*
X119035240Y-72239172D01*
X118981540Y-72148416D01*
X118890049Y-72083588D01*
X118800823Y-72022963D01*
X118771921Y-71947169D01*
X118774246Y-71882700D01*
X118798897Y-71783539D01*
X118858016Y-71714639D01*
X118963183Y-71671882D01*
X119125978Y-71651148D01*
X119357982Y-71648318D01*
X119428586Y-71649938D01*
X119636009Y-71658460D01*
X119776991Y-71672493D01*
X119869729Y-71695283D01*
X119932418Y-71730079D01*
X119947169Y-71742511D01*
X120013350Y-71827948D01*
X120036167Y-71899592D01*
X120030213Y-71950166D01*
X120001877Y-71996948D01*
X119935448Y-72058142D01*
X119824500Y-72144872D01*
X119718667Y-72225681D01*
X119696622Y-73277274D01*
X119687781Y-73644243D01*
X119677126Y-73935411D01*
X119662807Y-74159646D01*
X119642975Y-74325813D01*
X119615783Y-74442779D01*
X119579380Y-74519411D01*
X119531919Y-74564574D01*
X119471550Y-74587135D01*
X119422039Y-74594104D01*
X119373827Y-74591352D01*
X119315715Y-74570676D01*
X119239044Y-74525727D01*
X119135155Y-74450156D01*
X118995387Y-74337613D01*
X118811083Y-74181749D01*
X118573582Y-73976214D01*
X118542847Y-73949437D01*
X118326350Y-73761772D01*
X118127751Y-73591592D01*
X117957004Y-73447269D01*
X117824062Y-73337175D01*
X117738881Y-73269681D01*
X117715066Y-73253237D01*
X117624307Y-73231675D01*
X117560267Y-73282102D01*
X117520036Y-73408461D01*
X117504931Y-73537850D01*
X117505546Y-73753740D01*
X117537451Y-73933502D01*
X117596131Y-74061084D01*
X117668161Y-74118044D01*
X117753953Y-74175257D01*
X117796864Y-74231187D01*
X117819128Y-74310786D01*
X117785053Y-74394658D01*
X117761253Y-74428395D01*
X117670825Y-74516343D01*
X117577017Y-74567056D01*
X117477824Y-74581627D01*
X117323841Y-74590529D01*
X117144774Y-74593491D01*
X116970328Y-74590242D01*
X116830208Y-74580510D01*
X116787927Y-74574268D01*
X116702350Y-74531027D01*
X116610966Y-74449166D01*
X116542184Y-74358060D01*
X116522500Y-74299833D01*
X116551330Y-74250957D01*
X116624786Y-74169662D01*
X116677433Y-74119113D01*
X116832366Y-73977176D01*
X116852212Y-73427569D01*
X116857523Y-73187683D01*
X116857077Y-72947741D01*
X116851253Y-72736535D01*
X116841233Y-72590128D01*
X116820091Y-72430306D01*
X116788707Y-72322371D01*
X116731967Y-72233684D01*
X116634759Y-72131607D01*
X116624121Y-72121243D01*
X116526160Y-72022194D01*
X116458683Y-71946626D01*
X116437834Y-71914663D01*
X116474767Y-71819132D01*
X116568517Y-71730860D01*
X116654924Y-71687486D01*
X116769091Y-71663417D01*
X116931053Y-71648189D01*
X117114589Y-71642008D01*
X117293475Y-71645079D01*
G37*
X117293475Y-71645079D02*
X117441490Y-71657607D01*
X117532412Y-71679799D01*
X117533958Y-71680602D01*
X117588047Y-71719416D01*
X117695313Y-71804338D01*
X117844700Y-71926321D01*
X118025149Y-72076320D01*
X118225599Y-72245289D01*
X118260095Y-72274591D01*
X118461268Y-72442459D01*
X118643708Y-72588659D01*
X118796681Y-72705075D01*
X118909456Y-72783591D01*
X118971299Y-72816090D01*
X118976503Y-72816375D01*
X119019436Y-72779044D01*
X119045090Y-72678663D01*
X119054418Y-72573899D01*
X119057423Y-72374706D01*
X119035240Y-72239172D01*
X118981540Y-72148416D01*
X118890049Y-72083588D01*
X118800823Y-72022963D01*
X118771921Y-71947169D01*
X118774246Y-71882700D01*
X118798897Y-71783539D01*
X118858016Y-71714639D01*
X118963183Y-71671882D01*
X119125978Y-71651148D01*
X119357982Y-71648318D01*
X119428586Y-71649938D01*
X119636009Y-71658460D01*
X119776991Y-71672493D01*
X119869729Y-71695283D01*
X119932418Y-71730079D01*
X119947169Y-71742511D01*
X120013350Y-71827948D01*
X120036167Y-71899592D01*
X120030213Y-71950166D01*
X120001877Y-71996948D01*
X119935448Y-72058142D01*
X119824500Y-72144872D01*
X119718667Y-72225681D01*
X119696622Y-73277274D01*
X119687781Y-73644243D01*
X119677126Y-73935411D01*
X119662807Y-74159646D01*
X119642975Y-74325813D01*
X119615783Y-74442779D01*
X119579380Y-74519411D01*
X119531919Y-74564574D01*
X119471550Y-74587135D01*
X119422039Y-74594104D01*
X119373827Y-74591352D01*
X119315715Y-74570676D01*
X119239044Y-74525727D01*
X119135155Y-74450156D01*
X118995387Y-74337613D01*
X118811083Y-74181749D01*
X118573582Y-73976214D01*
X118542847Y-73949437D01*
X118326350Y-73761772D01*
X118127751Y-73591592D01*
X117957004Y-73447269D01*
X117824062Y-73337175D01*
X117738881Y-73269681D01*
X117715066Y-73253237D01*
X117624307Y-73231675D01*
X117560267Y-73282102D01*
X117520036Y-73408461D01*
X117504931Y-73537850D01*
X117505546Y-73753740D01*
X117537451Y-73933502D01*
X117596131Y-74061084D01*
X117668161Y-74118044D01*
X117753953Y-74175257D01*
X117796864Y-74231187D01*
X117819128Y-74310786D01*
X117785053Y-74394658D01*
X117761253Y-74428395D01*
X117670825Y-74516343D01*
X117577017Y-74567056D01*
X117477824Y-74581627D01*
X117323841Y-74590529D01*
X117144774Y-74593491D01*
X116970328Y-74590242D01*
X116830208Y-74580510D01*
X116787927Y-74574268D01*
X116702350Y-74531027D01*
X116610966Y-74449166D01*
X116542184Y-74358060D01*
X116522500Y-74299833D01*
X116551330Y-74250957D01*
X116624786Y-74169662D01*
X116677433Y-74119113D01*
X116832366Y-73977176D01*
X116852212Y-73427569D01*
X116857523Y-73187683D01*
X116857077Y-72947741D01*
X116851253Y-72736535D01*
X116841233Y-72590128D01*
X116820091Y-72430306D01*
X116788707Y-72322371D01*
X116731967Y-72233684D01*
X116634759Y-72131607D01*
X116624121Y-72121243D01*
X116526160Y-72022194D01*
X116458683Y-71946626D01*
X116437834Y-71914663D01*
X116474767Y-71819132D01*
X116568517Y-71730860D01*
X116654924Y-71687486D01*
X116769091Y-71663417D01*
X116931053Y-71648189D01*
X117114589Y-71642008D01*
X117293475Y-71645079D01*
G36*
X115322547Y-71652614D02*
G01*
X115464889Y-71659880D01*
X115576108Y-71673203D01*
X115669566Y-71693086D01*
X115711501Y-71704944D01*
X115961726Y-71818503D01*
X116154058Y-71981879D01*
X116287123Y-72181863D01*
X116359549Y-72405241D01*
X116369961Y-72638801D01*
X116316988Y-72869332D01*
X116199254Y-73083621D01*
X116015388Y-73268458D01*
X115882937Y-73354224D01*
X115761258Y-73415122D01*
X115647742Y-73454338D01*
X115515223Y-73477885D01*
X115336536Y-73491779D01*
X115241917Y-73496152D01*
X114829167Y-73513214D01*
X114829167Y-73737661D01*
X114835343Y-73913412D01*
X114860145Y-74027630D01*
X114912979Y-74102945D01*
X115003255Y-74161986D01*
X115006208Y-74163519D01*
X115101210Y-74247697D01*
X115121981Y-74350023D01*
X115070117Y-74450967D01*
X114977334Y-74517636D01*
X114858678Y-74552451D01*
X114680051Y-74577340D01*
X114465622Y-74591791D01*
X114239562Y-74595286D01*
X114026041Y-74587312D01*
X113849228Y-74567353D01*
X113753899Y-74543713D01*
X113598319Y-74468379D01*
X113526561Y-74386433D01*
X113537841Y-74294517D01*
X113631377Y-74189273D01*
X113665000Y-74162403D01*
X113813167Y-74049391D01*
X113813167Y-72760628D01*
X114835534Y-72760628D01*
X114843166Y-72900839D01*
X114862064Y-72979121D01*
X114880465Y-73001803D01*
X115008179Y-73036267D01*
X115148370Y-72995715D01*
X115255757Y-72913956D01*
X115334203Y-72819949D01*
X115370645Y-72720314D01*
X115379500Y-72577650D01*
X115351195Y-72371997D01*
X115267103Y-72228757D01*
X115128461Y-72149450D01*
X115017548Y-72133112D01*
X114850334Y-72127533D01*
X114838132Y-72547368D01*
X114835534Y-72760628D01*
X113813167Y-72760628D01*
X113813167Y-72144380D01*
X113672214Y-72085486D01*
X113519479Y-71999018D01*
X113449519Y-71901105D01*
X113452658Y-71812163D01*
X113467280Y-71775600D01*
X113491800Y-71746967D01*
X113536210Y-71724928D01*
X113610502Y-71708149D01*
X113724669Y-71695293D01*
X113888701Y-71685025D01*
X114112592Y-71676009D01*
X114406334Y-71666909D01*
X114575167Y-71662117D01*
X114891048Y-71654236D01*
X115135721Y-71650900D01*
X115322547Y-71652614D01*
G37*
X115322547Y-71652614D02*
X115464889Y-71659880D01*
X115576108Y-71673203D01*
X115669566Y-71693086D01*
X115711501Y-71704944D01*
X115961726Y-71818503D01*
X116154058Y-71981879D01*
X116287123Y-72181863D01*
X116359549Y-72405241D01*
X116369961Y-72638801D01*
X116316988Y-72869332D01*
X116199254Y-73083621D01*
X116015388Y-73268458D01*
X115882937Y-73354224D01*
X115761258Y-73415122D01*
X115647742Y-73454338D01*
X115515223Y-73477885D01*
X115336536Y-73491779D01*
X115241917Y-73496152D01*
X114829167Y-73513214D01*
X114829167Y-73737661D01*
X114835343Y-73913412D01*
X114860145Y-74027630D01*
X114912979Y-74102945D01*
X115003255Y-74161986D01*
X115006208Y-74163519D01*
X115101210Y-74247697D01*
X115121981Y-74350023D01*
X115070117Y-74450967D01*
X114977334Y-74517636D01*
X114858678Y-74552451D01*
X114680051Y-74577340D01*
X114465622Y-74591791D01*
X114239562Y-74595286D01*
X114026041Y-74587312D01*
X113849228Y-74567353D01*
X113753899Y-74543713D01*
X113598319Y-74468379D01*
X113526561Y-74386433D01*
X113537841Y-74294517D01*
X113631377Y-74189273D01*
X113665000Y-74162403D01*
X113813167Y-74049391D01*
X113813167Y-72760628D01*
X114835534Y-72760628D01*
X114843166Y-72900839D01*
X114862064Y-72979121D01*
X114880465Y-73001803D01*
X115008179Y-73036267D01*
X115148370Y-72995715D01*
X115255757Y-72913956D01*
X115334203Y-72819949D01*
X115370645Y-72720314D01*
X115379500Y-72577650D01*
X115351195Y-72371997D01*
X115267103Y-72228757D01*
X115128461Y-72149450D01*
X115017548Y-72133112D01*
X114850334Y-72127533D01*
X114838132Y-72547368D01*
X114835534Y-72760628D01*
X113813167Y-72760628D01*
X113813167Y-72144380D01*
X113672214Y-72085486D01*
X113519479Y-71999018D01*
X113449519Y-71901105D01*
X113452658Y-71812163D01*
X113467280Y-71775600D01*
X113491800Y-71746967D01*
X113536210Y-71724928D01*
X113610502Y-71708149D01*
X113724669Y-71695293D01*
X113888701Y-71685025D01*
X114112592Y-71676009D01*
X114406334Y-71666909D01*
X114575167Y-71662117D01*
X114891048Y-71654236D01*
X115135721Y-71650900D01*
X115322547Y-71652614D01*
G36*
X110604808Y-71645079D02*
G01*
X110752823Y-71657607D01*
X110843745Y-71679799D01*
X110845292Y-71680602D01*
X110899380Y-71719416D01*
X111006647Y-71804338D01*
X111156034Y-71926321D01*
X111336482Y-72076320D01*
X111536933Y-72245289D01*
X111571429Y-72274591D01*
X111772602Y-72442459D01*
X111955041Y-72588659D01*
X112108014Y-72705075D01*
X112220789Y-72783591D01*
X112282633Y-72816090D01*
X112287837Y-72816375D01*
X112330769Y-72779044D01*
X112356424Y-72678663D01*
X112365751Y-72573899D01*
X112368757Y-72374706D01*
X112346574Y-72239172D01*
X112292873Y-72148416D01*
X112201382Y-72083588D01*
X112112157Y-72022963D01*
X112083254Y-71947169D01*
X112085579Y-71882700D01*
X112110230Y-71783539D01*
X112169349Y-71714639D01*
X112274516Y-71671882D01*
X112437311Y-71651148D01*
X112669316Y-71648318D01*
X112739919Y-71649938D01*
X112947342Y-71658460D01*
X113088324Y-71672493D01*
X113181062Y-71695283D01*
X113243751Y-71730079D01*
X113258503Y-71742511D01*
X113324684Y-71827948D01*
X113347500Y-71899592D01*
X113341546Y-71950166D01*
X113313210Y-71996948D01*
X113246782Y-72058142D01*
X113135834Y-72144872D01*
X113030000Y-72225681D01*
X113007955Y-73277274D01*
X112999114Y-73644243D01*
X112988459Y-73935411D01*
X112974140Y-74159646D01*
X112954309Y-74325813D01*
X112927116Y-74442779D01*
X112890714Y-74519411D01*
X112843252Y-74564574D01*
X112782883Y-74587135D01*
X112733372Y-74594104D01*
X112685160Y-74591352D01*
X112627049Y-74570676D01*
X112550378Y-74525727D01*
X112446488Y-74450156D01*
X112306721Y-74337613D01*
X112122416Y-74181749D01*
X111884915Y-73976214D01*
X111854180Y-73949437D01*
X111637683Y-73761772D01*
X111439084Y-73591592D01*
X111268337Y-73447269D01*
X111135396Y-73337175D01*
X111050214Y-73269681D01*
X111026399Y-73253237D01*
X110935640Y-73231675D01*
X110871600Y-73282102D01*
X110831369Y-73408461D01*
X110816265Y-73537850D01*
X110816879Y-73753740D01*
X110848785Y-73933502D01*
X110907464Y-74061084D01*
X110979494Y-74118044D01*
X111065286Y-74175257D01*
X111108197Y-74231187D01*
X111130462Y-74310786D01*
X111096387Y-74394658D01*
X111072586Y-74428395D01*
X110982158Y-74516343D01*
X110888351Y-74567056D01*
X110789157Y-74581627D01*
X110635174Y-74590529D01*
X110456107Y-74593491D01*
X110281661Y-74590242D01*
X110141541Y-74580510D01*
X110099260Y-74574268D01*
X110013684Y-74531027D01*
X109922299Y-74449166D01*
X109853517Y-74358060D01*
X109833834Y-74299833D01*
X109862664Y-74250957D01*
X109936120Y-74169662D01*
X109988766Y-74119113D01*
X110143699Y-73977176D01*
X110163545Y-73427569D01*
X110168856Y-73187683D01*
X110168411Y-72947741D01*
X110162587Y-72736535D01*
X110152567Y-72590128D01*
X110131424Y-72430306D01*
X110100040Y-72322371D01*
X110043301Y-72233684D01*
X109946093Y-72131607D01*
X109935455Y-72121243D01*
X109837493Y-72022194D01*
X109770016Y-71946626D01*
X109749167Y-71914663D01*
X109786100Y-71819132D01*
X109879850Y-71730860D01*
X109966257Y-71687486D01*
X110080425Y-71663417D01*
X110242387Y-71648189D01*
X110425922Y-71642008D01*
X110604808Y-71645079D01*
G37*
X110604808Y-71645079D02*
X110752823Y-71657607D01*
X110843745Y-71679799D01*
X110845292Y-71680602D01*
X110899380Y-71719416D01*
X111006647Y-71804338D01*
X111156034Y-71926321D01*
X111336482Y-72076320D01*
X111536933Y-72245289D01*
X111571429Y-72274591D01*
X111772602Y-72442459D01*
X111955041Y-72588659D01*
X112108014Y-72705075D01*
X112220789Y-72783591D01*
X112282633Y-72816090D01*
X112287837Y-72816375D01*
X112330769Y-72779044D01*
X112356424Y-72678663D01*
X112365751Y-72573899D01*
X112368757Y-72374706D01*
X112346574Y-72239172D01*
X112292873Y-72148416D01*
X112201382Y-72083588D01*
X112112157Y-72022963D01*
X112083254Y-71947169D01*
X112085579Y-71882700D01*
X112110230Y-71783539D01*
X112169349Y-71714639D01*
X112274516Y-71671882D01*
X112437311Y-71651148D01*
X112669316Y-71648318D01*
X112739919Y-71649938D01*
X112947342Y-71658460D01*
X113088324Y-71672493D01*
X113181062Y-71695283D01*
X113243751Y-71730079D01*
X113258503Y-71742511D01*
X113324684Y-71827948D01*
X113347500Y-71899592D01*
X113341546Y-71950166D01*
X113313210Y-71996948D01*
X113246782Y-72058142D01*
X113135834Y-72144872D01*
X113030000Y-72225681D01*
X113007955Y-73277274D01*
X112999114Y-73644243D01*
X112988459Y-73935411D01*
X112974140Y-74159646D01*
X112954309Y-74325813D01*
X112927116Y-74442779D01*
X112890714Y-74519411D01*
X112843252Y-74564574D01*
X112782883Y-74587135D01*
X112733372Y-74594104D01*
X112685160Y-74591352D01*
X112627049Y-74570676D01*
X112550378Y-74525727D01*
X112446488Y-74450156D01*
X112306721Y-74337613D01*
X112122416Y-74181749D01*
X111884915Y-73976214D01*
X111854180Y-73949437D01*
X111637683Y-73761772D01*
X111439084Y-73591592D01*
X111268337Y-73447269D01*
X111135396Y-73337175D01*
X111050214Y-73269681D01*
X111026399Y-73253237D01*
X110935640Y-73231675D01*
X110871600Y-73282102D01*
X110831369Y-73408461D01*
X110816265Y-73537850D01*
X110816879Y-73753740D01*
X110848785Y-73933502D01*
X110907464Y-74061084D01*
X110979494Y-74118044D01*
X111065286Y-74175257D01*
X111108197Y-74231187D01*
X111130462Y-74310786D01*
X111096387Y-74394658D01*
X111072586Y-74428395D01*
X110982158Y-74516343D01*
X110888351Y-74567056D01*
X110789157Y-74581627D01*
X110635174Y-74590529D01*
X110456107Y-74593491D01*
X110281661Y-74590242D01*
X110141541Y-74580510D01*
X110099260Y-74574268D01*
X110013684Y-74531027D01*
X109922299Y-74449166D01*
X109853517Y-74358060D01*
X109833834Y-74299833D01*
X109862664Y-74250957D01*
X109936120Y-74169662D01*
X109988766Y-74119113D01*
X110143699Y-73977176D01*
X110163545Y-73427569D01*
X110168856Y-73187683D01*
X110168411Y-72947741D01*
X110162587Y-72736535D01*
X110152567Y-72590128D01*
X110131424Y-72430306D01*
X110100040Y-72322371D01*
X110043301Y-72233684D01*
X109946093Y-72131607D01*
X109935455Y-72121243D01*
X109837493Y-72022194D01*
X109770016Y-71946626D01*
X109749167Y-71914663D01*
X109786100Y-71819132D01*
X109879850Y-71730860D01*
X109966257Y-71687486D01*
X110080425Y-71663417D01*
X110242387Y-71648189D01*
X110425922Y-71642008D01*
X110604808Y-71645079D01*
G36*
X108591547Y-71652614D02*
G01*
X108733889Y-71659880D01*
X108845108Y-71673203D01*
X108938566Y-71693086D01*
X108980501Y-71704944D01*
X109230726Y-71818503D01*
X109423058Y-71981879D01*
X109556123Y-72181863D01*
X109628549Y-72405241D01*
X109638961Y-72638801D01*
X109585988Y-72869332D01*
X109468254Y-73083621D01*
X109284388Y-73268458D01*
X109151937Y-73354224D01*
X109030258Y-73415122D01*
X108916742Y-73454338D01*
X108784223Y-73477885D01*
X108605536Y-73491779D01*
X108510917Y-73496152D01*
X108098167Y-73513214D01*
X108098167Y-73737661D01*
X108104343Y-73913412D01*
X108129145Y-74027630D01*
X108181979Y-74102945D01*
X108272255Y-74161986D01*
X108275208Y-74163519D01*
X108370210Y-74247697D01*
X108390981Y-74350023D01*
X108339117Y-74450967D01*
X108246334Y-74517636D01*
X108127678Y-74552451D01*
X107949051Y-74577340D01*
X107734622Y-74591791D01*
X107508562Y-74595286D01*
X107295041Y-74587312D01*
X107118228Y-74567353D01*
X107022899Y-74543713D01*
X106867319Y-74468379D01*
X106795561Y-74386433D01*
X106806841Y-74294517D01*
X106900377Y-74189273D01*
X106934000Y-74162403D01*
X107082167Y-74049391D01*
X107082167Y-72760628D01*
X108104534Y-72760628D01*
X108112166Y-72900839D01*
X108131064Y-72979121D01*
X108149465Y-73001803D01*
X108277179Y-73036267D01*
X108417370Y-72995715D01*
X108524757Y-72913956D01*
X108603203Y-72819949D01*
X108639645Y-72720314D01*
X108648500Y-72577650D01*
X108620195Y-72371997D01*
X108536103Y-72228757D01*
X108397461Y-72149450D01*
X108286548Y-72133112D01*
X108119334Y-72127533D01*
X108107132Y-72547368D01*
X108104534Y-72760628D01*
X107082167Y-72760628D01*
X107082167Y-72144380D01*
X106941214Y-72085486D01*
X106788479Y-71999018D01*
X106718519Y-71901105D01*
X106721658Y-71812163D01*
X106736280Y-71775600D01*
X106760800Y-71746967D01*
X106805210Y-71724928D01*
X106879502Y-71708149D01*
X106993669Y-71695293D01*
X107157701Y-71685025D01*
X107381592Y-71676009D01*
X107675334Y-71666909D01*
X107844167Y-71662117D01*
X108160048Y-71654236D01*
X108404721Y-71650900D01*
X108591547Y-71652614D01*
G37*
X108591547Y-71652614D02*
X108733889Y-71659880D01*
X108845108Y-71673203D01*
X108938566Y-71693086D01*
X108980501Y-71704944D01*
X109230726Y-71818503D01*
X109423058Y-71981879D01*
X109556123Y-72181863D01*
X109628549Y-72405241D01*
X109638961Y-72638801D01*
X109585988Y-72869332D01*
X109468254Y-73083621D01*
X109284388Y-73268458D01*
X109151937Y-73354224D01*
X109030258Y-73415122D01*
X108916742Y-73454338D01*
X108784223Y-73477885D01*
X108605536Y-73491779D01*
X108510917Y-73496152D01*
X108098167Y-73513214D01*
X108098167Y-73737661D01*
X108104343Y-73913412D01*
X108129145Y-74027630D01*
X108181979Y-74102945D01*
X108272255Y-74161986D01*
X108275208Y-74163519D01*
X108370210Y-74247697D01*
X108390981Y-74350023D01*
X108339117Y-74450967D01*
X108246334Y-74517636D01*
X108127678Y-74552451D01*
X107949051Y-74577340D01*
X107734622Y-74591791D01*
X107508562Y-74595286D01*
X107295041Y-74587312D01*
X107118228Y-74567353D01*
X107022899Y-74543713D01*
X106867319Y-74468379D01*
X106795561Y-74386433D01*
X106806841Y-74294517D01*
X106900377Y-74189273D01*
X106934000Y-74162403D01*
X107082167Y-74049391D01*
X107082167Y-72760628D01*
X108104534Y-72760628D01*
X108112166Y-72900839D01*
X108131064Y-72979121D01*
X108149465Y-73001803D01*
X108277179Y-73036267D01*
X108417370Y-72995715D01*
X108524757Y-72913956D01*
X108603203Y-72819949D01*
X108639645Y-72720314D01*
X108648500Y-72577650D01*
X108620195Y-72371997D01*
X108536103Y-72228757D01*
X108397461Y-72149450D01*
X108286548Y-72133112D01*
X108119334Y-72127533D01*
X108107132Y-72547368D01*
X108104534Y-72760628D01*
X107082167Y-72760628D01*
X107082167Y-72144380D01*
X106941214Y-72085486D01*
X106788479Y-71999018D01*
X106718519Y-71901105D01*
X106721658Y-71812163D01*
X106736280Y-71775600D01*
X106760800Y-71746967D01*
X106805210Y-71724928D01*
X106879502Y-71708149D01*
X106993669Y-71695293D01*
X107157701Y-71685025D01*
X107381592Y-71676009D01*
X107675334Y-71666909D01*
X107844167Y-71662117D01*
X108160048Y-71654236D01*
X108404721Y-71650900D01*
X108591547Y-71652614D01*
G36*
X118208404Y-75587834D02*
G01*
X118215834Y-75627412D01*
X118215834Y-75719458D01*
X118313812Y-75627412D01*
X118439873Y-75548722D01*
X118557899Y-75550184D01*
X118657409Y-75631336D01*
X118665363Y-75642934D01*
X118711113Y-75741886D01*
X118697155Y-75834315D01*
X118688945Y-75853433D01*
X118608050Y-75948754D01*
X118495465Y-75989204D01*
X118382241Y-75966667D01*
X118348276Y-75942458D01*
X118277667Y-75898111D01*
X118235501Y-75924586D01*
X118217356Y-76026848D01*
X118215834Y-76091266D01*
X118232072Y-76218394D01*
X118287205Y-76289503D01*
X118300500Y-76297367D01*
X118372133Y-76364268D01*
X118375460Y-76435819D01*
X118318204Y-76483337D01*
X118210930Y-76505350D01*
X118067674Y-76511477D01*
X117917603Y-76503440D01*
X117789880Y-76482963D01*
X117713673Y-76451771D01*
X117709343Y-76447352D01*
X117681823Y-76384052D01*
X117714138Y-76306238D01*
X117725326Y-76289766D01*
X117774799Y-76173122D01*
X117791618Y-76033224D01*
X117775973Y-75903016D01*
X117728058Y-75815440D01*
X117722533Y-75811039D01*
X117677869Y-75745204D01*
X117716656Y-75675645D01*
X117837850Y-75604012D01*
X117859808Y-75594547D01*
X118026840Y-75541646D01*
X118145884Y-75539671D01*
X118208404Y-75587834D01*
G37*
X118208404Y-75587834D02*
X118215834Y-75627412D01*
X118215834Y-75719458D01*
X118313812Y-75627412D01*
X118439873Y-75548722D01*
X118557899Y-75550184D01*
X118657409Y-75631336D01*
X118665363Y-75642934D01*
X118711113Y-75741886D01*
X118697155Y-75834315D01*
X118688945Y-75853433D01*
X118608050Y-75948754D01*
X118495465Y-75989204D01*
X118382241Y-75966667D01*
X118348276Y-75942458D01*
X118277667Y-75898111D01*
X118235501Y-75924586D01*
X118217356Y-76026848D01*
X118215834Y-76091266D01*
X118232072Y-76218394D01*
X118287205Y-76289503D01*
X118300500Y-76297367D01*
X118372133Y-76364268D01*
X118375460Y-76435819D01*
X118318204Y-76483337D01*
X118210930Y-76505350D01*
X118067674Y-76511477D01*
X117917603Y-76503440D01*
X117789880Y-76482963D01*
X117713673Y-76451771D01*
X117709343Y-76447352D01*
X117681823Y-76384052D01*
X117714138Y-76306238D01*
X117725326Y-76289766D01*
X117774799Y-76173122D01*
X117791618Y-76033224D01*
X117775973Y-75903016D01*
X117728058Y-75815440D01*
X117722533Y-75811039D01*
X117677869Y-75745204D01*
X117716656Y-75675645D01*
X117837850Y-75604012D01*
X117859808Y-75594547D01*
X118026840Y-75541646D01*
X118145884Y-75539671D01*
X118208404Y-75587834D01*
G36*
X117222609Y-75550337D02*
G01*
X117397311Y-75622270D01*
X117530842Y-75746052D01*
X117608900Y-75913927D01*
X117623167Y-76035555D01*
X117584680Y-76193621D01*
X117481204Y-76327139D01*
X117330710Y-76428456D01*
X117151174Y-76489918D01*
X116960569Y-76503873D01*
X116776868Y-76462666D01*
X116705119Y-76426474D01*
X116561417Y-76306257D01*
X116494160Y-76160172D01*
X116492990Y-75991645D01*
X116529960Y-75874686D01*
X116946883Y-75874686D01*
X116948214Y-75994049D01*
X116971455Y-76114699D01*
X117012230Y-76203989D01*
X117080087Y-76270600D01*
X117129303Y-76256951D01*
X117154946Y-76166331D01*
X117157500Y-76107124D01*
X117141653Y-75949197D01*
X117099770Y-75824945D01*
X117040339Y-75755144D01*
X117010381Y-75747033D01*
X116967569Y-75783414D01*
X116946883Y-75874686D01*
X116529960Y-75874686D01*
X116552588Y-75803102D01*
X116677771Y-75664445D01*
X116806890Y-75593024D01*
X117021035Y-75538004D01*
X117222609Y-75550337D01*
G37*
X117222609Y-75550337D02*
X117397311Y-75622270D01*
X117530842Y-75746052D01*
X117608900Y-75913927D01*
X117623167Y-76035555D01*
X117584680Y-76193621D01*
X117481204Y-76327139D01*
X117330710Y-76428456D01*
X117151174Y-76489918D01*
X116960569Y-76503873D01*
X116776868Y-76462666D01*
X116705119Y-76426474D01*
X116561417Y-76306257D01*
X116494160Y-76160172D01*
X116492990Y-75991645D01*
X116529960Y-75874686D01*
X116946883Y-75874686D01*
X116948214Y-75994049D01*
X116971455Y-76114699D01*
X117012230Y-76203989D01*
X117080087Y-76270600D01*
X117129303Y-76256951D01*
X117154946Y-76166331D01*
X117157500Y-76107124D01*
X117141653Y-75949197D01*
X117099770Y-75824945D01*
X117040339Y-75755144D01*
X117010381Y-75747033D01*
X116967569Y-75783414D01*
X116946883Y-75874686D01*
X116529960Y-75874686D01*
X116552588Y-75803102D01*
X116677771Y-75664445D01*
X116806890Y-75593024D01*
X117021035Y-75538004D01*
X117222609Y-75550337D01*
G36*
X116118629Y-75348349D02*
G01*
X116141500Y-75426851D01*
X116156611Y-75500847D01*
X116218293Y-75534558D01*
X116279084Y-75543268D01*
X116378732Y-75566503D01*
X116415098Y-75619108D01*
X116416667Y-75641200D01*
X116394917Y-75704233D01*
X116316193Y-75734390D01*
X116277055Y-75739283D01*
X116137444Y-75752700D01*
X116150055Y-75993283D01*
X116159499Y-76129182D01*
X116177201Y-76200938D01*
X116214705Y-76229012D01*
X116283554Y-76233866D01*
X116285788Y-76233867D01*
X116391524Y-76252188D01*
X116421645Y-76300896D01*
X116375279Y-76370602D01*
X116303356Y-76422942D01*
X116120138Y-76497658D01*
X115947766Y-76498043D01*
X115800823Y-76424595D01*
X115779743Y-76405124D01*
X115721553Y-76334524D01*
X115689968Y-76252222D01*
X115677401Y-76130403D01*
X115675834Y-76024124D01*
X115673230Y-75874579D01*
X115661622Y-75790985D01*
X115635309Y-75754690D01*
X115591167Y-75747033D01*
X115515388Y-75726638D01*
X115506640Y-75672303D01*
X115559747Y-75594307D01*
X115669537Y-75502927D01*
X115735366Y-75460590D01*
X115918655Y-75363430D01*
X116045381Y-75326102D01*
X116118629Y-75348349D01*
G37*
X116118629Y-75348349D02*
X116141500Y-75426851D01*
X116156611Y-75500847D01*
X116218293Y-75534558D01*
X116279084Y-75543268D01*
X116378732Y-75566503D01*
X116415098Y-75619108D01*
X116416667Y-75641200D01*
X116394917Y-75704233D01*
X116316193Y-75734390D01*
X116277055Y-75739283D01*
X116137444Y-75752700D01*
X116150055Y-75993283D01*
X116159499Y-76129182D01*
X116177201Y-76200938D01*
X116214705Y-76229012D01*
X116283554Y-76233866D01*
X116285788Y-76233867D01*
X116391524Y-76252188D01*
X116421645Y-76300896D01*
X116375279Y-76370602D01*
X116303356Y-76422942D01*
X116120138Y-76497658D01*
X115947766Y-76498043D01*
X115800823Y-76424595D01*
X115779743Y-76405124D01*
X115721553Y-76334524D01*
X115689968Y-76252222D01*
X115677401Y-76130403D01*
X115675834Y-76024124D01*
X115673230Y-75874579D01*
X115661622Y-75790985D01*
X115635309Y-75754690D01*
X115591167Y-75747033D01*
X115515388Y-75726638D01*
X115506640Y-75672303D01*
X115559747Y-75594307D01*
X115669537Y-75502927D01*
X115735366Y-75460590D01*
X115918655Y-75363430D01*
X116045381Y-75326102D01*
X116118629Y-75348349D01*
G36*
X115177245Y-75551175D02*
G01*
X115339569Y-75599466D01*
X115451119Y-75683562D01*
X115484679Y-75744970D01*
X115489623Y-75860210D01*
X115439286Y-75946656D01*
X115356105Y-75994082D01*
X115262515Y-75992267D01*
X115180953Y-75930986D01*
X115159248Y-75893262D01*
X115091960Y-75809350D01*
X115022572Y-75798012D01*
X114947180Y-75843907D01*
X114920747Y-75937754D01*
X114946655Y-76056154D01*
X114977133Y-76112502D01*
X115032492Y-76178426D01*
X115103466Y-76206169D01*
X115221736Y-76206756D01*
X115243803Y-76205304D01*
X115387829Y-76212170D01*
X115457843Y-76252539D01*
X115450654Y-76318295D01*
X115363069Y-76401321D01*
X115329469Y-76423075D01*
X115147827Y-76491197D01*
X114944389Y-76502003D01*
X114757242Y-76454232D01*
X114734449Y-76442765D01*
X114589679Y-76321850D01*
X114510919Y-76163747D01*
X114500905Y-75987525D01*
X114562374Y-75812254D01*
X114630709Y-75719795D01*
X114738129Y-75619539D01*
X114847617Y-75568241D01*
X114983532Y-75546371D01*
X115177245Y-75551175D01*
G37*
X115177245Y-75551175D02*
X115339569Y-75599466D01*
X115451119Y-75683562D01*
X115484679Y-75744970D01*
X115489623Y-75860210D01*
X115439286Y-75946656D01*
X115356105Y-75994082D01*
X115262515Y-75992267D01*
X115180953Y-75930986D01*
X115159248Y-75893262D01*
X115091960Y-75809350D01*
X115022572Y-75798012D01*
X114947180Y-75843907D01*
X114920747Y-75937754D01*
X114946655Y-76056154D01*
X114977133Y-76112502D01*
X115032492Y-76178426D01*
X115103466Y-76206169D01*
X115221736Y-76206756D01*
X115243803Y-76205304D01*
X115387829Y-76212170D01*
X115457843Y-76252539D01*
X115450654Y-76318295D01*
X115363069Y-76401321D01*
X115329469Y-76423075D01*
X115147827Y-76491197D01*
X114944389Y-76502003D01*
X114757242Y-76454232D01*
X114734449Y-76442765D01*
X114589679Y-76321850D01*
X114510919Y-76163747D01*
X114500905Y-75987525D01*
X114562374Y-75812254D01*
X114630709Y-75719795D01*
X114738129Y-75619539D01*
X114847617Y-75568241D01*
X114983532Y-75546371D01*
X115177245Y-75551175D01*
G36*
X114101032Y-75573960D02*
G01*
X114224727Y-75633483D01*
X114294139Y-75746710D01*
X114320163Y-75924981D01*
X114321167Y-75982453D01*
X114329496Y-76131402D01*
X114358261Y-76217655D01*
X114395250Y-76252809D01*
X114437408Y-76287325D01*
X114427614Y-76327269D01*
X114359087Y-76395447D01*
X114350556Y-76403079D01*
X114218347Y-76486296D01*
X114091393Y-76505719D01*
X113992115Y-76459381D01*
X113931841Y-76430918D01*
X113840311Y-76456313D01*
X113833490Y-76459381D01*
X113653796Y-76506072D01*
X113497972Y-76471555D01*
X113409076Y-76405124D01*
X113329241Y-76312537D01*
X113314010Y-76238723D01*
X113329870Y-76210573D01*
X113737363Y-76210573D01*
X113780542Y-76278841D01*
X113833005Y-76297367D01*
X113885452Y-76260708D01*
X113897834Y-76191533D01*
X113871929Y-76109963D01*
X113813605Y-76083672D01*
X113751944Y-76124625D01*
X113748414Y-76130060D01*
X113737363Y-76210573D01*
X113329870Y-76210573D01*
X113362626Y-76152436D01*
X113401814Y-76105063D01*
X113507677Y-76019695D01*
X113655662Y-75975842D01*
X113698147Y-75970196D01*
X113820082Y-75951319D01*
X113879171Y-75921869D01*
X113897184Y-75868312D01*
X113897834Y-75846032D01*
X113872781Y-75749431D01*
X113805447Y-75719668D01*
X113707565Y-75758382D01*
X113643834Y-75810533D01*
X113537014Y-75886461D01*
X113451238Y-75900330D01*
X113401617Y-75854051D01*
X113397448Y-75779369D01*
X113452194Y-75680895D01*
X113577377Y-75607935D01*
X113761272Y-75565560D01*
X113912157Y-75556801D01*
X114101032Y-75573960D01*
G37*
X114101032Y-75573960D02*
X114224727Y-75633483D01*
X114294139Y-75746710D01*
X114320163Y-75924981D01*
X114321167Y-75982453D01*
X114329496Y-76131402D01*
X114358261Y-76217655D01*
X114395250Y-76252809D01*
X114437408Y-76287325D01*
X114427614Y-76327269D01*
X114359087Y-76395447D01*
X114350556Y-76403079D01*
X114218347Y-76486296D01*
X114091393Y-76505719D01*
X113992115Y-76459381D01*
X113931841Y-76430918D01*
X113840311Y-76456313D01*
X113833490Y-76459381D01*
X113653796Y-76506072D01*
X113497972Y-76471555D01*
X113409076Y-76405124D01*
X113329241Y-76312537D01*
X113314010Y-76238723D01*
X113329870Y-76210573D01*
X113737363Y-76210573D01*
X113780542Y-76278841D01*
X113833005Y-76297367D01*
X113885452Y-76260708D01*
X113897834Y-76191533D01*
X113871929Y-76109963D01*
X113813605Y-76083672D01*
X113751944Y-76124625D01*
X113748414Y-76130060D01*
X113737363Y-76210573D01*
X113329870Y-76210573D01*
X113362626Y-76152436D01*
X113401814Y-76105063D01*
X113507677Y-76019695D01*
X113655662Y-75975842D01*
X113698147Y-75970196D01*
X113820082Y-75951319D01*
X113879171Y-75921869D01*
X113897184Y-75868312D01*
X113897834Y-75846032D01*
X113872781Y-75749431D01*
X113805447Y-75719668D01*
X113707565Y-75758382D01*
X113643834Y-75810533D01*
X113537014Y-75886461D01*
X113451238Y-75900330D01*
X113401617Y-75854051D01*
X113397448Y-75779369D01*
X113452194Y-75680895D01*
X113577377Y-75607935D01*
X113761272Y-75565560D01*
X113912157Y-75556801D01*
X114101032Y-75573960D01*
G36*
X113020949Y-75252309D02*
G01*
X113159505Y-75296984D01*
X113240730Y-75375850D01*
X113254844Y-75463959D01*
X113209301Y-75543829D01*
X113116260Y-75569814D01*
X112995924Y-75538871D01*
X112945663Y-75510523D01*
X112845532Y-75465391D01*
X112791732Y-75481535D01*
X112791024Y-75530816D01*
X112847920Y-75594678D01*
X112941130Y-75656962D01*
X113049370Y-75701510D01*
X113094055Y-75711025D01*
X113180212Y-75750119D01*
X113217579Y-75817623D01*
X113201629Y-75884988D01*
X113127836Y-75923666D01*
X113127765Y-75923676D01*
X113059645Y-75948683D01*
X113036184Y-76014579D01*
X113036276Y-76075426D01*
X113080802Y-76224867D01*
X113142109Y-76297648D01*
X113208097Y-76359078D01*
X113212359Y-76398137D01*
X113159492Y-76445505D01*
X113061347Y-76484564D01*
X112912759Y-76505446D01*
X112746045Y-76507861D01*
X112593518Y-76491515D01*
X112487494Y-76456117D01*
X112480846Y-76451630D01*
X112408805Y-76416259D01*
X112330693Y-76432874D01*
X112292838Y-76451369D01*
X112165975Y-76495491D01*
X112035650Y-76507502D01*
X111930325Y-76487911D01*
X111880559Y-76444014D01*
X111854324Y-76402585D01*
X111807714Y-76412473D01*
X111756377Y-76444014D01*
X111608841Y-76500697D01*
X111454612Y-76497081D01*
X111326459Y-76434627D01*
X111315500Y-76424367D01*
X111263399Y-76349176D01*
X111237396Y-76240828D01*
X111230834Y-76088724D01*
X111219092Y-75906192D01*
X111182342Y-75794445D01*
X111163222Y-75770136D01*
X111116850Y-75688055D01*
X111147693Y-75619379D01*
X111248777Y-75568543D01*
X111413126Y-75539980D01*
X111532459Y-75535367D01*
X111654167Y-75535367D01*
X111654167Y-75868850D01*
X111664033Y-76082695D01*
X111693057Y-76219798D01*
X111740376Y-76278154D01*
X111805129Y-76255756D01*
X111816041Y-76245559D01*
X111852288Y-76162546D01*
X111864913Y-76033885D01*
X111854961Y-75894919D01*
X111823476Y-75780995D01*
X111801266Y-75745853D01*
X111758910Y-75684947D01*
X111780635Y-75639121D01*
X111802670Y-75619754D01*
X111882336Y-75583541D01*
X112009408Y-75553944D01*
X112078905Y-75544798D01*
X112289167Y-75524594D01*
X112289167Y-75884630D01*
X112296577Y-76102075D01*
X112321188Y-76243037D01*
X112366571Y-76314593D01*
X112436297Y-76323823D01*
X112498127Y-76298815D01*
X112559399Y-76231657D01*
X112589797Y-76131278D01*
X112589119Y-76026266D01*
X112557164Y-75945209D01*
X112500834Y-75916367D01*
X112430081Y-75886432D01*
X112416167Y-75831700D01*
X112434102Y-75762913D01*
X112459000Y-75747033D01*
X112482340Y-75709491D01*
X112479463Y-75608942D01*
X112476357Y-75587709D01*
X112480627Y-75440823D01*
X112550887Y-75337386D01*
X112691742Y-75273086D01*
X112838383Y-75248707D01*
X113020949Y-75252309D01*
G37*
X113020949Y-75252309D02*
X113159505Y-75296984D01*
X113240730Y-75375850D01*
X113254844Y-75463959D01*
X113209301Y-75543829D01*
X113116260Y-75569814D01*
X112995924Y-75538871D01*
X112945663Y-75510523D01*
X112845532Y-75465391D01*
X112791732Y-75481535D01*
X112791024Y-75530816D01*
X112847920Y-75594678D01*
X112941130Y-75656962D01*
X113049370Y-75701510D01*
X113094055Y-75711025D01*
X113180212Y-75750119D01*
X113217579Y-75817623D01*
X113201629Y-75884988D01*
X113127836Y-75923666D01*
X113127765Y-75923676D01*
X113059645Y-75948683D01*
X113036184Y-76014579D01*
X113036276Y-76075426D01*
X113080802Y-76224867D01*
X113142109Y-76297648D01*
X113208097Y-76359078D01*
X113212359Y-76398137D01*
X113159492Y-76445505D01*
X113061347Y-76484564D01*
X112912759Y-76505446D01*
X112746045Y-76507861D01*
X112593518Y-76491515D01*
X112487494Y-76456117D01*
X112480846Y-76451630D01*
X112408805Y-76416259D01*
X112330693Y-76432874D01*
X112292838Y-76451369D01*
X112165975Y-76495491D01*
X112035650Y-76507502D01*
X111930325Y-76487911D01*
X111880559Y-76444014D01*
X111854324Y-76402585D01*
X111807714Y-76412473D01*
X111756377Y-76444014D01*
X111608841Y-76500697D01*
X111454612Y-76497081D01*
X111326459Y-76434627D01*
X111315500Y-76424367D01*
X111263399Y-76349176D01*
X111237396Y-76240828D01*
X111230834Y-76088724D01*
X111219092Y-75906192D01*
X111182342Y-75794445D01*
X111163222Y-75770136D01*
X111116850Y-75688055D01*
X111147693Y-75619379D01*
X111248777Y-75568543D01*
X111413126Y-75539980D01*
X111532459Y-75535367D01*
X111654167Y-75535367D01*
X111654167Y-75868850D01*
X111664033Y-76082695D01*
X111693057Y-76219798D01*
X111740376Y-76278154D01*
X111805129Y-76255756D01*
X111816041Y-76245559D01*
X111852288Y-76162546D01*
X111864913Y-76033885D01*
X111854961Y-75894919D01*
X111823476Y-75780995D01*
X111801266Y-75745853D01*
X111758910Y-75684947D01*
X111780635Y-75639121D01*
X111802670Y-75619754D01*
X111882336Y-75583541D01*
X112009408Y-75553944D01*
X112078905Y-75544798D01*
X112289167Y-75524594D01*
X112289167Y-75884630D01*
X112296577Y-76102075D01*
X112321188Y-76243037D01*
X112366571Y-76314593D01*
X112436297Y-76323823D01*
X112498127Y-76298815D01*
X112559399Y-76231657D01*
X112589797Y-76131278D01*
X112589119Y-76026266D01*
X112557164Y-75945209D01*
X112500834Y-75916367D01*
X112430081Y-75886432D01*
X112416167Y-75831700D01*
X112434102Y-75762913D01*
X112459000Y-75747033D01*
X112482340Y-75709491D01*
X112479463Y-75608942D01*
X112476357Y-75587709D01*
X112480627Y-75440823D01*
X112550887Y-75337386D01*
X112691742Y-75273086D01*
X112838383Y-75248707D01*
X113020949Y-75252309D01*
G36*
X110765530Y-75572750D02*
G01*
X110870208Y-75678126D01*
X110926729Y-75841335D01*
X110934500Y-75944602D01*
X110949345Y-76101312D01*
X110986017Y-76251694D01*
X110995726Y-76277287D01*
X111031967Y-76375835D01*
X111028671Y-76427918D01*
X110982934Y-76463405D01*
X110977343Y-76466427D01*
X110876613Y-76494957D01*
X110736759Y-76506859D01*
X110595460Y-76501757D01*
X110490398Y-76479277D01*
X110475046Y-76471435D01*
X110439724Y-76423141D01*
X110464463Y-76347867D01*
X110499012Y-76235708D01*
X110510473Y-76094512D01*
X110499796Y-75957037D01*
X110467932Y-75856041D01*
X110449521Y-75833239D01*
X110375505Y-75797471D01*
X110327735Y-75836866D01*
X110305121Y-75953608D01*
X110305167Y-76122162D01*
X110307053Y-76274063D01*
X110299394Y-76395221D01*
X110285084Y-76456117D01*
X110224490Y-76487804D01*
X110112142Y-76504786D01*
X109979787Y-76506340D01*
X109859174Y-76491744D01*
X109791500Y-76467343D01*
X109750803Y-76422576D01*
X109771604Y-76357076D01*
X109780917Y-76341566D01*
X109818140Y-76235163D01*
X109833209Y-76093815D01*
X109826765Y-75949479D01*
X109799453Y-75834106D01*
X109769811Y-75788933D01*
X109732103Y-75723689D01*
X109776872Y-75661628D01*
X109901935Y-75604887D01*
X109980860Y-75582403D01*
X110127526Y-75548255D01*
X110210643Y-75540260D01*
X110247931Y-75560831D01*
X110257112Y-75612382D01*
X110257167Y-75620033D01*
X110272171Y-75688864D01*
X110292939Y-75704700D01*
X110345194Y-75676393D01*
X110405334Y-75620033D01*
X110518144Y-75551346D01*
X110620489Y-75535367D01*
X110765530Y-75572750D01*
G37*
X110765530Y-75572750D02*
X110870208Y-75678126D01*
X110926729Y-75841335D01*
X110934500Y-75944602D01*
X110949345Y-76101312D01*
X110986017Y-76251694D01*
X110995726Y-76277287D01*
X111031967Y-76375835D01*
X111028671Y-76427918D01*
X110982934Y-76463405D01*
X110977343Y-76466427D01*
X110876613Y-76494957D01*
X110736759Y-76506859D01*
X110595460Y-76501757D01*
X110490398Y-76479277D01*
X110475046Y-76471435D01*
X110439724Y-76423141D01*
X110464463Y-76347867D01*
X110499012Y-76235708D01*
X110510473Y-76094512D01*
X110499796Y-75957037D01*
X110467932Y-75856041D01*
X110449521Y-75833239D01*
X110375505Y-75797471D01*
X110327735Y-75836866D01*
X110305121Y-75953608D01*
X110305167Y-76122162D01*
X110307053Y-76274063D01*
X110299394Y-76395221D01*
X110285084Y-76456117D01*
X110224490Y-76487804D01*
X110112142Y-76504786D01*
X109979787Y-76506340D01*
X109859174Y-76491744D01*
X109791500Y-76467343D01*
X109750803Y-76422576D01*
X109771604Y-76357076D01*
X109780917Y-76341566D01*
X109818140Y-76235163D01*
X109833209Y-76093815D01*
X109826765Y-75949479D01*
X109799453Y-75834106D01*
X109769811Y-75788933D01*
X109732103Y-75723689D01*
X109776872Y-75661628D01*
X109901935Y-75604887D01*
X109980860Y-75582403D01*
X110127526Y-75548255D01*
X110210643Y-75540260D01*
X110247931Y-75560831D01*
X110257112Y-75612382D01*
X110257167Y-75620033D01*
X110272171Y-75688864D01*
X110292939Y-75704700D01*
X110345194Y-75676393D01*
X110405334Y-75620033D01*
X110518144Y-75551346D01*
X110620489Y-75535367D01*
X110765530Y-75572750D01*
G36*
X109359699Y-75573960D02*
G01*
X109483394Y-75633483D01*
X109552806Y-75746710D01*
X109578830Y-75924981D01*
X109579834Y-75982453D01*
X109588163Y-76131402D01*
X109616927Y-76217655D01*
X109653917Y-76252809D01*
X109696074Y-76287325D01*
X109686281Y-76327269D01*
X109617754Y-76395447D01*
X109609223Y-76403079D01*
X109477013Y-76486296D01*
X109350060Y-76505719D01*
X109250782Y-76459381D01*
X109190508Y-76430918D01*
X109098978Y-76456313D01*
X109092157Y-76459381D01*
X108912463Y-76506072D01*
X108756639Y-76471555D01*
X108667743Y-76405124D01*
X108587908Y-76312537D01*
X108572676Y-76238723D01*
X108588536Y-76210573D01*
X108996030Y-76210573D01*
X109039208Y-76278841D01*
X109091672Y-76297367D01*
X109144119Y-76260708D01*
X109156500Y-76191533D01*
X109130596Y-76109963D01*
X109072272Y-76083672D01*
X109010610Y-76124625D01*
X109007081Y-76130060D01*
X108996030Y-76210573D01*
X108588536Y-76210573D01*
X108621292Y-76152436D01*
X108660480Y-76105063D01*
X108766344Y-76019695D01*
X108914329Y-75975842D01*
X108956814Y-75970196D01*
X109078748Y-75951319D01*
X109137838Y-75921869D01*
X109155851Y-75868312D01*
X109156500Y-75846032D01*
X109131448Y-75749431D01*
X109064114Y-75719668D01*
X108966231Y-75758382D01*
X108902500Y-75810533D01*
X108795680Y-75886461D01*
X108709905Y-75900330D01*
X108660283Y-75854051D01*
X108656114Y-75779369D01*
X108710861Y-75680895D01*
X108836044Y-75607935D01*
X109019939Y-75565560D01*
X109170824Y-75556801D01*
X109359699Y-75573960D01*
G37*
X109359699Y-75573960D02*
X109483394Y-75633483D01*
X109552806Y-75746710D01*
X109578830Y-75924981D01*
X109579834Y-75982453D01*
X109588163Y-76131402D01*
X109616927Y-76217655D01*
X109653917Y-76252809D01*
X109696074Y-76287325D01*
X109686281Y-76327269D01*
X109617754Y-76395447D01*
X109609223Y-76403079D01*
X109477013Y-76486296D01*
X109350060Y-76505719D01*
X109250782Y-76459381D01*
X109190508Y-76430918D01*
X109098978Y-76456313D01*
X109092157Y-76459381D01*
X108912463Y-76506072D01*
X108756639Y-76471555D01*
X108667743Y-76405124D01*
X108587908Y-76312537D01*
X108572676Y-76238723D01*
X108588536Y-76210573D01*
X108996030Y-76210573D01*
X109039208Y-76278841D01*
X109091672Y-76297367D01*
X109144119Y-76260708D01*
X109156500Y-76191533D01*
X109130596Y-76109963D01*
X109072272Y-76083672D01*
X109010610Y-76124625D01*
X109007081Y-76130060D01*
X108996030Y-76210573D01*
X108588536Y-76210573D01*
X108621292Y-76152436D01*
X108660480Y-76105063D01*
X108766344Y-76019695D01*
X108914329Y-75975842D01*
X108956814Y-75970196D01*
X109078748Y-75951319D01*
X109137838Y-75921869D01*
X109155851Y-75868312D01*
X109156500Y-75846032D01*
X109131448Y-75749431D01*
X109064114Y-75719668D01*
X108966231Y-75758382D01*
X108902500Y-75810533D01*
X108795680Y-75886461D01*
X108709905Y-75900330D01*
X108660283Y-75854051D01*
X108656114Y-75779369D01*
X108710861Y-75680895D01*
X108836044Y-75607935D01*
X109019939Y-75565560D01*
X109170824Y-75556801D01*
X109359699Y-75573960D01*
G36*
X108349374Y-75203172D02*
G01*
X108444535Y-75219079D01*
X108454538Y-75222396D01*
X108511881Y-75281673D01*
X108512682Y-75371344D01*
X108468584Y-75444382D01*
X108437938Y-75519782D01*
X108420971Y-75654030D01*
X108416836Y-75822561D01*
X108424689Y-76000810D01*
X108443684Y-76164212D01*
X108472975Y-76288203D01*
X108499362Y-76338627D01*
X108546176Y-76400454D01*
X108528837Y-76437806D01*
X108485462Y-76463331D01*
X108386557Y-76492696D01*
X108248653Y-76506684D01*
X108101570Y-76505667D01*
X107975127Y-76490015D01*
X107899144Y-76460097D01*
X107895184Y-76455996D01*
X107877628Y-76385292D01*
X107911167Y-76320905D01*
X107950283Y-76235392D01*
X107969383Y-76131003D01*
X107967916Y-76035178D01*
X107945328Y-75975360D01*
X107918250Y-75969039D01*
X107873271Y-76013976D01*
X107809194Y-76113513D01*
X107749646Y-76226567D01*
X107683109Y-76351436D01*
X107624645Y-76438272D01*
X107590501Y-76466700D01*
X107551883Y-76431424D01*
X107490554Y-76338442D01*
X107419061Y-76207027D01*
X107411352Y-76191533D01*
X107340930Y-76057342D01*
X107281421Y-75959384D01*
X107244602Y-75916840D01*
X107242414Y-75916367D01*
X107215184Y-75952476D01*
X107205791Y-76040735D01*
X107212005Y-76151039D01*
X107231592Y-76253285D01*
X107262321Y-76317367D01*
X107272667Y-76324391D01*
X107329966Y-76378364D01*
X107319690Y-76445962D01*
X107269204Y-76483337D01*
X107156389Y-76507459D01*
X107027952Y-76508983D01*
X106914995Y-76490593D01*
X106848619Y-76454974D01*
X106843893Y-76446621D01*
X106851612Y-76370190D01*
X106887555Y-76316597D01*
X106925344Y-76234374D01*
X106949500Y-76093646D01*
X106960071Y-75919461D01*
X106957105Y-75736869D01*
X106940649Y-75570917D01*
X106910750Y-75446655D01*
X106885824Y-75401911D01*
X106840341Y-75315793D01*
X106871279Y-75250814D01*
X106971912Y-75212154D01*
X107135512Y-75204994D01*
X107141106Y-75205307D01*
X107255515Y-75214872D01*
X107331492Y-75238196D01*
X107392312Y-75292046D01*
X107461249Y-75393187D01*
X107507588Y-75469301D01*
X107589438Y-75597124D01*
X107659193Y-75692411D01*
X107702003Y-75734910D01*
X107702499Y-75735088D01*
X107743714Y-75708920D01*
X107798762Y-75626198D01*
X107825062Y-75573128D01*
X107918402Y-75388740D01*
X108006406Y-75273422D01*
X108103223Y-75213851D01*
X108223001Y-75196702D01*
X108224777Y-75196700D01*
X108349374Y-75203172D01*
G37*
X108349374Y-75203172D02*
X108444535Y-75219079D01*
X108454538Y-75222396D01*
X108511881Y-75281673D01*
X108512682Y-75371344D01*
X108468584Y-75444382D01*
X108437938Y-75519782D01*
X108420971Y-75654030D01*
X108416836Y-75822561D01*
X108424689Y-76000810D01*
X108443684Y-76164212D01*
X108472975Y-76288203D01*
X108499362Y-76338627D01*
X108546176Y-76400454D01*
X108528837Y-76437806D01*
X108485462Y-76463331D01*
X108386557Y-76492696D01*
X108248653Y-76506684D01*
X108101570Y-76505667D01*
X107975127Y-76490015D01*
X107899144Y-76460097D01*
X107895184Y-76455996D01*
X107877628Y-76385292D01*
X107911167Y-76320905D01*
X107950283Y-76235392D01*
X107969383Y-76131003D01*
X107967916Y-76035178D01*
X107945328Y-75975360D01*
X107918250Y-75969039D01*
X107873271Y-76013976D01*
X107809194Y-76113513D01*
X107749646Y-76226567D01*
X107683109Y-76351436D01*
X107624645Y-76438272D01*
X107590501Y-76466700D01*
X107551883Y-76431424D01*
X107490554Y-76338442D01*
X107419061Y-76207027D01*
X107411352Y-76191533D01*
X107340930Y-76057342D01*
X107281421Y-75959384D01*
X107244602Y-75916840D01*
X107242414Y-75916367D01*
X107215184Y-75952476D01*
X107205791Y-76040735D01*
X107212005Y-76151039D01*
X107231592Y-76253285D01*
X107262321Y-76317367D01*
X107272667Y-76324391D01*
X107329966Y-76378364D01*
X107319690Y-76445962D01*
X107269204Y-76483337D01*
X107156389Y-76507459D01*
X107027952Y-76508983D01*
X106914995Y-76490593D01*
X106848619Y-76454974D01*
X106843893Y-76446621D01*
X106851612Y-76370190D01*
X106887555Y-76316597D01*
X106925344Y-76234374D01*
X106949500Y-76093646D01*
X106960071Y-75919461D01*
X106957105Y-75736869D01*
X106940649Y-75570917D01*
X106910750Y-75446655D01*
X106885824Y-75401911D01*
X106840341Y-75315793D01*
X106871279Y-75250814D01*
X106971912Y-75212154D01*
X107135512Y-75204994D01*
X107141106Y-75205307D01*
X107255515Y-75214872D01*
X107331492Y-75238196D01*
X107392312Y-75292046D01*
X107461249Y-75393187D01*
X107507588Y-75469301D01*
X107589438Y-75597124D01*
X107659193Y-75692411D01*
X107702003Y-75734910D01*
X107702499Y-75735088D01*
X107743714Y-75708920D01*
X107798762Y-75626198D01*
X107825062Y-75573128D01*
X107918402Y-75388740D01*
X108006406Y-75273422D01*
X108103223Y-75213851D01*
X108223001Y-75196702D01*
X108224777Y-75196700D01*
X108349374Y-75203172D01*
G36*
X119903499Y-75554006D02*
G01*
X119953877Y-75606100D01*
X119925737Y-75685910D01*
X119870465Y-75744390D01*
X119780909Y-75856615D01*
X119688509Y-76029438D01*
X119631403Y-76167776D01*
X119510603Y-76430424D01*
X119370685Y-76624610D01*
X119216727Y-76746161D01*
X119053808Y-76790905D01*
X118906518Y-76763211D01*
X118811647Y-76696062D01*
X118767964Y-76639391D01*
X118746457Y-76561781D01*
X118787125Y-76489058D01*
X118807530Y-76467670D01*
X118897878Y-76395810D01*
X118967202Y-76398377D01*
X119038206Y-76477301D01*
X119045226Y-76487867D01*
X119115778Y-76571799D01*
X119167572Y-76588894D01*
X119189386Y-76535942D01*
X119189500Y-76529143D01*
X119169323Y-76452248D01*
X119116454Y-76325613D01*
X119042386Y-76171722D01*
X118958610Y-76013056D01*
X118876621Y-75872099D01*
X118807911Y-75771335D01*
X118793374Y-75754205D01*
X118733844Y-75683637D01*
X118730590Y-75642268D01*
X118781866Y-75597632D01*
X118784841Y-75595455D01*
X118878530Y-75560184D01*
X119019411Y-75540450D01*
X119171864Y-75537658D01*
X119300267Y-75553211D01*
X119352780Y-75573063D01*
X119390027Y-75640296D01*
X119384332Y-75691052D01*
X119384041Y-75778979D01*
X119422890Y-75858868D01*
X119481759Y-75902856D01*
X119525547Y-75896819D01*
X119559073Y-75827880D01*
X119552139Y-75725930D01*
X119548088Y-75620318D01*
X119594408Y-75561193D01*
X119704203Y-75537458D01*
X119777163Y-75535367D01*
X119903499Y-75554006D01*
G37*
X119903499Y-75554006D02*
X119953877Y-75606100D01*
X119925737Y-75685910D01*
X119870465Y-75744390D01*
X119780909Y-75856615D01*
X119688509Y-76029438D01*
X119631403Y-76167776D01*
X119510603Y-76430424D01*
X119370685Y-76624610D01*
X119216727Y-76746161D01*
X119053808Y-76790905D01*
X118906518Y-76763211D01*
X118811647Y-76696062D01*
X118767964Y-76639391D01*
X118746457Y-76561781D01*
X118787125Y-76489058D01*
X118807530Y-76467670D01*
X118897878Y-76395810D01*
X118967202Y-76398377D01*
X119038206Y-76477301D01*
X119045226Y-76487867D01*
X119115778Y-76571799D01*
X119167572Y-76588894D01*
X119189386Y-76535942D01*
X119189500Y-76529143D01*
X119169323Y-76452248D01*
X119116454Y-76325613D01*
X119042386Y-76171722D01*
X118958610Y-76013056D01*
X118876621Y-75872099D01*
X118807911Y-75771335D01*
X118793374Y-75754205D01*
X118733844Y-75683637D01*
X118730590Y-75642268D01*
X118781866Y-75597632D01*
X118784841Y-75595455D01*
X118878530Y-75560184D01*
X119019411Y-75540450D01*
X119171864Y-75537658D01*
X119300267Y-75553211D01*
X119352780Y-75573063D01*
X119390027Y-75640296D01*
X119384332Y-75691052D01*
X119384041Y-75778979D01*
X119422890Y-75858868D01*
X119481759Y-75902856D01*
X119525547Y-75896819D01*
X119559073Y-75827880D01*
X119552139Y-75725930D01*
X119548088Y-75620318D01*
X119594408Y-75561193D01*
X119704203Y-75537458D01*
X119777163Y-75535367D01*
X119903499Y-75554006D01*
D14*
G04 #@! TO.C,U1*
X141140000Y-100210000D02*
X130640000Y-100210000D01*
X141140000Y-110610000D02*
X141140000Y-100210000D01*
X130640000Y-110610000D02*
X141140000Y-110610000D01*
X130640000Y-100210000D02*
X130640000Y-110610000D01*
X138140000Y-100270000D02*
X136890000Y-100270000D01*
X138140000Y-110550000D02*
X138140000Y-100270000D01*
X133640000Y-110550000D02*
X138140000Y-110550000D01*
X133640000Y-100270000D02*
X133640000Y-110550000D01*
X134890000Y-100270000D02*
X133640000Y-100270000D01*
X136890000Y-100270000D02*
G75*
G02*
X134890000Y-100270000I-1000000J0D01*
G01*
G04 #@! TO.C,U2*
X141140000Y-74810000D02*
X130640000Y-74810000D01*
X141140000Y-85210000D02*
X141140000Y-74810000D01*
X130640000Y-85210000D02*
X141140000Y-85210000D01*
X130640000Y-74810000D02*
X130640000Y-85210000D01*
X138140000Y-74870000D02*
X136890000Y-74870000D01*
X138140000Y-85150000D02*
X138140000Y-74870000D01*
X133640000Y-85150000D02*
X138140000Y-85150000D01*
X133640000Y-74870000D02*
X133640000Y-85150000D01*
X134890000Y-74870000D02*
X133640000Y-74870000D01*
X136890000Y-74870000D02*
G75*
G02*
X134890000Y-74870000I-1000000J0D01*
G01*
G04 #@! TO.C,RV5*
X182680000Y-111220000D02*
X182680000Y-117460000D01*
X172680000Y-111220000D02*
X172680000Y-117460000D01*
X172680000Y-117460000D02*
X182680000Y-117460000D01*
X172680000Y-111220000D02*
X182680000Y-111220000D01*
X172680000Y-110720000D02*
X172680000Y-117960000D01*
X167680000Y-110720000D02*
X167680000Y-117960000D01*
X167680000Y-117960000D02*
X172680000Y-117960000D01*
X167680000Y-110720000D02*
X172680000Y-110720000D01*
X167680000Y-109470000D02*
X167680000Y-119210000D01*
X160390000Y-109470000D02*
X160390000Y-119210000D01*
X160390000Y-119210000D02*
X167680000Y-119210000D01*
X160390000Y-109470000D02*
X167680000Y-109470000D01*
G04 #@! TO.C,RV4*
X182680000Y-93440000D02*
X182680000Y-99680000D01*
X172680000Y-93440000D02*
X172680000Y-99680000D01*
X172680000Y-99680000D02*
X182680000Y-99680000D01*
X172680000Y-93440000D02*
X182680000Y-93440000D01*
X172680000Y-92940000D02*
X172680000Y-100180000D01*
X167680000Y-92940000D02*
X167680000Y-100180000D01*
X167680000Y-100180000D02*
X172680000Y-100180000D01*
X167680000Y-92940000D02*
X172680000Y-92940000D01*
X167680000Y-91690000D02*
X167680000Y-101430000D01*
X160390000Y-91690000D02*
X160390000Y-101430000D01*
X160390000Y-101430000D02*
X167680000Y-101430000D01*
X160390000Y-91690000D02*
X167680000Y-91690000D01*
G04 #@! TO.C,RV3*
X182680000Y-75660000D02*
X182680000Y-81900000D01*
X172680000Y-75660000D02*
X172680000Y-81900000D01*
X172680000Y-81900000D02*
X182680000Y-81900000D01*
X172680000Y-75660000D02*
X182680000Y-75660000D01*
X172680000Y-75160000D02*
X172680000Y-82400000D01*
X167680000Y-75160000D02*
X167680000Y-82400000D01*
X167680000Y-82400000D02*
X172680000Y-82400000D01*
X167680000Y-75160000D02*
X172680000Y-75160000D01*
X167680000Y-73910000D02*
X167680000Y-83650000D01*
X160390000Y-73910000D02*
X160390000Y-83650000D01*
X160390000Y-83650000D02*
X167680000Y-83650000D01*
X160390000Y-73910000D02*
X167680000Y-73910000D01*
G04 #@! TO.C,RV2*
X182680000Y-57880000D02*
X182680000Y-64120000D01*
X172680000Y-57880000D02*
X172680000Y-64120000D01*
X172680000Y-64120000D02*
X182680000Y-64120000D01*
X172680000Y-57880000D02*
X182680000Y-57880000D01*
X172680000Y-57380000D02*
X172680000Y-64620000D01*
X167680000Y-57380000D02*
X167680000Y-64620000D01*
X167680000Y-64620000D02*
X172680000Y-64620000D01*
X167680000Y-57380000D02*
X172680000Y-57380000D01*
X167680000Y-56130000D02*
X167680000Y-65870000D01*
X160390000Y-56130000D02*
X160390000Y-65870000D01*
X160390000Y-65870000D02*
X167680000Y-65870000D01*
X160390000Y-56130000D02*
X167680000Y-56130000D01*
G04 #@! TO.C,RV1*
X182680000Y-129000000D02*
X182680000Y-135240000D01*
X172680000Y-129000000D02*
X172680000Y-135240000D01*
X172680000Y-135240000D02*
X182680000Y-135240000D01*
X172680000Y-129000000D02*
X182680000Y-129000000D01*
X172680000Y-128500000D02*
X172680000Y-135740000D01*
X167680000Y-128500000D02*
X167680000Y-135740000D01*
X167680000Y-135740000D02*
X172680000Y-135740000D01*
X167680000Y-128500000D02*
X172680000Y-128500000D01*
X167680000Y-127250000D02*
X167680000Y-136990000D01*
X160390000Y-127250000D02*
X160390000Y-136990000D01*
X160390000Y-136990000D02*
X167680000Y-136990000D01*
X160390000Y-127250000D02*
X167680000Y-127250000D01*
G04 #@! TO.C,R15*
X109220000Y-117880000D02*
X109220000Y-118650000D01*
X109220000Y-125960000D02*
X109220000Y-125190000D01*
X107850000Y-118650000D02*
X107850000Y-125190000D01*
X110590000Y-118650000D02*
X107850000Y-118650000D01*
X110590000Y-125190000D02*
X110590000Y-118650000D01*
X107850000Y-125190000D02*
X110590000Y-125190000D01*
G04 #@! TO.C,R14*
X157480000Y-115340000D02*
X157480000Y-116110000D01*
X157480000Y-123420000D02*
X157480000Y-122650000D01*
X156110000Y-116110000D02*
X156110000Y-122650000D01*
X158850000Y-116110000D02*
X156110000Y-116110000D01*
X158850000Y-122650000D02*
X158850000Y-116110000D01*
X156110000Y-122650000D02*
X158850000Y-122650000D01*
G04 #@! TO.C,R13*
X109220000Y-82320000D02*
X109220000Y-83090000D01*
X109220000Y-90400000D02*
X109220000Y-89630000D01*
X107850000Y-83090000D02*
X107850000Y-89630000D01*
X110590000Y-83090000D02*
X107850000Y-83090000D01*
X110590000Y-89630000D02*
X110590000Y-83090000D01*
X107850000Y-89630000D02*
X110590000Y-89630000D01*
G04 #@! TO.C,R12*
X157480000Y-97560000D02*
X157480000Y-98330000D01*
X157480000Y-105640000D02*
X157480000Y-104870000D01*
X156110000Y-98330000D02*
X156110000Y-104870000D01*
X158850000Y-98330000D02*
X156110000Y-98330000D01*
X158850000Y-104870000D02*
X158850000Y-98330000D01*
X156110000Y-104870000D02*
X158850000Y-104870000D01*
G04 #@! TO.C,R11*
X151995000Y-109220000D02*
X151225000Y-109220000D01*
X143915000Y-109220000D02*
X144685000Y-109220000D01*
X151225000Y-107850000D02*
X144685000Y-107850000D01*
X151225000Y-110590000D02*
X151225000Y-107850000D01*
X144685000Y-110590000D02*
X151225000Y-110590000D01*
X144685000Y-107850000D02*
X144685000Y-110590000D01*
G04 #@! TO.C,R10*
X157480000Y-79780000D02*
X157480000Y-80550000D01*
X157480000Y-87860000D02*
X157480000Y-87090000D01*
X156110000Y-80550000D02*
X156110000Y-87090000D01*
X158850000Y-80550000D02*
X156110000Y-80550000D01*
X158850000Y-87090000D02*
X158850000Y-80550000D01*
X156110000Y-87090000D02*
X158850000Y-87090000D01*
G04 #@! TO.C,R9*
X147320000Y-122960000D02*
X147320000Y-123730000D01*
X147320000Y-131040000D02*
X147320000Y-130270000D01*
X145950000Y-123730000D02*
X145950000Y-130270000D01*
X148690000Y-123730000D02*
X145950000Y-123730000D01*
X148690000Y-130270000D02*
X148690000Y-123730000D01*
X145950000Y-130270000D02*
X148690000Y-130270000D01*
G04 #@! TO.C,R8*
X151995000Y-84455000D02*
X151225000Y-84455000D01*
X143915000Y-84455000D02*
X144685000Y-84455000D01*
X151225000Y-83085000D02*
X144685000Y-83085000D01*
X151225000Y-85825000D02*
X151225000Y-83085000D01*
X144685000Y-85825000D02*
X151225000Y-85825000D01*
X144685000Y-83085000D02*
X144685000Y-85825000D01*
G04 #@! TO.C,R7*
X119785000Y-107315000D02*
X120555000Y-107315000D01*
X127865000Y-107315000D02*
X127095000Y-107315000D01*
X120555000Y-108685000D02*
X127095000Y-108685000D01*
X120555000Y-105945000D02*
X120555000Y-108685000D01*
X127095000Y-105945000D02*
X120555000Y-105945000D01*
X127095000Y-108685000D02*
X127095000Y-105945000D01*
G04 #@! TO.C,R6*
X157480000Y-62000000D02*
X157480000Y-62770000D01*
X157480000Y-70080000D02*
X157480000Y-69310000D01*
X156110000Y-62770000D02*
X156110000Y-69310000D01*
X158850000Y-62770000D02*
X156110000Y-62770000D01*
X158850000Y-69310000D02*
X158850000Y-62770000D01*
X156110000Y-69310000D02*
X158850000Y-69310000D01*
G04 #@! TO.C,R5*
X119785000Y-104140000D02*
X120555000Y-104140000D01*
X127865000Y-104140000D02*
X127095000Y-104140000D01*
X120555000Y-105510000D02*
X127095000Y-105510000D01*
X120555000Y-102770000D02*
X120555000Y-105510000D01*
X127095000Y-102770000D02*
X120555000Y-102770000D01*
X127095000Y-105510000D02*
X127095000Y-102770000D01*
G04 #@! TO.C,R4*
X157480000Y-138660000D02*
X157480000Y-137890000D01*
X157480000Y-130580000D02*
X157480000Y-131350000D01*
X158850000Y-137890000D02*
X158850000Y-131350000D01*
X156110000Y-137890000D02*
X158850000Y-137890000D01*
X156110000Y-131350000D02*
X156110000Y-137890000D01*
X158850000Y-131350000D02*
X156110000Y-131350000D01*
G04 #@! TO.C,R3*
X134620000Y-122960000D02*
X134620000Y-123730000D01*
X134620000Y-131040000D02*
X134620000Y-130270000D01*
X133250000Y-123730000D02*
X133250000Y-130270000D01*
X135990000Y-123730000D02*
X133250000Y-123730000D01*
X135990000Y-130270000D02*
X135990000Y-123730000D01*
X133250000Y-130270000D02*
X135990000Y-130270000D01*
G04 #@! TO.C,R2*
X151995000Y-78105000D02*
X151225000Y-78105000D01*
X143915000Y-78105000D02*
X144685000Y-78105000D01*
X151225000Y-76735000D02*
X144685000Y-76735000D01*
X151225000Y-79475000D02*
X151225000Y-76735000D01*
X144685000Y-79475000D02*
X151225000Y-79475000D01*
X144685000Y-76735000D02*
X144685000Y-79475000D01*
G04 #@! TO.C,R1*
X127865000Y-100965000D02*
X127095000Y-100965000D01*
X119785000Y-100965000D02*
X120555000Y-100965000D01*
X127095000Y-99595000D02*
X120555000Y-99595000D01*
X127095000Y-102335000D02*
X127095000Y-99595000D01*
X120555000Y-102335000D02*
X127095000Y-102335000D01*
X120555000Y-99595000D02*
X120555000Y-102335000D01*
G04 #@! TO.C,J8*
X115510000Y-133290000D02*
X116840000Y-133290000D01*
X115510000Y-134620000D02*
X115510000Y-133290000D01*
X115510000Y-135890000D02*
X118170000Y-135890000D01*
X118170000Y-135890000D02*
X118170000Y-138490000D01*
X115510000Y-135890000D02*
X115510000Y-138490000D01*
X115510000Y-138490000D02*
X118170000Y-138490000D01*
G04 #@! TO.C,J7*
X116440000Y-108720000D02*
X115440000Y-109220000D01*
X116440000Y-109720000D02*
X116440000Y-108720000D01*
X115440000Y-109220000D02*
X116440000Y-109720000D01*
X113740000Y-102090000D02*
X115050000Y-102090000D01*
X113740000Y-102090000D02*
X113740000Y-102090000D01*
X113740000Y-95150000D02*
X113740000Y-102090000D01*
X107240000Y-95150000D02*
X113740000Y-95150000D01*
X107240000Y-113130000D02*
X107240000Y-95150000D01*
X113740000Y-113130000D02*
X107240000Y-113130000D01*
X113740000Y-106190000D02*
X113740000Y-113130000D01*
X115050000Y-106190000D02*
X113740000Y-106190000D01*
X115050000Y-93850000D02*
X115050000Y-114430000D01*
X105930000Y-93850000D02*
X115050000Y-93850000D01*
X105930000Y-114430000D02*
X105930000Y-93850000D01*
X115050000Y-114430000D02*
X105930000Y-114430000D01*
G04 #@! TO.C,J6*
X106370000Y-55670000D02*
X106370000Y-56920000D01*
X107620000Y-55670000D02*
X106370000Y-55670000D01*
X113520000Y-61170000D02*
X110470000Y-61170000D01*
X113520000Y-58220000D02*
X113520000Y-61170000D01*
X114270000Y-58220000D02*
X113520000Y-58220000D01*
X107420000Y-61170000D02*
X110470000Y-61170000D01*
X107420000Y-58220000D02*
X107420000Y-61170000D01*
X106670000Y-58220000D02*
X107420000Y-58220000D01*
X114270000Y-55970000D02*
X112470000Y-55970000D01*
X114270000Y-56720000D02*
X114270000Y-55970000D01*
X112470000Y-56720000D02*
X114270000Y-56720000D01*
X112470000Y-55970000D02*
X112470000Y-56720000D01*
X108470000Y-55970000D02*
X106670000Y-55970000D01*
X108470000Y-56720000D02*
X108470000Y-55970000D01*
X106670000Y-56720000D02*
X108470000Y-56720000D01*
X106670000Y-55970000D02*
X106670000Y-56720000D01*
X110970000Y-55970000D02*
X109970000Y-55970000D01*
X110970000Y-56720000D02*
X110970000Y-55970000D01*
X109970000Y-56720000D02*
X110970000Y-56720000D01*
X109970000Y-55970000D02*
X109970000Y-56720000D01*
X114280000Y-55960000D02*
X106660000Y-55960000D01*
X114280000Y-61930000D02*
X114280000Y-55960000D01*
X106660000Y-61930000D02*
X114280000Y-61930000D01*
X106660000Y-55960000D02*
X106660000Y-61930000D01*
G04 #@! TO.C,J5*
X119070000Y-55670000D02*
X119070000Y-56920000D01*
X120320000Y-55670000D02*
X119070000Y-55670000D01*
X126220000Y-61170000D02*
X123170000Y-61170000D01*
X126220000Y-58220000D02*
X126220000Y-61170000D01*
X126970000Y-58220000D02*
X126220000Y-58220000D01*
X120120000Y-61170000D02*
X123170000Y-61170000D01*
X120120000Y-58220000D02*
X120120000Y-61170000D01*
X119370000Y-58220000D02*
X120120000Y-58220000D01*
X126970000Y-55970000D02*
X125170000Y-55970000D01*
X126970000Y-56720000D02*
X126970000Y-55970000D01*
X125170000Y-56720000D02*
X126970000Y-56720000D01*
X125170000Y-55970000D02*
X125170000Y-56720000D01*
X121170000Y-55970000D02*
X119370000Y-55970000D01*
X121170000Y-56720000D02*
X121170000Y-55970000D01*
X119370000Y-56720000D02*
X121170000Y-56720000D01*
X119370000Y-55970000D02*
X119370000Y-56720000D01*
X123670000Y-55970000D02*
X122670000Y-55970000D01*
X123670000Y-56720000D02*
X123670000Y-55970000D01*
X122670000Y-56720000D02*
X123670000Y-56720000D01*
X122670000Y-55970000D02*
X122670000Y-56720000D01*
X126980000Y-55960000D02*
X119360000Y-55960000D01*
X126980000Y-61930000D02*
X126980000Y-55960000D01*
X119360000Y-61930000D02*
X126980000Y-61930000D01*
X119360000Y-55960000D02*
X119360000Y-61930000D01*
G04 #@! TO.C,J4*
X150170000Y-139910000D02*
X150170000Y-138660000D01*
X148920000Y-139910000D02*
X150170000Y-139910000D01*
X143020000Y-134410000D02*
X146070000Y-134410000D01*
X143020000Y-137360000D02*
X143020000Y-134410000D01*
X142270000Y-137360000D02*
X143020000Y-137360000D01*
X149120000Y-134410000D02*
X146070000Y-134410000D01*
X149120000Y-137360000D02*
X149120000Y-134410000D01*
X149870000Y-137360000D02*
X149120000Y-137360000D01*
X142270000Y-139610000D02*
X144070000Y-139610000D01*
X142270000Y-138860000D02*
X142270000Y-139610000D01*
X144070000Y-138860000D02*
X142270000Y-138860000D01*
X144070000Y-139610000D02*
X144070000Y-138860000D01*
X148070000Y-139610000D02*
X149870000Y-139610000D01*
X148070000Y-138860000D02*
X148070000Y-139610000D01*
X149870000Y-138860000D02*
X148070000Y-138860000D01*
X149870000Y-139610000D02*
X149870000Y-138860000D01*
X145570000Y-139610000D02*
X146570000Y-139610000D01*
X145570000Y-138860000D02*
X145570000Y-139610000D01*
X146570000Y-138860000D02*
X145570000Y-138860000D01*
X146570000Y-139610000D02*
X146570000Y-138860000D01*
X142260000Y-139620000D02*
X149880000Y-139620000D01*
X142260000Y-133650000D02*
X142260000Y-139620000D01*
X149880000Y-133650000D02*
X142260000Y-133650000D01*
X149880000Y-139620000D02*
X149880000Y-133650000D01*
G04 #@! TO.C,J3*
X131770000Y-55670000D02*
X131770000Y-56920000D01*
X133020000Y-55670000D02*
X131770000Y-55670000D01*
X138920000Y-61170000D02*
X135870000Y-61170000D01*
X138920000Y-58220000D02*
X138920000Y-61170000D01*
X139670000Y-58220000D02*
X138920000Y-58220000D01*
X132820000Y-61170000D02*
X135870000Y-61170000D01*
X132820000Y-58220000D02*
X132820000Y-61170000D01*
X132070000Y-58220000D02*
X132820000Y-58220000D01*
X139670000Y-55970000D02*
X137870000Y-55970000D01*
X139670000Y-56720000D02*
X139670000Y-55970000D01*
X137870000Y-56720000D02*
X139670000Y-56720000D01*
X137870000Y-55970000D02*
X137870000Y-56720000D01*
X133870000Y-55970000D02*
X132070000Y-55970000D01*
X133870000Y-56720000D02*
X133870000Y-55970000D01*
X132070000Y-56720000D02*
X133870000Y-56720000D01*
X132070000Y-55970000D02*
X132070000Y-56720000D01*
X136370000Y-55970000D02*
X135370000Y-55970000D01*
X136370000Y-56720000D02*
X136370000Y-55970000D01*
X135370000Y-56720000D02*
X136370000Y-56720000D01*
X135370000Y-55970000D02*
X135370000Y-56720000D01*
X139680000Y-55960000D02*
X132060000Y-55960000D01*
X139680000Y-61930000D02*
X139680000Y-55960000D01*
X132060000Y-61930000D02*
X139680000Y-61930000D01*
X132060000Y-55960000D02*
X132060000Y-61930000D01*
G04 #@! TO.C,J2*
X137470000Y-139910000D02*
X137470000Y-138660000D01*
X136220000Y-139910000D02*
X137470000Y-139910000D01*
X130320000Y-134410000D02*
X133370000Y-134410000D01*
X130320000Y-137360000D02*
X130320000Y-134410000D01*
X129570000Y-137360000D02*
X130320000Y-137360000D01*
X136420000Y-134410000D02*
X133370000Y-134410000D01*
X136420000Y-137360000D02*
X136420000Y-134410000D01*
X137170000Y-137360000D02*
X136420000Y-137360000D01*
X129570000Y-139610000D02*
X131370000Y-139610000D01*
X129570000Y-138860000D02*
X129570000Y-139610000D01*
X131370000Y-138860000D02*
X129570000Y-138860000D01*
X131370000Y-139610000D02*
X131370000Y-138860000D01*
X135370000Y-139610000D02*
X137170000Y-139610000D01*
X135370000Y-138860000D02*
X135370000Y-139610000D01*
X137170000Y-138860000D02*
X135370000Y-138860000D01*
X137170000Y-139610000D02*
X137170000Y-138860000D01*
X132870000Y-139610000D02*
X133870000Y-139610000D01*
X132870000Y-138860000D02*
X132870000Y-139610000D01*
X133870000Y-138860000D02*
X132870000Y-138860000D01*
X133870000Y-139610000D02*
X133870000Y-138860000D01*
X129560000Y-139620000D02*
X137180000Y-139620000D01*
X129560000Y-133650000D02*
X129560000Y-139620000D01*
X137180000Y-133650000D02*
X129560000Y-133650000D01*
X137180000Y-139620000D02*
X137180000Y-133650000D01*
G04 #@! TO.C,J1*
X144470000Y-55670000D02*
X144470000Y-56920000D01*
X145720000Y-55670000D02*
X144470000Y-55670000D01*
X151620000Y-61170000D02*
X148570000Y-61170000D01*
X151620000Y-58220000D02*
X151620000Y-61170000D01*
X152370000Y-58220000D02*
X151620000Y-58220000D01*
X145520000Y-61170000D02*
X148570000Y-61170000D01*
X145520000Y-58220000D02*
X145520000Y-61170000D01*
X144770000Y-58220000D02*
X145520000Y-58220000D01*
X152370000Y-55970000D02*
X150570000Y-55970000D01*
X152370000Y-56720000D02*
X152370000Y-55970000D01*
X150570000Y-56720000D02*
X152370000Y-56720000D01*
X150570000Y-55970000D02*
X150570000Y-56720000D01*
X146570000Y-55970000D02*
X144770000Y-55970000D01*
X146570000Y-56720000D02*
X146570000Y-55970000D01*
X144770000Y-56720000D02*
X146570000Y-56720000D01*
X144770000Y-55970000D02*
X144770000Y-56720000D01*
X149070000Y-55970000D02*
X148070000Y-55970000D01*
X149070000Y-56720000D02*
X149070000Y-55970000D01*
X148070000Y-56720000D02*
X149070000Y-56720000D01*
X148070000Y-55970000D02*
X148070000Y-56720000D01*
X152380000Y-55960000D02*
X144760000Y-55960000D01*
X152380000Y-61930000D02*
X152380000Y-55960000D01*
X144760000Y-61930000D02*
X152380000Y-61930000D01*
X144760000Y-55960000D02*
X144760000Y-61930000D01*
G04 #@! TO.C,D2*
X112105000Y-119190000D02*
X112105000Y-119346000D01*
X112105000Y-116874000D02*
X112105000Y-117030000D01*
X114706130Y-119189837D02*
G75*
G02*
X112624039Y-119190000I-1041130J1079837D01*
G01*
X114706130Y-117030163D02*
G75*
G03*
X112624039Y-117030000I-1041130J-1079837D01*
G01*
X115337335Y-119188608D02*
G75*
G02*
X112105000Y-119345516I-1672335J1078608D01*
G01*
X115337335Y-117031392D02*
G75*
G03*
X112105000Y-116874484I-1672335J-1078608D01*
G01*
G04 #@! TO.C,D1*
X115225000Y-89090000D02*
X115225000Y-88934000D01*
X115225000Y-91406000D02*
X115225000Y-91250000D01*
X112623870Y-89090163D02*
G75*
G02*
X114705961Y-89090000I1041130J-1079837D01*
G01*
X112623870Y-91249837D02*
G75*
G03*
X114705961Y-91250000I1041130J1079837D01*
G01*
X111992665Y-89091392D02*
G75*
G02*
X115225000Y-88934484I1672335J-1078608D01*
G01*
X111992665Y-91248608D02*
G75*
G03*
X115225000Y-91405516I1672335J1078608D01*
G01*
G04 #@! TO.C,C9*
X134950000Y-88050000D02*
X134950000Y-88115000D01*
X134950000Y-85875000D02*
X134950000Y-85940000D01*
X131710000Y-88050000D02*
X131710000Y-88115000D01*
X131710000Y-85875000D02*
X131710000Y-85940000D01*
X131710000Y-88115000D02*
X134950000Y-88115000D01*
X131710000Y-85875000D02*
X134950000Y-85875000D01*
G04 #@! TO.C,C8*
X134950000Y-113450000D02*
X134950000Y-113515000D01*
X134950000Y-111275000D02*
X134950000Y-111340000D01*
X131710000Y-113450000D02*
X131710000Y-113515000D01*
X131710000Y-111275000D02*
X131710000Y-111340000D01*
X131710000Y-113515000D02*
X134950000Y-113515000D01*
X131710000Y-111275000D02*
X134950000Y-111275000D01*
G04 #@! TO.C,C7*
X119766000Y-118775241D02*
X120396000Y-118775241D01*
X120081000Y-119090241D02*
X120081000Y-118460241D01*
X121518000Y-112349000D02*
X122322000Y-112349000D01*
X121287000Y-112389000D02*
X122553000Y-112389000D01*
X121118000Y-112429000D02*
X122722000Y-112429000D01*
X120980000Y-112469000D02*
X122860000Y-112469000D01*
X120861000Y-112509000D02*
X122979000Y-112509000D01*
X120755000Y-112549000D02*
X123085000Y-112549000D01*
X120658000Y-112589000D02*
X123182000Y-112589000D01*
X120570000Y-112629000D02*
X123270000Y-112629000D01*
X120488000Y-112669000D02*
X123352000Y-112669000D01*
X120411000Y-112709000D02*
X123429000Y-112709000D01*
X120339000Y-112749000D02*
X123501000Y-112749000D01*
X120270000Y-112789000D02*
X123570000Y-112789000D01*
X120206000Y-112829000D02*
X123634000Y-112829000D01*
X120144000Y-112869000D02*
X123696000Y-112869000D01*
X120086000Y-112909000D02*
X123754000Y-112909000D01*
X120030000Y-112949000D02*
X123810000Y-112949000D01*
X119976000Y-112989000D02*
X123864000Y-112989000D01*
X119925000Y-113029000D02*
X123915000Y-113029000D01*
X119876000Y-113069000D02*
X123964000Y-113069000D01*
X119828000Y-113109000D02*
X124012000Y-113109000D01*
X119783000Y-113149000D02*
X124057000Y-113149000D01*
X119738000Y-113189000D02*
X124102000Y-113189000D01*
X119696000Y-113229000D02*
X124144000Y-113229000D01*
X119655000Y-113269000D02*
X124185000Y-113269000D01*
X122960000Y-113309000D02*
X124225000Y-113309000D01*
X119615000Y-113309000D02*
X120880000Y-113309000D01*
X122960000Y-113349000D02*
X124263000Y-113349000D01*
X119577000Y-113349000D02*
X120880000Y-113349000D01*
X122960000Y-113389000D02*
X124300000Y-113389000D01*
X119540000Y-113389000D02*
X120880000Y-113389000D01*
X122960000Y-113429000D02*
X124336000Y-113429000D01*
X119504000Y-113429000D02*
X120880000Y-113429000D01*
X122960000Y-113469000D02*
X124370000Y-113469000D01*
X119470000Y-113469000D02*
X120880000Y-113469000D01*
X122960000Y-113509000D02*
X124404000Y-113509000D01*
X119436000Y-113509000D02*
X120880000Y-113509000D01*
X122960000Y-113549000D02*
X124436000Y-113549000D01*
X119404000Y-113549000D02*
X120880000Y-113549000D01*
X122960000Y-113589000D02*
X124468000Y-113589000D01*
X119372000Y-113589000D02*
X120880000Y-113589000D01*
X122960000Y-113629000D02*
X124498000Y-113629000D01*
X119342000Y-113629000D02*
X120880000Y-113629000D01*
X122960000Y-113669000D02*
X124527000Y-113669000D01*
X119313000Y-113669000D02*
X120880000Y-113669000D01*
X122960000Y-113709000D02*
X124556000Y-113709000D01*
X119284000Y-113709000D02*
X120880000Y-113709000D01*
X122960000Y-113749000D02*
X124584000Y-113749000D01*
X119256000Y-113749000D02*
X120880000Y-113749000D01*
X122960000Y-113789000D02*
X124610000Y-113789000D01*
X119230000Y-113789000D02*
X120880000Y-113789000D01*
X122960000Y-113829000D02*
X124636000Y-113829000D01*
X119204000Y-113829000D02*
X120880000Y-113829000D01*
X122960000Y-113869000D02*
X124662000Y-113869000D01*
X119178000Y-113869000D02*
X120880000Y-113869000D01*
X122960000Y-113909000D02*
X124686000Y-113909000D01*
X119154000Y-113909000D02*
X120880000Y-113909000D01*
X122960000Y-113949000D02*
X124710000Y-113949000D01*
X119130000Y-113949000D02*
X120880000Y-113949000D01*
X122960000Y-113989000D02*
X124732000Y-113989000D01*
X119108000Y-113989000D02*
X120880000Y-113989000D01*
X122960000Y-114029000D02*
X124754000Y-114029000D01*
X119086000Y-114029000D02*
X120880000Y-114029000D01*
X122960000Y-114069000D02*
X124776000Y-114069000D01*
X119064000Y-114069000D02*
X120880000Y-114069000D01*
X122960000Y-114109000D02*
X124796000Y-114109000D01*
X119044000Y-114109000D02*
X120880000Y-114109000D01*
X122960000Y-114149000D02*
X124816000Y-114149000D01*
X119024000Y-114149000D02*
X120880000Y-114149000D01*
X122960000Y-114189000D02*
X124836000Y-114189000D01*
X119004000Y-114189000D02*
X120880000Y-114189000D01*
X122960000Y-114229000D02*
X124854000Y-114229000D01*
X118986000Y-114229000D02*
X120880000Y-114229000D01*
X122960000Y-114269000D02*
X124872000Y-114269000D01*
X118968000Y-114269000D02*
X120880000Y-114269000D01*
X122960000Y-114309000D02*
X124890000Y-114309000D01*
X118950000Y-114309000D02*
X120880000Y-114309000D01*
X122960000Y-114349000D02*
X124906000Y-114349000D01*
X118934000Y-114349000D02*
X120880000Y-114349000D01*
X122960000Y-114389000D02*
X124922000Y-114389000D01*
X118918000Y-114389000D02*
X120880000Y-114389000D01*
X122960000Y-114429000D02*
X124938000Y-114429000D01*
X118902000Y-114429000D02*
X120880000Y-114429000D01*
X122960000Y-114469000D02*
X124953000Y-114469000D01*
X118887000Y-114469000D02*
X120880000Y-114469000D01*
X122960000Y-114509000D02*
X124967000Y-114509000D01*
X118873000Y-114509000D02*
X120880000Y-114509000D01*
X122960000Y-114549000D02*
X124981000Y-114549000D01*
X118859000Y-114549000D02*
X120880000Y-114549000D01*
X122960000Y-114589000D02*
X124994000Y-114589000D01*
X118846000Y-114589000D02*
X120880000Y-114589000D01*
X122960000Y-114629000D02*
X125006000Y-114629000D01*
X118834000Y-114629000D02*
X120880000Y-114629000D01*
X122960000Y-114669000D02*
X125018000Y-114669000D01*
X118822000Y-114669000D02*
X120880000Y-114669000D01*
X122960000Y-114709000D02*
X125030000Y-114709000D01*
X118810000Y-114709000D02*
X120880000Y-114709000D01*
X122960000Y-114749000D02*
X125041000Y-114749000D01*
X118799000Y-114749000D02*
X120880000Y-114749000D01*
X122960000Y-114789000D02*
X125051000Y-114789000D01*
X118789000Y-114789000D02*
X120880000Y-114789000D01*
X122960000Y-114829000D02*
X125061000Y-114829000D01*
X118779000Y-114829000D02*
X120880000Y-114829000D01*
X122960000Y-114869000D02*
X125070000Y-114869000D01*
X118770000Y-114869000D02*
X120880000Y-114869000D01*
X122960000Y-114910000D02*
X125079000Y-114910000D01*
X118761000Y-114910000D02*
X120880000Y-114910000D01*
X122960000Y-114950000D02*
X125087000Y-114950000D01*
X118753000Y-114950000D02*
X120880000Y-114950000D01*
X122960000Y-114990000D02*
X125095000Y-114990000D01*
X118745000Y-114990000D02*
X120880000Y-114990000D01*
X122960000Y-115030000D02*
X125102000Y-115030000D01*
X118738000Y-115030000D02*
X120880000Y-115030000D01*
X122960000Y-115070000D02*
X125109000Y-115070000D01*
X118731000Y-115070000D02*
X120880000Y-115070000D01*
X122960000Y-115110000D02*
X125115000Y-115110000D01*
X118725000Y-115110000D02*
X120880000Y-115110000D01*
X122960000Y-115150000D02*
X125121000Y-115150000D01*
X118719000Y-115150000D02*
X120880000Y-115150000D01*
X122960000Y-115190000D02*
X125126000Y-115190000D01*
X118714000Y-115190000D02*
X120880000Y-115190000D01*
X122960000Y-115230000D02*
X125131000Y-115230000D01*
X118709000Y-115230000D02*
X120880000Y-115230000D01*
X122960000Y-115270000D02*
X125135000Y-115270000D01*
X118705000Y-115270000D02*
X120880000Y-115270000D01*
X122960000Y-115310000D02*
X125138000Y-115310000D01*
X118702000Y-115310000D02*
X120880000Y-115310000D01*
X122960000Y-115350000D02*
X125142000Y-115350000D01*
X118698000Y-115350000D02*
X120880000Y-115350000D01*
X118696000Y-115390000D02*
X125144000Y-115390000D01*
X118693000Y-115430000D02*
X125147000Y-115430000D01*
X118692000Y-115470000D02*
X125148000Y-115470000D01*
X118690000Y-115510000D02*
X125150000Y-115510000D01*
X118690000Y-115550000D02*
X125150000Y-115550000D01*
X118690000Y-115590000D02*
X125150000Y-115590000D01*
X125190000Y-115590000D02*
G75*
G03*
X125190000Y-115590000I-3270000J0D01*
G01*
G04 #@! TO.C,C6*
X119766000Y-95915241D02*
X120396000Y-95915241D01*
X120081000Y-96230241D02*
X120081000Y-95600241D01*
X121518000Y-89489000D02*
X122322000Y-89489000D01*
X121287000Y-89529000D02*
X122553000Y-89529000D01*
X121118000Y-89569000D02*
X122722000Y-89569000D01*
X120980000Y-89609000D02*
X122860000Y-89609000D01*
X120861000Y-89649000D02*
X122979000Y-89649000D01*
X120755000Y-89689000D02*
X123085000Y-89689000D01*
X120658000Y-89729000D02*
X123182000Y-89729000D01*
X120570000Y-89769000D02*
X123270000Y-89769000D01*
X120488000Y-89809000D02*
X123352000Y-89809000D01*
X120411000Y-89849000D02*
X123429000Y-89849000D01*
X120339000Y-89889000D02*
X123501000Y-89889000D01*
X120270000Y-89929000D02*
X123570000Y-89929000D01*
X120206000Y-89969000D02*
X123634000Y-89969000D01*
X120144000Y-90009000D02*
X123696000Y-90009000D01*
X120086000Y-90049000D02*
X123754000Y-90049000D01*
X120030000Y-90089000D02*
X123810000Y-90089000D01*
X119976000Y-90129000D02*
X123864000Y-90129000D01*
X119925000Y-90169000D02*
X123915000Y-90169000D01*
X119876000Y-90209000D02*
X123964000Y-90209000D01*
X119828000Y-90249000D02*
X124012000Y-90249000D01*
X119783000Y-90289000D02*
X124057000Y-90289000D01*
X119738000Y-90329000D02*
X124102000Y-90329000D01*
X119696000Y-90369000D02*
X124144000Y-90369000D01*
X119655000Y-90409000D02*
X124185000Y-90409000D01*
X122960000Y-90449000D02*
X124225000Y-90449000D01*
X119615000Y-90449000D02*
X120880000Y-90449000D01*
X122960000Y-90489000D02*
X124263000Y-90489000D01*
X119577000Y-90489000D02*
X120880000Y-90489000D01*
X122960000Y-90529000D02*
X124300000Y-90529000D01*
X119540000Y-90529000D02*
X120880000Y-90529000D01*
X122960000Y-90569000D02*
X124336000Y-90569000D01*
X119504000Y-90569000D02*
X120880000Y-90569000D01*
X122960000Y-90609000D02*
X124370000Y-90609000D01*
X119470000Y-90609000D02*
X120880000Y-90609000D01*
X122960000Y-90649000D02*
X124404000Y-90649000D01*
X119436000Y-90649000D02*
X120880000Y-90649000D01*
X122960000Y-90689000D02*
X124436000Y-90689000D01*
X119404000Y-90689000D02*
X120880000Y-90689000D01*
X122960000Y-90729000D02*
X124468000Y-90729000D01*
X119372000Y-90729000D02*
X120880000Y-90729000D01*
X122960000Y-90769000D02*
X124498000Y-90769000D01*
X119342000Y-90769000D02*
X120880000Y-90769000D01*
X122960000Y-90809000D02*
X124527000Y-90809000D01*
X119313000Y-90809000D02*
X120880000Y-90809000D01*
X122960000Y-90849000D02*
X124556000Y-90849000D01*
X119284000Y-90849000D02*
X120880000Y-90849000D01*
X122960000Y-90889000D02*
X124584000Y-90889000D01*
X119256000Y-90889000D02*
X120880000Y-90889000D01*
X122960000Y-90929000D02*
X124610000Y-90929000D01*
X119230000Y-90929000D02*
X120880000Y-90929000D01*
X122960000Y-90969000D02*
X124636000Y-90969000D01*
X119204000Y-90969000D02*
X120880000Y-90969000D01*
X122960000Y-91009000D02*
X124662000Y-91009000D01*
X119178000Y-91009000D02*
X120880000Y-91009000D01*
X122960000Y-91049000D02*
X124686000Y-91049000D01*
X119154000Y-91049000D02*
X120880000Y-91049000D01*
X122960000Y-91089000D02*
X124710000Y-91089000D01*
X119130000Y-91089000D02*
X120880000Y-91089000D01*
X122960000Y-91129000D02*
X124732000Y-91129000D01*
X119108000Y-91129000D02*
X120880000Y-91129000D01*
X122960000Y-91169000D02*
X124754000Y-91169000D01*
X119086000Y-91169000D02*
X120880000Y-91169000D01*
X122960000Y-91209000D02*
X124776000Y-91209000D01*
X119064000Y-91209000D02*
X120880000Y-91209000D01*
X122960000Y-91249000D02*
X124796000Y-91249000D01*
X119044000Y-91249000D02*
X120880000Y-91249000D01*
X122960000Y-91289000D02*
X124816000Y-91289000D01*
X119024000Y-91289000D02*
X120880000Y-91289000D01*
X122960000Y-91329000D02*
X124836000Y-91329000D01*
X119004000Y-91329000D02*
X120880000Y-91329000D01*
X122960000Y-91369000D02*
X124854000Y-91369000D01*
X118986000Y-91369000D02*
X120880000Y-91369000D01*
X122960000Y-91409000D02*
X124872000Y-91409000D01*
X118968000Y-91409000D02*
X120880000Y-91409000D01*
X122960000Y-91449000D02*
X124890000Y-91449000D01*
X118950000Y-91449000D02*
X120880000Y-91449000D01*
X122960000Y-91489000D02*
X124906000Y-91489000D01*
X118934000Y-91489000D02*
X120880000Y-91489000D01*
X122960000Y-91529000D02*
X124922000Y-91529000D01*
X118918000Y-91529000D02*
X120880000Y-91529000D01*
X122960000Y-91569000D02*
X124938000Y-91569000D01*
X118902000Y-91569000D02*
X120880000Y-91569000D01*
X122960000Y-91609000D02*
X124953000Y-91609000D01*
X118887000Y-91609000D02*
X120880000Y-91609000D01*
X122960000Y-91649000D02*
X124967000Y-91649000D01*
X118873000Y-91649000D02*
X120880000Y-91649000D01*
X122960000Y-91689000D02*
X124981000Y-91689000D01*
X118859000Y-91689000D02*
X120880000Y-91689000D01*
X122960000Y-91729000D02*
X124994000Y-91729000D01*
X118846000Y-91729000D02*
X120880000Y-91729000D01*
X122960000Y-91769000D02*
X125006000Y-91769000D01*
X118834000Y-91769000D02*
X120880000Y-91769000D01*
X122960000Y-91809000D02*
X125018000Y-91809000D01*
X118822000Y-91809000D02*
X120880000Y-91809000D01*
X122960000Y-91849000D02*
X125030000Y-91849000D01*
X118810000Y-91849000D02*
X120880000Y-91849000D01*
X122960000Y-91889000D02*
X125041000Y-91889000D01*
X118799000Y-91889000D02*
X120880000Y-91889000D01*
X122960000Y-91929000D02*
X125051000Y-91929000D01*
X118789000Y-91929000D02*
X120880000Y-91929000D01*
X122960000Y-91969000D02*
X125061000Y-91969000D01*
X118779000Y-91969000D02*
X120880000Y-91969000D01*
X122960000Y-92009000D02*
X125070000Y-92009000D01*
X118770000Y-92009000D02*
X120880000Y-92009000D01*
X122960000Y-92050000D02*
X125079000Y-92050000D01*
X118761000Y-92050000D02*
X120880000Y-92050000D01*
X122960000Y-92090000D02*
X125087000Y-92090000D01*
X118753000Y-92090000D02*
X120880000Y-92090000D01*
X122960000Y-92130000D02*
X125095000Y-92130000D01*
X118745000Y-92130000D02*
X120880000Y-92130000D01*
X122960000Y-92170000D02*
X125102000Y-92170000D01*
X118738000Y-92170000D02*
X120880000Y-92170000D01*
X122960000Y-92210000D02*
X125109000Y-92210000D01*
X118731000Y-92210000D02*
X120880000Y-92210000D01*
X122960000Y-92250000D02*
X125115000Y-92250000D01*
X118725000Y-92250000D02*
X120880000Y-92250000D01*
X122960000Y-92290000D02*
X125121000Y-92290000D01*
X118719000Y-92290000D02*
X120880000Y-92290000D01*
X122960000Y-92330000D02*
X125126000Y-92330000D01*
X118714000Y-92330000D02*
X120880000Y-92330000D01*
X122960000Y-92370000D02*
X125131000Y-92370000D01*
X118709000Y-92370000D02*
X120880000Y-92370000D01*
X122960000Y-92410000D02*
X125135000Y-92410000D01*
X118705000Y-92410000D02*
X120880000Y-92410000D01*
X122960000Y-92450000D02*
X125138000Y-92450000D01*
X118702000Y-92450000D02*
X120880000Y-92450000D01*
X122960000Y-92490000D02*
X125142000Y-92490000D01*
X118698000Y-92490000D02*
X120880000Y-92490000D01*
X118696000Y-92530000D02*
X125144000Y-92530000D01*
X118693000Y-92570000D02*
X125147000Y-92570000D01*
X118692000Y-92610000D02*
X125148000Y-92610000D01*
X118690000Y-92650000D02*
X125150000Y-92650000D01*
X118690000Y-92690000D02*
X125150000Y-92690000D01*
X118690000Y-92730000D02*
X125150000Y-92730000D01*
X125190000Y-92730000D02*
G75*
G03*
X125190000Y-92730000I-3270000J0D01*
G01*
G04 #@! TO.C,C5*
X140230000Y-73950000D02*
X140230000Y-74195000D01*
X140230000Y-71855000D02*
X140230000Y-72100000D01*
X136590000Y-73950000D02*
X136590000Y-74195000D01*
X136590000Y-71855000D02*
X136590000Y-72100000D01*
X136590000Y-74195000D02*
X140230000Y-74195000D01*
X136590000Y-71855000D02*
X140230000Y-71855000D01*
G04 #@! TO.C,C4*
X140230000Y-99350000D02*
X140230000Y-99595000D01*
X140230000Y-97255000D02*
X140230000Y-97500000D01*
X136590000Y-99350000D02*
X136590000Y-99595000D01*
X136590000Y-97255000D02*
X136590000Y-97500000D01*
X136590000Y-99595000D02*
X140230000Y-99595000D01*
X136590000Y-97255000D02*
X140230000Y-97255000D01*
G04 #@! TO.C,C3*
X141820000Y-107010000D02*
X141755000Y-107010000D01*
X143995000Y-107010000D02*
X143930000Y-107010000D01*
X141820000Y-103770000D02*
X141755000Y-103770000D01*
X143995000Y-103770000D02*
X143930000Y-103770000D01*
X141755000Y-103770000D02*
X141755000Y-107010000D01*
X143995000Y-103770000D02*
X143995000Y-107010000D01*
G04 #@! TO.C,C2*
X142545000Y-80225000D02*
X142545000Y-80160000D01*
X142545000Y-82400000D02*
X142545000Y-82335000D01*
X145785000Y-80225000D02*
X145785000Y-80160000D01*
X145785000Y-82400000D02*
X145785000Y-82335000D01*
X145785000Y-80160000D02*
X142545000Y-80160000D01*
X145785000Y-82400000D02*
X142545000Y-82400000D01*
G04 #@! TO.C,C1*
X129235000Y-98845000D02*
X129235000Y-98910000D01*
X129235000Y-96670000D02*
X129235000Y-96735000D01*
X125995000Y-98845000D02*
X125995000Y-98910000D01*
X125995000Y-96670000D02*
X125995000Y-96735000D01*
X125995000Y-98910000D02*
X129235000Y-98910000D01*
X125995000Y-96670000D02*
X129235000Y-96670000D01*
G04 #@! TO.C,U1*
D15*
X131318095Y-98512380D02*
X131318095Y-99321904D01*
X131365714Y-99417142D01*
X131413333Y-99464761D01*
X131508571Y-99512380D01*
X131699047Y-99512380D01*
X131794285Y-99464761D01*
X131841904Y-99417142D01*
X131889523Y-99321904D01*
X131889523Y-98512380D01*
X132889523Y-99512380D02*
X132318095Y-99512380D01*
X132603809Y-99512380D02*
X132603809Y-98512380D01*
X132508571Y-98655238D01*
X132413333Y-98750476D01*
X132318095Y-98798095D01*
G04 #@! TO.C,U2*
X131318095Y-73112380D02*
X131318095Y-73921904D01*
X131365714Y-74017142D01*
X131413333Y-74064761D01*
X131508571Y-74112380D01*
X131699047Y-74112380D01*
X131794285Y-74064761D01*
X131841904Y-74017142D01*
X131889523Y-73921904D01*
X131889523Y-73112380D01*
X132318095Y-73207619D02*
X132365714Y-73160000D01*
X132460952Y-73112380D01*
X132699047Y-73112380D01*
X132794285Y-73160000D01*
X132841904Y-73207619D01*
X132889523Y-73302857D01*
X132889523Y-73398095D01*
X132841904Y-73540952D01*
X132270476Y-74112380D01*
X132889523Y-74112380D01*
G04 #@! TO.C,RV5*
X161964761Y-108792380D02*
X161631428Y-108316190D01*
X161393333Y-108792380D02*
X161393333Y-107792380D01*
X161774285Y-107792380D01*
X161869523Y-107840000D01*
X161917142Y-107887619D01*
X161964761Y-107982857D01*
X161964761Y-108125714D01*
X161917142Y-108220952D01*
X161869523Y-108268571D01*
X161774285Y-108316190D01*
X161393333Y-108316190D01*
X162250476Y-107792380D02*
X162583809Y-108792380D01*
X162917142Y-107792380D01*
X163726666Y-107792380D02*
X163250476Y-107792380D01*
X163202857Y-108268571D01*
X163250476Y-108220952D01*
X163345714Y-108173333D01*
X163583809Y-108173333D01*
X163679047Y-108220952D01*
X163726666Y-108268571D01*
X163774285Y-108363809D01*
X163774285Y-108601904D01*
X163726666Y-108697142D01*
X163679047Y-108744761D01*
X163583809Y-108792380D01*
X163345714Y-108792380D01*
X163250476Y-108744761D01*
X163202857Y-108697142D01*
G04 #@! TO.C,RV4*
X161964761Y-91012380D02*
X161631428Y-90536190D01*
X161393333Y-91012380D02*
X161393333Y-90012380D01*
X161774285Y-90012380D01*
X161869523Y-90060000D01*
X161917142Y-90107619D01*
X161964761Y-90202857D01*
X161964761Y-90345714D01*
X161917142Y-90440952D01*
X161869523Y-90488571D01*
X161774285Y-90536190D01*
X161393333Y-90536190D01*
X162250476Y-90012380D02*
X162583809Y-91012380D01*
X162917142Y-90012380D01*
X163679047Y-90345714D02*
X163679047Y-91012380D01*
X163440952Y-89964761D02*
X163202857Y-90679047D01*
X163821904Y-90679047D01*
G04 #@! TO.C,RV3*
X161964761Y-73232380D02*
X161631428Y-72756190D01*
X161393333Y-73232380D02*
X161393333Y-72232380D01*
X161774285Y-72232380D01*
X161869523Y-72280000D01*
X161917142Y-72327619D01*
X161964761Y-72422857D01*
X161964761Y-72565714D01*
X161917142Y-72660952D01*
X161869523Y-72708571D01*
X161774285Y-72756190D01*
X161393333Y-72756190D01*
X162250476Y-72232380D02*
X162583809Y-73232380D01*
X162917142Y-72232380D01*
X163155238Y-72232380D02*
X163774285Y-72232380D01*
X163440952Y-72613333D01*
X163583809Y-72613333D01*
X163679047Y-72660952D01*
X163726666Y-72708571D01*
X163774285Y-72803809D01*
X163774285Y-73041904D01*
X163726666Y-73137142D01*
X163679047Y-73184761D01*
X163583809Y-73232380D01*
X163298095Y-73232380D01*
X163202857Y-73184761D01*
X163155238Y-73137142D01*
G04 #@! TO.C,RV2*
X161964761Y-55452380D02*
X161631428Y-54976190D01*
X161393333Y-55452380D02*
X161393333Y-54452380D01*
X161774285Y-54452380D01*
X161869523Y-54500000D01*
X161917142Y-54547619D01*
X161964761Y-54642857D01*
X161964761Y-54785714D01*
X161917142Y-54880952D01*
X161869523Y-54928571D01*
X161774285Y-54976190D01*
X161393333Y-54976190D01*
X162250476Y-54452380D02*
X162583809Y-55452380D01*
X162917142Y-54452380D01*
X163202857Y-54547619D02*
X163250476Y-54500000D01*
X163345714Y-54452380D01*
X163583809Y-54452380D01*
X163679047Y-54500000D01*
X163726666Y-54547619D01*
X163774285Y-54642857D01*
X163774285Y-54738095D01*
X163726666Y-54880952D01*
X163155238Y-55452380D01*
X163774285Y-55452380D01*
G04 #@! TO.C,RV1*
X161964761Y-126817380D02*
X161631428Y-126341190D01*
X161393333Y-126817380D02*
X161393333Y-125817380D01*
X161774285Y-125817380D01*
X161869523Y-125865000D01*
X161917142Y-125912619D01*
X161964761Y-126007857D01*
X161964761Y-126150714D01*
X161917142Y-126245952D01*
X161869523Y-126293571D01*
X161774285Y-126341190D01*
X161393333Y-126341190D01*
X162250476Y-125817380D02*
X162583809Y-126817380D01*
X162917142Y-125817380D01*
X163774285Y-126817380D02*
X163202857Y-126817380D01*
X163488571Y-126817380D02*
X163488571Y-125817380D01*
X163393333Y-125960238D01*
X163298095Y-126055476D01*
X163202857Y-126103095D01*
G04 #@! TO.C,R15*
X107302380Y-122562857D02*
X106826190Y-122896190D01*
X107302380Y-123134285D02*
X106302380Y-123134285D01*
X106302380Y-122753333D01*
X106350000Y-122658095D01*
X106397619Y-122610476D01*
X106492857Y-122562857D01*
X106635714Y-122562857D01*
X106730952Y-122610476D01*
X106778571Y-122658095D01*
X106826190Y-122753333D01*
X106826190Y-123134285D01*
X107302380Y-121610476D02*
X107302380Y-122181904D01*
X107302380Y-121896190D02*
X106302380Y-121896190D01*
X106445238Y-121991428D01*
X106540476Y-122086666D01*
X106588095Y-122181904D01*
X106302380Y-120705714D02*
X106302380Y-121181904D01*
X106778571Y-121229523D01*
X106730952Y-121181904D01*
X106683333Y-121086666D01*
X106683333Y-120848571D01*
X106730952Y-120753333D01*
X106778571Y-120705714D01*
X106873809Y-120658095D01*
X107111904Y-120658095D01*
X107207142Y-120705714D01*
X107254761Y-120753333D01*
X107302380Y-120848571D01*
X107302380Y-121086666D01*
X107254761Y-121181904D01*
X107207142Y-121229523D01*
G04 #@! TO.C,R14*
X155562380Y-120022857D02*
X155086190Y-120356190D01*
X155562380Y-120594285D02*
X154562380Y-120594285D01*
X154562380Y-120213333D01*
X154610000Y-120118095D01*
X154657619Y-120070476D01*
X154752857Y-120022857D01*
X154895714Y-120022857D01*
X154990952Y-120070476D01*
X155038571Y-120118095D01*
X155086190Y-120213333D01*
X155086190Y-120594285D01*
X155562380Y-119070476D02*
X155562380Y-119641904D01*
X155562380Y-119356190D02*
X154562380Y-119356190D01*
X154705238Y-119451428D01*
X154800476Y-119546666D01*
X154848095Y-119641904D01*
X154895714Y-118213333D02*
X155562380Y-118213333D01*
X154514761Y-118451428D02*
X155229047Y-118689523D01*
X155229047Y-118070476D01*
G04 #@! TO.C,R13*
X107302380Y-87002857D02*
X106826190Y-87336190D01*
X107302380Y-87574285D02*
X106302380Y-87574285D01*
X106302380Y-87193333D01*
X106350000Y-87098095D01*
X106397619Y-87050476D01*
X106492857Y-87002857D01*
X106635714Y-87002857D01*
X106730952Y-87050476D01*
X106778571Y-87098095D01*
X106826190Y-87193333D01*
X106826190Y-87574285D01*
X107302380Y-86050476D02*
X107302380Y-86621904D01*
X107302380Y-86336190D02*
X106302380Y-86336190D01*
X106445238Y-86431428D01*
X106540476Y-86526666D01*
X106588095Y-86621904D01*
X106302380Y-85717142D02*
X106302380Y-85098095D01*
X106683333Y-85431428D01*
X106683333Y-85288571D01*
X106730952Y-85193333D01*
X106778571Y-85145714D01*
X106873809Y-85098095D01*
X107111904Y-85098095D01*
X107207142Y-85145714D01*
X107254761Y-85193333D01*
X107302380Y-85288571D01*
X107302380Y-85574285D01*
X107254761Y-85669523D01*
X107207142Y-85717142D01*
G04 #@! TO.C,R12*
X155562380Y-102242857D02*
X155086190Y-102576190D01*
X155562380Y-102814285D02*
X154562380Y-102814285D01*
X154562380Y-102433333D01*
X154610000Y-102338095D01*
X154657619Y-102290476D01*
X154752857Y-102242857D01*
X154895714Y-102242857D01*
X154990952Y-102290476D01*
X155038571Y-102338095D01*
X155086190Y-102433333D01*
X155086190Y-102814285D01*
X155562380Y-101290476D02*
X155562380Y-101861904D01*
X155562380Y-101576190D02*
X154562380Y-101576190D01*
X154705238Y-101671428D01*
X154800476Y-101766666D01*
X154848095Y-101861904D01*
X154657619Y-100909523D02*
X154610000Y-100861904D01*
X154562380Y-100766666D01*
X154562380Y-100528571D01*
X154610000Y-100433333D01*
X154657619Y-100385714D01*
X154752857Y-100338095D01*
X154848095Y-100338095D01*
X154990952Y-100385714D01*
X155562380Y-100957142D01*
X155562380Y-100338095D01*
G04 #@! TO.C,R11*
X147312142Y-107302380D02*
X146978809Y-106826190D01*
X146740714Y-107302380D02*
X146740714Y-106302380D01*
X147121666Y-106302380D01*
X147216904Y-106350000D01*
X147264523Y-106397619D01*
X147312142Y-106492857D01*
X147312142Y-106635714D01*
X147264523Y-106730952D01*
X147216904Y-106778571D01*
X147121666Y-106826190D01*
X146740714Y-106826190D01*
X148264523Y-107302380D02*
X147693095Y-107302380D01*
X147978809Y-107302380D02*
X147978809Y-106302380D01*
X147883571Y-106445238D01*
X147788333Y-106540476D01*
X147693095Y-106588095D01*
X149216904Y-107302380D02*
X148645476Y-107302380D01*
X148931190Y-107302380D02*
X148931190Y-106302380D01*
X148835952Y-106445238D01*
X148740714Y-106540476D01*
X148645476Y-106588095D01*
G04 #@! TO.C,R10*
X155562380Y-84462857D02*
X155086190Y-84796190D01*
X155562380Y-85034285D02*
X154562380Y-85034285D01*
X154562380Y-84653333D01*
X154610000Y-84558095D01*
X154657619Y-84510476D01*
X154752857Y-84462857D01*
X154895714Y-84462857D01*
X154990952Y-84510476D01*
X155038571Y-84558095D01*
X155086190Y-84653333D01*
X155086190Y-85034285D01*
X155562380Y-83510476D02*
X155562380Y-84081904D01*
X155562380Y-83796190D02*
X154562380Y-83796190D01*
X154705238Y-83891428D01*
X154800476Y-83986666D01*
X154848095Y-84081904D01*
X154562380Y-82891428D02*
X154562380Y-82796190D01*
X154610000Y-82700952D01*
X154657619Y-82653333D01*
X154752857Y-82605714D01*
X154943333Y-82558095D01*
X155181428Y-82558095D01*
X155371904Y-82605714D01*
X155467142Y-82653333D01*
X155514761Y-82700952D01*
X155562380Y-82796190D01*
X155562380Y-82891428D01*
X155514761Y-82986666D01*
X155467142Y-83034285D01*
X155371904Y-83081904D01*
X155181428Y-83129523D01*
X154943333Y-83129523D01*
X154752857Y-83081904D01*
X154657619Y-83034285D01*
X154610000Y-82986666D01*
X154562380Y-82891428D01*
G04 #@! TO.C,R9*
X145402380Y-127166666D02*
X144926190Y-127500000D01*
X145402380Y-127738095D02*
X144402380Y-127738095D01*
X144402380Y-127357142D01*
X144450000Y-127261904D01*
X144497619Y-127214285D01*
X144592857Y-127166666D01*
X144735714Y-127166666D01*
X144830952Y-127214285D01*
X144878571Y-127261904D01*
X144926190Y-127357142D01*
X144926190Y-127738095D01*
X145402380Y-126690476D02*
X145402380Y-126500000D01*
X145354761Y-126404761D01*
X145307142Y-126357142D01*
X145164285Y-126261904D01*
X144973809Y-126214285D01*
X144592857Y-126214285D01*
X144497619Y-126261904D01*
X144450000Y-126309523D01*
X144402380Y-126404761D01*
X144402380Y-126595238D01*
X144450000Y-126690476D01*
X144497619Y-126738095D01*
X144592857Y-126785714D01*
X144830952Y-126785714D01*
X144926190Y-126738095D01*
X144973809Y-126690476D01*
X145021428Y-126595238D01*
X145021428Y-126404761D01*
X144973809Y-126309523D01*
X144926190Y-126261904D01*
X144830952Y-126214285D01*
G04 #@! TO.C,R8*
X147788333Y-87447380D02*
X147455000Y-86971190D01*
X147216904Y-87447380D02*
X147216904Y-86447380D01*
X147597857Y-86447380D01*
X147693095Y-86495000D01*
X147740714Y-86542619D01*
X147788333Y-86637857D01*
X147788333Y-86780714D01*
X147740714Y-86875952D01*
X147693095Y-86923571D01*
X147597857Y-86971190D01*
X147216904Y-86971190D01*
X148359761Y-86875952D02*
X148264523Y-86828333D01*
X148216904Y-86780714D01*
X148169285Y-86685476D01*
X148169285Y-86637857D01*
X148216904Y-86542619D01*
X148264523Y-86495000D01*
X148359761Y-86447380D01*
X148550238Y-86447380D01*
X148645476Y-86495000D01*
X148693095Y-86542619D01*
X148740714Y-86637857D01*
X148740714Y-86685476D01*
X148693095Y-86780714D01*
X148645476Y-86828333D01*
X148550238Y-86875952D01*
X148359761Y-86875952D01*
X148264523Y-86923571D01*
X148216904Y-86971190D01*
X148169285Y-87066428D01*
X148169285Y-87256904D01*
X148216904Y-87352142D01*
X148264523Y-87399761D01*
X148359761Y-87447380D01*
X148550238Y-87447380D01*
X148645476Y-87399761D01*
X148693095Y-87352142D01*
X148740714Y-87256904D01*
X148740714Y-87066428D01*
X148693095Y-86971190D01*
X148645476Y-86923571D01*
X148550238Y-86875952D01*
G04 #@! TO.C,R7*
X116673333Y-107767380D02*
X116340000Y-107291190D01*
X116101904Y-107767380D02*
X116101904Y-106767380D01*
X116482857Y-106767380D01*
X116578095Y-106815000D01*
X116625714Y-106862619D01*
X116673333Y-106957857D01*
X116673333Y-107100714D01*
X116625714Y-107195952D01*
X116578095Y-107243571D01*
X116482857Y-107291190D01*
X116101904Y-107291190D01*
X117006666Y-106767380D02*
X117673333Y-106767380D01*
X117244761Y-107767380D01*
G04 #@! TO.C,R6*
X155562380Y-66206666D02*
X155086190Y-66540000D01*
X155562380Y-66778095D02*
X154562380Y-66778095D01*
X154562380Y-66397142D01*
X154610000Y-66301904D01*
X154657619Y-66254285D01*
X154752857Y-66206666D01*
X154895714Y-66206666D01*
X154990952Y-66254285D01*
X155038571Y-66301904D01*
X155086190Y-66397142D01*
X155086190Y-66778095D01*
X154562380Y-65349523D02*
X154562380Y-65540000D01*
X154610000Y-65635238D01*
X154657619Y-65682857D01*
X154800476Y-65778095D01*
X154990952Y-65825714D01*
X155371904Y-65825714D01*
X155467142Y-65778095D01*
X155514761Y-65730476D01*
X155562380Y-65635238D01*
X155562380Y-65444761D01*
X155514761Y-65349523D01*
X155467142Y-65301904D01*
X155371904Y-65254285D01*
X155133809Y-65254285D01*
X155038571Y-65301904D01*
X154990952Y-65349523D01*
X154943333Y-65444761D01*
X154943333Y-65635238D01*
X154990952Y-65730476D01*
X155038571Y-65778095D01*
X155133809Y-65825714D01*
G04 #@! TO.C,R5*
X116673333Y-104592380D02*
X116340000Y-104116190D01*
X116101904Y-104592380D02*
X116101904Y-103592380D01*
X116482857Y-103592380D01*
X116578095Y-103640000D01*
X116625714Y-103687619D01*
X116673333Y-103782857D01*
X116673333Y-103925714D01*
X116625714Y-104020952D01*
X116578095Y-104068571D01*
X116482857Y-104116190D01*
X116101904Y-104116190D01*
X117578095Y-103592380D02*
X117101904Y-103592380D01*
X117054285Y-104068571D01*
X117101904Y-104020952D01*
X117197142Y-103973333D01*
X117435238Y-103973333D01*
X117530476Y-104020952D01*
X117578095Y-104068571D01*
X117625714Y-104163809D01*
X117625714Y-104401904D01*
X117578095Y-104497142D01*
X117530476Y-104544761D01*
X117435238Y-104592380D01*
X117197142Y-104592380D01*
X117101904Y-104544761D01*
X117054285Y-104497142D01*
G04 #@! TO.C,R4*
X155392380Y-134786666D02*
X154916190Y-135120000D01*
X155392380Y-135358095D02*
X154392380Y-135358095D01*
X154392380Y-134977142D01*
X154440000Y-134881904D01*
X154487619Y-134834285D01*
X154582857Y-134786666D01*
X154725714Y-134786666D01*
X154820952Y-134834285D01*
X154868571Y-134881904D01*
X154916190Y-134977142D01*
X154916190Y-135358095D01*
X154725714Y-133929523D02*
X155392380Y-133929523D01*
X154344761Y-134167619D02*
X155059047Y-134405714D01*
X155059047Y-133786666D01*
G04 #@! TO.C,R3*
X132702380Y-127166666D02*
X132226190Y-127500000D01*
X132702380Y-127738095D02*
X131702380Y-127738095D01*
X131702380Y-127357142D01*
X131750000Y-127261904D01*
X131797619Y-127214285D01*
X131892857Y-127166666D01*
X132035714Y-127166666D01*
X132130952Y-127214285D01*
X132178571Y-127261904D01*
X132226190Y-127357142D01*
X132226190Y-127738095D01*
X131702380Y-126833333D02*
X131702380Y-126214285D01*
X132083333Y-126547619D01*
X132083333Y-126404761D01*
X132130952Y-126309523D01*
X132178571Y-126261904D01*
X132273809Y-126214285D01*
X132511904Y-126214285D01*
X132607142Y-126261904D01*
X132654761Y-126309523D01*
X132702380Y-126404761D01*
X132702380Y-126690476D01*
X132654761Y-126785714D01*
X132607142Y-126833333D01*
G04 #@! TO.C,R2*
X147788333Y-76187380D02*
X147455000Y-75711190D01*
X147216904Y-76187380D02*
X147216904Y-75187380D01*
X147597857Y-75187380D01*
X147693095Y-75235000D01*
X147740714Y-75282619D01*
X147788333Y-75377857D01*
X147788333Y-75520714D01*
X147740714Y-75615952D01*
X147693095Y-75663571D01*
X147597857Y-75711190D01*
X147216904Y-75711190D01*
X148169285Y-75282619D02*
X148216904Y-75235000D01*
X148312142Y-75187380D01*
X148550238Y-75187380D01*
X148645476Y-75235000D01*
X148693095Y-75282619D01*
X148740714Y-75377857D01*
X148740714Y-75473095D01*
X148693095Y-75615952D01*
X148121666Y-76187380D01*
X148740714Y-76187380D01*
G04 #@! TO.C,R1*
X116673333Y-101417380D02*
X116340000Y-100941190D01*
X116101904Y-101417380D02*
X116101904Y-100417380D01*
X116482857Y-100417380D01*
X116578095Y-100465000D01*
X116625714Y-100512619D01*
X116673333Y-100607857D01*
X116673333Y-100750714D01*
X116625714Y-100845952D01*
X116578095Y-100893571D01*
X116482857Y-100941190D01*
X116101904Y-100941190D01*
X117625714Y-101417380D02*
X117054285Y-101417380D01*
X117340000Y-101417380D02*
X117340000Y-100417380D01*
X117244761Y-100560238D01*
X117149523Y-100655476D01*
X117054285Y-100703095D01*
G04 #@! TO.C,J8*
X116506666Y-131742380D02*
X116506666Y-132456666D01*
X116459047Y-132599523D01*
X116363809Y-132694761D01*
X116220952Y-132742380D01*
X116125714Y-132742380D01*
X117125714Y-132170952D02*
X117030476Y-132123333D01*
X116982857Y-132075714D01*
X116935238Y-131980476D01*
X116935238Y-131932857D01*
X116982857Y-131837619D01*
X117030476Y-131790000D01*
X117125714Y-131742380D01*
X117316190Y-131742380D01*
X117411428Y-131790000D01*
X117459047Y-131837619D01*
X117506666Y-131932857D01*
X117506666Y-131980476D01*
X117459047Y-132075714D01*
X117411428Y-132123333D01*
X117316190Y-132170952D01*
X117125714Y-132170952D01*
X117030476Y-132218571D01*
X116982857Y-132266190D01*
X116935238Y-132361428D01*
X116935238Y-132551904D01*
X116982857Y-132647142D01*
X117030476Y-132694761D01*
X117125714Y-132742380D01*
X117316190Y-132742380D01*
X117411428Y-132694761D01*
X117459047Y-132647142D01*
X117506666Y-132551904D01*
X117506666Y-132361428D01*
X117459047Y-132266190D01*
X117411428Y-132218571D01*
X117316190Y-132170952D01*
G04 #@! TO.C,J7*
X110156666Y-114772380D02*
X110156666Y-115486666D01*
X110109047Y-115629523D01*
X110013809Y-115724761D01*
X109870952Y-115772380D01*
X109775714Y-115772380D01*
X110537619Y-114772380D02*
X111204285Y-114772380D01*
X110775714Y-115772380D01*
G04 #@! TO.C,J6*
X110136666Y-54322380D02*
X110136666Y-55036666D01*
X110089047Y-55179523D01*
X109993809Y-55274761D01*
X109850952Y-55322380D01*
X109755714Y-55322380D01*
X111041428Y-54322380D02*
X110850952Y-54322380D01*
X110755714Y-54370000D01*
X110708095Y-54417619D01*
X110612857Y-54560476D01*
X110565238Y-54750952D01*
X110565238Y-55131904D01*
X110612857Y-55227142D01*
X110660476Y-55274761D01*
X110755714Y-55322380D01*
X110946190Y-55322380D01*
X111041428Y-55274761D01*
X111089047Y-55227142D01*
X111136666Y-55131904D01*
X111136666Y-54893809D01*
X111089047Y-54798571D01*
X111041428Y-54750952D01*
X110946190Y-54703333D01*
X110755714Y-54703333D01*
X110660476Y-54750952D01*
X110612857Y-54798571D01*
X110565238Y-54893809D01*
G04 #@! TO.C,J5*
X122836666Y-54322380D02*
X122836666Y-55036666D01*
X122789047Y-55179523D01*
X122693809Y-55274761D01*
X122550952Y-55322380D01*
X122455714Y-55322380D01*
X123789047Y-54322380D02*
X123312857Y-54322380D01*
X123265238Y-54798571D01*
X123312857Y-54750952D01*
X123408095Y-54703333D01*
X123646190Y-54703333D01*
X123741428Y-54750952D01*
X123789047Y-54798571D01*
X123836666Y-54893809D01*
X123836666Y-55131904D01*
X123789047Y-55227142D01*
X123741428Y-55274761D01*
X123646190Y-55322380D01*
X123408095Y-55322380D01*
X123312857Y-55274761D01*
X123265238Y-55227142D01*
G04 #@! TO.C,J4*
X142541666Y-131532380D02*
X142541666Y-132246666D01*
X142494047Y-132389523D01*
X142398809Y-132484761D01*
X142255952Y-132532380D01*
X142160714Y-132532380D01*
X143446428Y-131865714D02*
X143446428Y-132532380D01*
X143208333Y-131484761D02*
X142970238Y-132199047D01*
X143589285Y-132199047D01*
G04 #@! TO.C,J3*
X135536666Y-54322380D02*
X135536666Y-55036666D01*
X135489047Y-55179523D01*
X135393809Y-55274761D01*
X135250952Y-55322380D01*
X135155714Y-55322380D01*
X135917619Y-54322380D02*
X136536666Y-54322380D01*
X136203333Y-54703333D01*
X136346190Y-54703333D01*
X136441428Y-54750952D01*
X136489047Y-54798571D01*
X136536666Y-54893809D01*
X136536666Y-55131904D01*
X136489047Y-55227142D01*
X136441428Y-55274761D01*
X136346190Y-55322380D01*
X136060476Y-55322380D01*
X135965238Y-55274761D01*
X135917619Y-55227142D01*
G04 #@! TO.C,J2*
X129841666Y-131532380D02*
X129841666Y-132246666D01*
X129794047Y-132389523D01*
X129698809Y-132484761D01*
X129555952Y-132532380D01*
X129460714Y-132532380D01*
X130270238Y-131627619D02*
X130317857Y-131580000D01*
X130413095Y-131532380D01*
X130651190Y-131532380D01*
X130746428Y-131580000D01*
X130794047Y-131627619D01*
X130841666Y-131722857D01*
X130841666Y-131818095D01*
X130794047Y-131960952D01*
X130222619Y-132532380D01*
X130841666Y-132532380D01*
G04 #@! TO.C,J1*
X148236666Y-54322380D02*
X148236666Y-55036666D01*
X148189047Y-55179523D01*
X148093809Y-55274761D01*
X147950952Y-55322380D01*
X147855714Y-55322380D01*
X149236666Y-55322380D02*
X148665238Y-55322380D01*
X148950952Y-55322380D02*
X148950952Y-54322380D01*
X148855714Y-54465238D01*
X148760476Y-54560476D01*
X148665238Y-54608095D01*
G04 #@! TO.C,D2*
X112926904Y-121737380D02*
X112926904Y-120737380D01*
X113165000Y-120737380D01*
X113307857Y-120785000D01*
X113403095Y-120880238D01*
X113450714Y-120975476D01*
X113498333Y-121165952D01*
X113498333Y-121308809D01*
X113450714Y-121499285D01*
X113403095Y-121594523D01*
X113307857Y-121689761D01*
X113165000Y-121737380D01*
X112926904Y-121737380D01*
X113879285Y-120832619D02*
X113926904Y-120785000D01*
X114022142Y-120737380D01*
X114260238Y-120737380D01*
X114355476Y-120785000D01*
X114403095Y-120832619D01*
X114450714Y-120927857D01*
X114450714Y-121023095D01*
X114403095Y-121165952D01*
X113831666Y-121737380D01*
X114450714Y-121737380D01*
G04 #@! TO.C,D1*
X112926904Y-87447380D02*
X112926904Y-86447380D01*
X113165000Y-86447380D01*
X113307857Y-86495000D01*
X113403095Y-86590238D01*
X113450714Y-86685476D01*
X113498333Y-86875952D01*
X113498333Y-87018809D01*
X113450714Y-87209285D01*
X113403095Y-87304523D01*
X113307857Y-87399761D01*
X113165000Y-87447380D01*
X112926904Y-87447380D01*
X114450714Y-87447380D02*
X113879285Y-87447380D01*
X114165000Y-87447380D02*
X114165000Y-86447380D01*
X114069761Y-86590238D01*
X113974523Y-86685476D01*
X113879285Y-86733095D01*
G04 #@! TO.C,C9*
X133163333Y-89892142D02*
X133115714Y-89939761D01*
X132972857Y-89987380D01*
X132877619Y-89987380D01*
X132734761Y-89939761D01*
X132639523Y-89844523D01*
X132591904Y-89749285D01*
X132544285Y-89558809D01*
X132544285Y-89415952D01*
X132591904Y-89225476D01*
X132639523Y-89130238D01*
X132734761Y-89035000D01*
X132877619Y-88987380D01*
X132972857Y-88987380D01*
X133115714Y-89035000D01*
X133163333Y-89082619D01*
X133639523Y-89987380D02*
X133830000Y-89987380D01*
X133925238Y-89939761D01*
X133972857Y-89892142D01*
X134068095Y-89749285D01*
X134115714Y-89558809D01*
X134115714Y-89177857D01*
X134068095Y-89082619D01*
X134020476Y-89035000D01*
X133925238Y-88987380D01*
X133734761Y-88987380D01*
X133639523Y-89035000D01*
X133591904Y-89082619D01*
X133544285Y-89177857D01*
X133544285Y-89415952D01*
X133591904Y-89511190D01*
X133639523Y-89558809D01*
X133734761Y-89606428D01*
X133925238Y-89606428D01*
X134020476Y-89558809D01*
X134068095Y-89511190D01*
X134115714Y-89415952D01*
G04 #@! TO.C,C8*
X133163333Y-115292142D02*
X133115714Y-115339761D01*
X132972857Y-115387380D01*
X132877619Y-115387380D01*
X132734761Y-115339761D01*
X132639523Y-115244523D01*
X132591904Y-115149285D01*
X132544285Y-114958809D01*
X132544285Y-114815952D01*
X132591904Y-114625476D01*
X132639523Y-114530238D01*
X132734761Y-114435000D01*
X132877619Y-114387380D01*
X132972857Y-114387380D01*
X133115714Y-114435000D01*
X133163333Y-114482619D01*
X133734761Y-114815952D02*
X133639523Y-114768333D01*
X133591904Y-114720714D01*
X133544285Y-114625476D01*
X133544285Y-114577857D01*
X133591904Y-114482619D01*
X133639523Y-114435000D01*
X133734761Y-114387380D01*
X133925238Y-114387380D01*
X134020476Y-114435000D01*
X134068095Y-114482619D01*
X134115714Y-114577857D01*
X134115714Y-114625476D01*
X134068095Y-114720714D01*
X134020476Y-114768333D01*
X133925238Y-114815952D01*
X133734761Y-114815952D01*
X133639523Y-114863571D01*
X133591904Y-114911190D01*
X133544285Y-115006428D01*
X133544285Y-115196904D01*
X133591904Y-115292142D01*
X133639523Y-115339761D01*
X133734761Y-115387380D01*
X133925238Y-115387380D01*
X134020476Y-115339761D01*
X134068095Y-115292142D01*
X134115714Y-115196904D01*
X134115714Y-115006428D01*
X134068095Y-114911190D01*
X134020476Y-114863571D01*
X133925238Y-114815952D01*
G04 #@! TO.C,C7*
X117877142Y-115756666D02*
X117924761Y-115804285D01*
X117972380Y-115947142D01*
X117972380Y-116042380D01*
X117924761Y-116185238D01*
X117829523Y-116280476D01*
X117734285Y-116328095D01*
X117543809Y-116375714D01*
X117400952Y-116375714D01*
X117210476Y-116328095D01*
X117115238Y-116280476D01*
X117020000Y-116185238D01*
X116972380Y-116042380D01*
X116972380Y-115947142D01*
X117020000Y-115804285D01*
X117067619Y-115756666D01*
X116972380Y-115423333D02*
X116972380Y-114756666D01*
X117972380Y-115185238D01*
G04 #@! TO.C,C6*
X117877142Y-92896666D02*
X117924761Y-92944285D01*
X117972380Y-93087142D01*
X117972380Y-93182380D01*
X117924761Y-93325238D01*
X117829523Y-93420476D01*
X117734285Y-93468095D01*
X117543809Y-93515714D01*
X117400952Y-93515714D01*
X117210476Y-93468095D01*
X117115238Y-93420476D01*
X117020000Y-93325238D01*
X116972380Y-93182380D01*
X116972380Y-93087142D01*
X117020000Y-92944285D01*
X117067619Y-92896666D01*
X116972380Y-92039523D02*
X116972380Y-92230000D01*
X117020000Y-92325238D01*
X117067619Y-92372857D01*
X117210476Y-92468095D01*
X117400952Y-92515714D01*
X117781904Y-92515714D01*
X117877142Y-92468095D01*
X117924761Y-92420476D01*
X117972380Y-92325238D01*
X117972380Y-92134761D01*
X117924761Y-92039523D01*
X117877142Y-91991904D01*
X117781904Y-91944285D01*
X117543809Y-91944285D01*
X117448571Y-91991904D01*
X117400952Y-92039523D01*
X117353333Y-92134761D01*
X117353333Y-92325238D01*
X117400952Y-92420476D01*
X117448571Y-92468095D01*
X117543809Y-92515714D01*
G04 #@! TO.C,C5*
X138243333Y-71082142D02*
X138195714Y-71129761D01*
X138052857Y-71177380D01*
X137957619Y-71177380D01*
X137814761Y-71129761D01*
X137719523Y-71034523D01*
X137671904Y-70939285D01*
X137624285Y-70748809D01*
X137624285Y-70605952D01*
X137671904Y-70415476D01*
X137719523Y-70320238D01*
X137814761Y-70225000D01*
X137957619Y-70177380D01*
X138052857Y-70177380D01*
X138195714Y-70225000D01*
X138243333Y-70272619D01*
X139148095Y-70177380D02*
X138671904Y-70177380D01*
X138624285Y-70653571D01*
X138671904Y-70605952D01*
X138767142Y-70558333D01*
X139005238Y-70558333D01*
X139100476Y-70605952D01*
X139148095Y-70653571D01*
X139195714Y-70748809D01*
X139195714Y-70986904D01*
X139148095Y-71082142D01*
X139100476Y-71129761D01*
X139005238Y-71177380D01*
X138767142Y-71177380D01*
X138671904Y-71129761D01*
X138624285Y-71082142D01*
G04 #@! TO.C,C4*
X138243333Y-96482142D02*
X138195714Y-96529761D01*
X138052857Y-96577380D01*
X137957619Y-96577380D01*
X137814761Y-96529761D01*
X137719523Y-96434523D01*
X137671904Y-96339285D01*
X137624285Y-96148809D01*
X137624285Y-96005952D01*
X137671904Y-95815476D01*
X137719523Y-95720238D01*
X137814761Y-95625000D01*
X137957619Y-95577380D01*
X138052857Y-95577380D01*
X138195714Y-95625000D01*
X138243333Y-95672619D01*
X139100476Y-95910714D02*
X139100476Y-96577380D01*
X138862380Y-95529761D02*
X138624285Y-96244047D01*
X139243333Y-96244047D01*
G04 #@! TO.C,C3*
X140692142Y-103036666D02*
X140739761Y-103084285D01*
X140787380Y-103227142D01*
X140787380Y-103322380D01*
X140739761Y-103465238D01*
X140644523Y-103560476D01*
X140549285Y-103608095D01*
X140358809Y-103655714D01*
X140215952Y-103655714D01*
X140025476Y-103608095D01*
X139930238Y-103560476D01*
X139835000Y-103465238D01*
X139787380Y-103322380D01*
X139787380Y-103227142D01*
X139835000Y-103084285D01*
X139882619Y-103036666D01*
X139787380Y-102703333D02*
X139787380Y-102084285D01*
X140168333Y-102417619D01*
X140168333Y-102274761D01*
X140215952Y-102179523D01*
X140263571Y-102131904D01*
X140358809Y-102084285D01*
X140596904Y-102084285D01*
X140692142Y-102131904D01*
X140739761Y-102179523D01*
X140787380Y-102274761D01*
X140787380Y-102560476D01*
X140739761Y-102655714D01*
X140692142Y-102703333D01*
G04 #@! TO.C,C2*
X147788333Y-81637142D02*
X147740714Y-81684761D01*
X147597857Y-81732380D01*
X147502619Y-81732380D01*
X147359761Y-81684761D01*
X147264523Y-81589523D01*
X147216904Y-81494285D01*
X147169285Y-81303809D01*
X147169285Y-81160952D01*
X147216904Y-80970476D01*
X147264523Y-80875238D01*
X147359761Y-80780000D01*
X147502619Y-80732380D01*
X147597857Y-80732380D01*
X147740714Y-80780000D01*
X147788333Y-80827619D01*
X148169285Y-80827619D02*
X148216904Y-80780000D01*
X148312142Y-80732380D01*
X148550238Y-80732380D01*
X148645476Y-80780000D01*
X148693095Y-80827619D01*
X148740714Y-80922857D01*
X148740714Y-81018095D01*
X148693095Y-81160952D01*
X148121666Y-81732380D01*
X148740714Y-81732380D01*
G04 #@! TO.C,C1*
X127448333Y-95897142D02*
X127400714Y-95944761D01*
X127257857Y-95992380D01*
X127162619Y-95992380D01*
X127019761Y-95944761D01*
X126924523Y-95849523D01*
X126876904Y-95754285D01*
X126829285Y-95563809D01*
X126829285Y-95420952D01*
X126876904Y-95230476D01*
X126924523Y-95135238D01*
X127019761Y-95040000D01*
X127162619Y-94992380D01*
X127257857Y-94992380D01*
X127400714Y-95040000D01*
X127448333Y-95087619D01*
X128400714Y-95992380D02*
X127829285Y-95992380D01*
X128115000Y-95992380D02*
X128115000Y-94992380D01*
X128019761Y-95135238D01*
X127924523Y-95230476D01*
X127829285Y-95278095D01*
G04 #@! TD*
M02*
