G04 #@! TF.GenerationSoftware,KiCad,Pcbnew,(5.1.10)-1*
G04 #@! TF.CreationDate,2021-07-20T07:39:07+09:00*
G04 #@! TF.ProjectId,MIX04,4d495830-342e-46b6-9963-61645f706362,Ver. 1.0*
G04 #@! TF.SameCoordinates,Original*
G04 #@! TF.FileFunction,Copper,L1,Top*
G04 #@! TF.FilePolarity,Positive*
%FSLAX46Y46*%
G04 Gerber Fmt 4.6, Leading zero omitted, Abs format (unit mm)*
G04 Created by KiCad (PCBNEW (5.1.10)-1) date 2021-07-20 07:39:07*
%MOMM*%
%LPD*%
G01*
G04 APERTURE LIST*
G04 #@! TA.AperFunction,ComponentPad*
%ADD10O,2.400000X1.600000*%
G04 #@! TD*
G04 #@! TA.AperFunction,ComponentPad*
%ADD11R,2.400000X1.600000*%
G04 #@! TD*
G04 #@! TA.AperFunction,ComponentPad*
%ADD12C,1.800000*%
G04 #@! TD*
G04 #@! TA.AperFunction,ComponentPad*
%ADD13O,1.600000X1.600000*%
G04 #@! TD*
G04 #@! TA.AperFunction,ComponentPad*
%ADD14C,1.600000*%
G04 #@! TD*
G04 #@! TA.AperFunction,ComponentPad*
%ADD15O,1.700000X1.700000*%
G04 #@! TD*
G04 #@! TA.AperFunction,ComponentPad*
%ADD16R,1.700000X1.700000*%
G04 #@! TD*
G04 #@! TA.AperFunction,ComponentPad*
%ADD17C,1.700000*%
G04 #@! TD*
G04 #@! TA.AperFunction,ComponentPad*
%ADD18O,1.700000X2.000000*%
G04 #@! TD*
G04 #@! TA.AperFunction,ComponentPad*
%ADD19R,1.800000X1.800000*%
G04 #@! TD*
G04 #@! TA.AperFunction,ComponentPad*
%ADD20R,1.600000X1.600000*%
G04 #@! TD*
G04 #@! TA.AperFunction,Conductor*
%ADD21C,0.500000*%
G04 #@! TD*
G04 APERTURE END LIST*
D10*
G04 #@! TO.P,U1,8*
G04 #@! TO.N,+12V*
X139700000Y-101600000D03*
G04 #@! TO.P,U1,4*
G04 #@! TO.N,-12V*
X132080000Y-109220000D03*
G04 #@! TO.P,U1,7*
G04 #@! TO.N,Net-(C3-Pad1)*
X139700000Y-104140000D03*
G04 #@! TO.P,U1,3*
G04 #@! TO.N,Net-(R7-Pad1)*
X132080000Y-106680000D03*
G04 #@! TO.P,U1,6*
G04 #@! TO.N,Net-(C3-Pad2)*
X139700000Y-106680000D03*
G04 #@! TO.P,U1,2*
G04 #@! TO.N,Net-(C1-Pad2)*
X132080000Y-104140000D03*
G04 #@! TO.P,U1,5*
G04 #@! TO.N,Net-(R11-Pad1)*
X139700000Y-109220000D03*
D11*
G04 #@! TO.P,U1,1*
G04 #@! TO.N,Net-(C1-Pad1)*
X132080000Y-101600000D03*
G04 #@! TD*
D10*
G04 #@! TO.P,U2,8*
G04 #@! TO.N,+12V*
X139700000Y-76200000D03*
G04 #@! TO.P,U2,4*
G04 #@! TO.N,-12V*
X132080000Y-83820000D03*
G04 #@! TO.P,U2,7*
G04 #@! TO.N,Net-(C2-Pad1)*
X139700000Y-78740000D03*
G04 #@! TO.P,U2,3*
G04 #@! TO.N,GND*
X132080000Y-81280000D03*
G04 #@! TO.P,U2,6*
G04 #@! TO.N,Net-(C2-Pad2)*
X139700000Y-81280000D03*
G04 #@! TO.P,U2,2*
G04 #@! TO.N,Net-(U2-Pad1)*
X132080000Y-78740000D03*
G04 #@! TO.P,U2,5*
G04 #@! TO.N,Net-(R8-Pad1)*
X139700000Y-83820000D03*
D11*
G04 #@! TO.P,U2,1*
G04 #@! TO.N,Net-(U2-Pad1)*
X132080000Y-76200000D03*
G04 #@! TD*
D12*
G04 #@! TO.P,RV5,1*
G04 #@! TO.N,GND*
X162560000Y-116840000D03*
G04 #@! TO.P,RV5,2*
G04 #@! TO.N,Net-(R14-Pad2)*
X162560000Y-114340000D03*
G04 #@! TO.P,RV5,3*
G04 #@! TO.N,Net-(J6-Pad1)*
X162560000Y-111840000D03*
G04 #@! TD*
G04 #@! TO.P,RV4,1*
G04 #@! TO.N,GND*
X162560000Y-99060000D03*
G04 #@! TO.P,RV4,2*
G04 #@! TO.N,Net-(R12-Pad2)*
X162560000Y-96560000D03*
G04 #@! TO.P,RV4,3*
G04 #@! TO.N,Net-(J5-Pad1)*
X162560000Y-94060000D03*
G04 #@! TD*
G04 #@! TO.P,RV3,1*
G04 #@! TO.N,GND*
X162560000Y-81280000D03*
G04 #@! TO.P,RV3,2*
G04 #@! TO.N,Net-(R10-Pad2)*
X162560000Y-78780000D03*
G04 #@! TO.P,RV3,3*
G04 #@! TO.N,Net-(J3-Pad1)*
X162560000Y-76280000D03*
G04 #@! TD*
G04 #@! TO.P,RV2,1*
G04 #@! TO.N,GND*
X162560000Y-63500000D03*
G04 #@! TO.P,RV2,2*
G04 #@! TO.N,Net-(R6-Pad2)*
X162560000Y-61000000D03*
G04 #@! TO.P,RV2,3*
G04 #@! TO.N,Net-(J1-Pad1)*
X162560000Y-58500000D03*
G04 #@! TD*
G04 #@! TO.P,RV1,1*
G04 #@! TO.N,Net-(C3-Pad1)*
X162560000Y-134620000D03*
G04 #@! TO.P,RV1,2*
G04 #@! TO.N,Net-(C3-Pad2)*
X162560000Y-132120000D03*
G04 #@! TO.P,RV1,3*
G04 #@! TO.N,Net-(R4-Pad1)*
X162560000Y-129620000D03*
G04 #@! TD*
D13*
G04 #@! TO.P,R15,2*
G04 #@! TO.N,-12V*
X109220000Y-116840000D03*
D14*
G04 #@! TO.P,R15,1*
G04 #@! TO.N,Net-(D2-Pad1)*
X109220000Y-127000000D03*
G04 #@! TD*
D13*
G04 #@! TO.P,R14,2*
G04 #@! TO.N,Net-(R14-Pad2)*
X157480000Y-114300000D03*
D14*
G04 #@! TO.P,R14,1*
G04 #@! TO.N,Net-(C2-Pad2)*
X157480000Y-124460000D03*
G04 #@! TD*
D13*
G04 #@! TO.P,R13,2*
G04 #@! TO.N,Net-(D1-Pad2)*
X109220000Y-81280000D03*
D14*
G04 #@! TO.P,R13,1*
G04 #@! TO.N,+12V*
X109220000Y-91440000D03*
G04 #@! TD*
D13*
G04 #@! TO.P,R12,2*
G04 #@! TO.N,Net-(R12-Pad2)*
X157480000Y-96520000D03*
D14*
G04 #@! TO.P,R12,1*
G04 #@! TO.N,Net-(C2-Pad2)*
X157480000Y-106680000D03*
G04 #@! TD*
D13*
G04 #@! TO.P,R11,2*
G04 #@! TO.N,GND*
X153035000Y-109220000D03*
D14*
G04 #@! TO.P,R11,1*
G04 #@! TO.N,Net-(R11-Pad1)*
X142875000Y-109220000D03*
G04 #@! TD*
D13*
G04 #@! TO.P,R10,2*
G04 #@! TO.N,Net-(R10-Pad2)*
X157480000Y-78740000D03*
D14*
G04 #@! TO.P,R10,1*
G04 #@! TO.N,Net-(C2-Pad2)*
X157480000Y-88900000D03*
G04 #@! TD*
D13*
G04 #@! TO.P,R9,2*
G04 #@! TO.N,Net-(C3-Pad1)*
X147320000Y-121920000D03*
D14*
G04 #@! TO.P,R9,1*
G04 #@! TO.N,Net-(J4-Pad1)*
X147320000Y-132080000D03*
G04 #@! TD*
D13*
G04 #@! TO.P,R8,2*
G04 #@! TO.N,GND*
X153035000Y-84455000D03*
D14*
G04 #@! TO.P,R8,1*
G04 #@! TO.N,Net-(R8-Pad1)*
X142875000Y-84455000D03*
G04 #@! TD*
D13*
G04 #@! TO.P,R7,2*
G04 #@! TO.N,GND*
X118745000Y-107315000D03*
D14*
G04 #@! TO.P,R7,1*
G04 #@! TO.N,Net-(R7-Pad1)*
X128905000Y-107315000D03*
G04 #@! TD*
D13*
G04 #@! TO.P,R6,2*
G04 #@! TO.N,Net-(R6-Pad2)*
X157480000Y-60960000D03*
D14*
G04 #@! TO.P,R6,1*
G04 #@! TO.N,Net-(C2-Pad2)*
X157480000Y-71120000D03*
G04 #@! TD*
D13*
G04 #@! TO.P,R5,2*
G04 #@! TO.N,Net-(C3-Pad1)*
X118745000Y-104140000D03*
D14*
G04 #@! TO.P,R5,1*
G04 #@! TO.N,Net-(C1-Pad2)*
X128905000Y-104140000D03*
G04 #@! TD*
D13*
G04 #@! TO.P,R4,2*
G04 #@! TO.N,Net-(C2-Pad1)*
X157480000Y-139700000D03*
D14*
G04 #@! TO.P,R4,1*
G04 #@! TO.N,Net-(R4-Pad1)*
X157480000Y-129540000D03*
G04 #@! TD*
D13*
G04 #@! TO.P,R3,2*
G04 #@! TO.N,Net-(C1-Pad1)*
X134620000Y-121920000D03*
D14*
G04 #@! TO.P,R3,1*
G04 #@! TO.N,Net-(J2-Pad1)*
X134620000Y-132080000D03*
G04 #@! TD*
D13*
G04 #@! TO.P,R2,2*
G04 #@! TO.N,Net-(C2-Pad2)*
X153035000Y-78105000D03*
D14*
G04 #@! TO.P,R2,1*
G04 #@! TO.N,Net-(C2-Pad1)*
X142875000Y-78105000D03*
G04 #@! TD*
D13*
G04 #@! TO.P,R1,2*
G04 #@! TO.N,Net-(C1-Pad2)*
X128905000Y-100965000D03*
D14*
G04 #@! TO.P,R1,1*
G04 #@! TO.N,Net-(C1-Pad1)*
X118745000Y-100965000D03*
G04 #@! TD*
D15*
G04 #@! TO.P,J8,2*
G04 #@! TO.N,GND*
X116840000Y-137160000D03*
D16*
G04 #@! TO.P,J8,1*
X116840000Y-134620000D03*
G04 #@! TD*
D17*
G04 #@! TO.P,J7,10*
G04 #@! TO.N,+12V*
X109220000Y-99060000D03*
G04 #@! TO.P,J7,8*
G04 #@! TO.N,GND*
X109220000Y-101600000D03*
G04 #@! TO.P,J7,6*
X109220000Y-104140000D03*
G04 #@! TO.P,J7,4*
X109220000Y-106680000D03*
G04 #@! TO.P,J7,2*
G04 #@! TO.N,-12V*
X109220000Y-109220000D03*
G04 #@! TO.P,J7,9*
G04 #@! TO.N,+12V*
X111760000Y-99060000D03*
G04 #@! TO.P,J7,7*
G04 #@! TO.N,GND*
X111760000Y-101600000D03*
G04 #@! TO.P,J7,5*
X111760000Y-104140000D03*
G04 #@! TO.P,J7,3*
X111760000Y-106680000D03*
G04 #@! TO.P,J7,1*
G04 #@! TO.N,-12V*
G04 #@! TA.AperFunction,ComponentPad*
G36*
G01*
X112610000Y-108620000D02*
X112610000Y-109820000D01*
G75*
G02*
X112360000Y-110070000I-250000J0D01*
G01*
X111160000Y-110070000D01*
G75*
G02*
X110910000Y-109820000I0J250000D01*
G01*
X110910000Y-108620000D01*
G75*
G02*
X111160000Y-108370000I250000J0D01*
G01*
X112360000Y-108370000D01*
G75*
G02*
X112610000Y-108620000I0J-250000D01*
G01*
G37*
G04 #@! TD.AperFunction*
G04 #@! TD*
D18*
G04 #@! TO.P,J6,2*
G04 #@! TO.N,GND*
X111720000Y-58420000D03*
G04 #@! TO.P,J6,1*
G04 #@! TO.N,Net-(J6-Pad1)*
G04 #@! TA.AperFunction,ComponentPad*
G36*
G01*
X108370000Y-59170000D02*
X108370000Y-57670000D01*
G75*
G02*
X108620000Y-57420000I250000J0D01*
G01*
X109820000Y-57420000D01*
G75*
G02*
X110070000Y-57670000I0J-250000D01*
G01*
X110070000Y-59170000D01*
G75*
G02*
X109820000Y-59420000I-250000J0D01*
G01*
X108620000Y-59420000D01*
G75*
G02*
X108370000Y-59170000I0J250000D01*
G01*
G37*
G04 #@! TD.AperFunction*
G04 #@! TD*
G04 #@! TO.P,J5,2*
G04 #@! TO.N,GND*
X124420000Y-58420000D03*
G04 #@! TO.P,J5,1*
G04 #@! TO.N,Net-(J5-Pad1)*
G04 #@! TA.AperFunction,ComponentPad*
G36*
G01*
X121070000Y-59170000D02*
X121070000Y-57670000D01*
G75*
G02*
X121320000Y-57420000I250000J0D01*
G01*
X122520000Y-57420000D01*
G75*
G02*
X122770000Y-57670000I0J-250000D01*
G01*
X122770000Y-59170000D01*
G75*
G02*
X122520000Y-59420000I-250000J0D01*
G01*
X121320000Y-59420000D01*
G75*
G02*
X121070000Y-59170000I0J250000D01*
G01*
G37*
G04 #@! TD.AperFunction*
G04 #@! TD*
G04 #@! TO.P,J4,2*
G04 #@! TO.N,GND*
X144820000Y-137160000D03*
G04 #@! TO.P,J4,1*
G04 #@! TO.N,Net-(J4-Pad1)*
G04 #@! TA.AperFunction,ComponentPad*
G36*
G01*
X148170000Y-136410000D02*
X148170000Y-137910000D01*
G75*
G02*
X147920000Y-138160000I-250000J0D01*
G01*
X146720000Y-138160000D01*
G75*
G02*
X146470000Y-137910000I0J250000D01*
G01*
X146470000Y-136410000D01*
G75*
G02*
X146720000Y-136160000I250000J0D01*
G01*
X147920000Y-136160000D01*
G75*
G02*
X148170000Y-136410000I0J-250000D01*
G01*
G37*
G04 #@! TD.AperFunction*
G04 #@! TD*
G04 #@! TO.P,J3,2*
G04 #@! TO.N,GND*
X137120000Y-58420000D03*
G04 #@! TO.P,J3,1*
G04 #@! TO.N,Net-(J3-Pad1)*
G04 #@! TA.AperFunction,ComponentPad*
G36*
G01*
X133770000Y-59170000D02*
X133770000Y-57670000D01*
G75*
G02*
X134020000Y-57420000I250000J0D01*
G01*
X135220000Y-57420000D01*
G75*
G02*
X135470000Y-57670000I0J-250000D01*
G01*
X135470000Y-59170000D01*
G75*
G02*
X135220000Y-59420000I-250000J0D01*
G01*
X134020000Y-59420000D01*
G75*
G02*
X133770000Y-59170000I0J250000D01*
G01*
G37*
G04 #@! TD.AperFunction*
G04 #@! TD*
G04 #@! TO.P,J2,2*
G04 #@! TO.N,GND*
X132120000Y-137160000D03*
G04 #@! TO.P,J2,1*
G04 #@! TO.N,Net-(J2-Pad1)*
G04 #@! TA.AperFunction,ComponentPad*
G36*
G01*
X135470000Y-136410000D02*
X135470000Y-137910000D01*
G75*
G02*
X135220000Y-138160000I-250000J0D01*
G01*
X134020000Y-138160000D01*
G75*
G02*
X133770000Y-137910000I0J250000D01*
G01*
X133770000Y-136410000D01*
G75*
G02*
X134020000Y-136160000I250000J0D01*
G01*
X135220000Y-136160000D01*
G75*
G02*
X135470000Y-136410000I0J-250000D01*
G01*
G37*
G04 #@! TD.AperFunction*
G04 #@! TD*
G04 #@! TO.P,J1,2*
G04 #@! TO.N,GND*
X149820000Y-58420000D03*
G04 #@! TO.P,J1,1*
G04 #@! TO.N,Net-(J1-Pad1)*
G04 #@! TA.AperFunction,ComponentPad*
G36*
G01*
X146470000Y-59170000D02*
X146470000Y-57670000D01*
G75*
G02*
X146720000Y-57420000I250000J0D01*
G01*
X147920000Y-57420000D01*
G75*
G02*
X148170000Y-57670000I0J-250000D01*
G01*
X148170000Y-59170000D01*
G75*
G02*
X147920000Y-59420000I-250000J0D01*
G01*
X146720000Y-59420000D01*
G75*
G02*
X146470000Y-59170000I0J250000D01*
G01*
G37*
G04 #@! TD.AperFunction*
G04 #@! TD*
D12*
G04 #@! TO.P,D2,2*
G04 #@! TO.N,GND*
X114935000Y-118110000D03*
D19*
G04 #@! TO.P,D2,1*
G04 #@! TO.N,Net-(D2-Pad1)*
X112395000Y-118110000D03*
G04 #@! TD*
D12*
G04 #@! TO.P,D1,2*
G04 #@! TO.N,Net-(D1-Pad2)*
X112395000Y-90170000D03*
D19*
G04 #@! TO.P,D1,1*
G04 #@! TO.N,GND*
X114935000Y-90170000D03*
G04 #@! TD*
D14*
G04 #@! TO.P,C9,2*
G04 #@! TO.N,GND*
X134580000Y-86995000D03*
G04 #@! TO.P,C9,1*
G04 #@! TO.N,-12V*
X132080000Y-86995000D03*
G04 #@! TD*
G04 #@! TO.P,C8,2*
G04 #@! TO.N,GND*
X134580000Y-112395000D03*
G04 #@! TO.P,C8,1*
G04 #@! TO.N,-12V*
X132080000Y-112395000D03*
G04 #@! TD*
G04 #@! TO.P,C7,2*
G04 #@! TO.N,-12V*
X121920000Y-114340000D03*
D20*
G04 #@! TO.P,C7,1*
G04 #@! TO.N,GND*
X121920000Y-116840000D03*
G04 #@! TD*
D14*
G04 #@! TO.P,C6,2*
G04 #@! TO.N,GND*
X121920000Y-91480000D03*
D20*
G04 #@! TO.P,C6,1*
G04 #@! TO.N,+12V*
X121920000Y-93980000D03*
G04 #@! TD*
D14*
G04 #@! TO.P,C5,2*
G04 #@! TO.N,+12V*
X139660000Y-73025000D03*
G04 #@! TO.P,C5,1*
G04 #@! TO.N,GND*
X137160000Y-73025000D03*
G04 #@! TD*
G04 #@! TO.P,C4,2*
G04 #@! TO.N,+12V*
X139660000Y-98425000D03*
G04 #@! TO.P,C4,1*
G04 #@! TO.N,GND*
X137160000Y-98425000D03*
G04 #@! TD*
G04 #@! TO.P,C3,2*
G04 #@! TO.N,Net-(C3-Pad2)*
X142875000Y-106640000D03*
G04 #@! TO.P,C3,1*
G04 #@! TO.N,Net-(C3-Pad1)*
X142875000Y-104140000D03*
G04 #@! TD*
G04 #@! TO.P,C2,2*
G04 #@! TO.N,Net-(C2-Pad2)*
X142915000Y-81280000D03*
G04 #@! TO.P,C2,1*
G04 #@! TO.N,Net-(C2-Pad1)*
X145415000Y-81280000D03*
G04 #@! TD*
G04 #@! TO.P,C1,2*
G04 #@! TO.N,Net-(C1-Pad2)*
X128865000Y-97790000D03*
G04 #@! TO.P,C1,1*
G04 #@! TO.N,Net-(C1-Pad1)*
X126365000Y-97790000D03*
G04 #@! TD*
D21*
G04 #@! TO.N,Net-(C1-Pad2)*
X128865000Y-100925000D02*
X128905000Y-100965000D01*
X128865000Y-97790000D02*
X128865000Y-100925000D01*
X128905000Y-100965000D02*
X128905000Y-104140000D01*
X128905000Y-104140000D02*
X132080000Y-104140000D01*
G04 #@! TO.N,Net-(C1-Pad1)*
X121920000Y-97790000D02*
X118745000Y-100965000D01*
X126365000Y-97790000D02*
X121920000Y-97790000D01*
X127615001Y-96539999D02*
X126365000Y-97790000D01*
X129465001Y-96539999D02*
X127615001Y-96539999D01*
X132080000Y-99154998D02*
X129465001Y-96539999D01*
X132080000Y-101600000D02*
X132080000Y-99154998D01*
X135830001Y-120709999D02*
X134620000Y-121920000D01*
X135830001Y-105350001D02*
X135830001Y-120709999D01*
X132080000Y-101600000D02*
X135830001Y-105350001D01*
G04 #@! TO.N,Net-(C2-Pad2)*
X139700000Y-81280000D02*
X142915000Y-81280000D01*
X156229999Y-123209999D02*
X156229999Y-107930001D01*
X156229999Y-107930001D02*
X157480000Y-106680000D01*
X157480000Y-124460000D02*
X156229999Y-123209999D01*
X156229999Y-90150001D02*
X157480000Y-88900000D01*
X156229999Y-105429999D02*
X156229999Y-90150001D01*
X157480000Y-106680000D02*
X156229999Y-105429999D01*
X138782229Y-74949990D02*
X149879990Y-74949990D01*
X138049990Y-75682229D02*
X138782229Y-74949990D01*
X149879990Y-74949990D02*
X153035000Y-78105000D01*
X138049990Y-79629990D02*
X138049990Y-75682229D01*
X139700000Y-81280000D02*
X138049990Y-79629990D01*
X153035000Y-78105000D02*
X156210000Y-81280000D01*
X156210000Y-87630000D02*
X157480000Y-88900000D01*
X156210000Y-81280000D02*
X156210000Y-87630000D01*
X153035000Y-78105000D02*
X156210000Y-74930000D01*
X156210000Y-74930000D02*
X156210000Y-72390000D01*
X156210000Y-72390000D02*
X157480000Y-71120000D01*
G04 #@! TO.N,Net-(C2-Pad1)*
X142240000Y-78740000D02*
X142875000Y-78105000D01*
X139700000Y-78740000D02*
X142240000Y-78740000D01*
X145415000Y-80645000D02*
X142875000Y-78105000D01*
X145415000Y-81280000D02*
X145415000Y-80645000D01*
G04 #@! TO.N,Net-(C3-Pad2)*
X138049990Y-108330010D02*
X139700000Y-106680000D01*
X138049990Y-109737771D02*
X138049990Y-108330010D01*
X163910001Y-130769999D02*
X163910001Y-128971999D01*
X162560000Y-132120000D02*
X163910001Y-130769999D01*
X138049990Y-109737771D02*
X156582219Y-128270000D01*
X163208002Y-128270000D02*
X163910001Y-128971999D01*
X156582219Y-128270000D02*
X163208002Y-128270000D01*
X142835000Y-106680000D02*
X142875000Y-106640000D01*
X139700000Y-106680000D02*
X142835000Y-106680000D01*
G04 #@! TO.N,Net-(C3-Pad1)*
X141350010Y-102489990D02*
X139700000Y-104140000D01*
X122020009Y-95839989D02*
X138924991Y-95839989D01*
X117494999Y-100364999D02*
X122020009Y-95839989D01*
X141350010Y-98265008D02*
X141350010Y-102489990D01*
X138924991Y-95839989D02*
X141350010Y-98265008D01*
X117494999Y-102889999D02*
X117494999Y-100364999D01*
X118745000Y-104140000D02*
X117494999Y-102889999D01*
X160020000Y-134620000D02*
X162560000Y-134620000D01*
X147320000Y-121920000D02*
X160020000Y-134620000D01*
X137349980Y-106490020D02*
X139700000Y-104140000D01*
X137349980Y-111949980D02*
X137349980Y-106490020D01*
X147320000Y-121920000D02*
X137349980Y-111949980D01*
X141350010Y-102615010D02*
X141350010Y-102489990D01*
X142875000Y-104140000D02*
X141350010Y-102615010D01*
G04 #@! TO.N,Net-(D1-Pad2)*
X112395000Y-84455000D02*
X109220000Y-81280000D01*
X112395000Y-90170000D02*
X112395000Y-84455000D01*
G04 #@! TO.N,Net-(D2-Pad1)*
X112395000Y-123825000D02*
X109220000Y-127000000D01*
X112395000Y-118110000D02*
X112395000Y-123825000D01*
G04 #@! TO.N,Net-(J1-Pad1)*
X148770010Y-56969990D02*
X147320000Y-58420000D01*
X161029990Y-56969990D02*
X148770010Y-56969990D01*
X162560000Y-58500000D02*
X161029990Y-56969990D01*
G04 #@! TO.N,Net-(J2-Pad1)*
X134620000Y-132080000D02*
X134620000Y-137160000D01*
G04 #@! TO.N,Net-(J3-Pad1)*
X136770020Y-56269980D02*
X134620000Y-58420000D01*
X163910001Y-74929999D02*
X163910001Y-57851999D01*
X162327982Y-56269980D02*
X136770020Y-56269980D01*
X163910001Y-57851999D02*
X162327982Y-56269980D01*
X162560000Y-76280000D02*
X163910001Y-74929999D01*
G04 #@! TO.N,Net-(J4-Pad1)*
X147320000Y-132080000D02*
X147320000Y-137160000D01*
G04 #@! TO.N,Net-(J5-Pad1)*
X124770030Y-55569970D02*
X121920000Y-58420000D01*
X162617935Y-55569970D02*
X124770030Y-55569970D01*
X164610011Y-92009989D02*
X164610011Y-57562046D01*
X164610011Y-57562046D02*
X162617935Y-55569970D01*
X162560000Y-94060000D02*
X164610011Y-92009989D01*
G04 #@! TO.N,Net-(J6-Pad1)*
X112770040Y-54869960D02*
X109220000Y-58420000D01*
X165310021Y-57272093D02*
X162907888Y-54869960D01*
X165310021Y-109089979D02*
X165310021Y-57272093D01*
X162907888Y-54869960D02*
X112770040Y-54869960D01*
X162560000Y-111840000D02*
X165310021Y-109089979D01*
G04 #@! TO.N,Net-(R4-Pad1)*
X162480000Y-129540000D02*
X162560000Y-129620000D01*
X157480000Y-129540000D02*
X162480000Y-129540000D01*
G04 #@! TO.N,Net-(R6-Pad2)*
X162520000Y-60960000D02*
X162560000Y-61000000D01*
X157480000Y-60960000D02*
X162520000Y-60960000D01*
G04 #@! TO.N,Net-(R7-Pad1)*
X129540000Y-106680000D02*
X128905000Y-107315000D01*
X132080000Y-106680000D02*
X129540000Y-106680000D01*
G04 #@! TO.N,Net-(R8-Pad1)*
X142240000Y-83820000D02*
X142875000Y-84455000D01*
X139700000Y-83820000D02*
X142240000Y-83820000D01*
G04 #@! TO.N,Net-(R10-Pad2)*
X162520000Y-78740000D02*
X162560000Y-78780000D01*
X157480000Y-78740000D02*
X162520000Y-78740000D01*
G04 #@! TO.N,Net-(R11-Pad1)*
X139700000Y-109220000D02*
X142875000Y-109220000D01*
G04 #@! TO.N,Net-(R12-Pad2)*
X162520000Y-96520000D02*
X162560000Y-96560000D01*
X157480000Y-96520000D02*
X162520000Y-96520000D01*
G04 #@! TO.N,Net-(R14-Pad2)*
X162520000Y-114300000D02*
X162560000Y-114340000D01*
X157480000Y-114300000D02*
X162520000Y-114300000D01*
G04 #@! TO.N,Net-(U2-Pad1)*
X132080000Y-76200000D02*
X132080000Y-78740000D01*
G04 #@! TD*
M02*
