G04 #@! TF.GenerationSoftware,KiCad,Pcbnew,(5.1.10)-1*
G04 #@! TF.CreationDate,2021-07-20T07:39:08+09:00*
G04 #@! TF.ProjectId,MIX04,4d495830-342e-46b6-9963-61645f706362,Ver. 1.0*
G04 #@! TF.SameCoordinates,Original*
G04 #@! TF.FileFunction,Soldermask,Bot*
G04 #@! TF.FilePolarity,Negative*
%FSLAX46Y46*%
G04 Gerber Fmt 4.6, Leading zero omitted, Abs format (unit mm)*
G04 Created by KiCad (PCBNEW (5.1.10)-1) date 2021-07-20 07:39:08*
%MOMM*%
%LPD*%
G01*
G04 APERTURE LIST*
%ADD10C,3.300000*%
%ADD11O,2.500000X1.700000*%
%ADD12C,1.900000*%
%ADD13O,1.700000X1.700000*%
%ADD14C,1.700000*%
%ADD15O,1.800000X1.800000*%
%ADD16C,1.800000*%
%ADD17O,1.800000X2.100000*%
G04 APERTURE END LIST*
D10*
G04 #@! TO.C,H4*
X163830000Y-144780000D03*
G04 #@! TD*
G04 #@! TO.C,H3*
X104140000Y-144780000D03*
G04 #@! TD*
G04 #@! TO.C,H2*
X163830000Y-50800000D03*
G04 #@! TD*
G04 #@! TO.C,H1*
X104140000Y-50800000D03*
G04 #@! TD*
D11*
G04 #@! TO.C,U1*
X139700000Y-101600000D03*
X132080000Y-109220000D03*
X139700000Y-104140000D03*
X132080000Y-106680000D03*
X139700000Y-106680000D03*
X132080000Y-104140000D03*
X139700000Y-109220000D03*
G36*
G01*
X130830000Y-102400000D02*
X130830000Y-100800000D01*
G75*
G02*
X130880000Y-100750000I50000J0D01*
G01*
X133280000Y-100750000D01*
G75*
G02*
X133330000Y-100800000I0J-50000D01*
G01*
X133330000Y-102400000D01*
G75*
G02*
X133280000Y-102450000I-50000J0D01*
G01*
X130880000Y-102450000D01*
G75*
G02*
X130830000Y-102400000I0J50000D01*
G01*
G37*
G04 #@! TD*
G04 #@! TO.C,U2*
X139700000Y-76200000D03*
X132080000Y-83820000D03*
X139700000Y-78740000D03*
X132080000Y-81280000D03*
X139700000Y-81280000D03*
X132080000Y-78740000D03*
X139700000Y-83820000D03*
G36*
G01*
X130830000Y-77000000D02*
X130830000Y-75400000D01*
G75*
G02*
X130880000Y-75350000I50000J0D01*
G01*
X133280000Y-75350000D01*
G75*
G02*
X133330000Y-75400000I0J-50000D01*
G01*
X133330000Y-77000000D01*
G75*
G02*
X133280000Y-77050000I-50000J0D01*
G01*
X130880000Y-77050000D01*
G75*
G02*
X130830000Y-77000000I0J50000D01*
G01*
G37*
G04 #@! TD*
D12*
G04 #@! TO.C,RV5*
X162560000Y-116840000D03*
X162560000Y-114340000D03*
X162560000Y-111840000D03*
G04 #@! TD*
G04 #@! TO.C,RV4*
X162560000Y-99060000D03*
X162560000Y-96560000D03*
X162560000Y-94060000D03*
G04 #@! TD*
G04 #@! TO.C,RV3*
X162560000Y-81280000D03*
X162560000Y-78780000D03*
X162560000Y-76280000D03*
G04 #@! TD*
G04 #@! TO.C,RV2*
X162560000Y-63500000D03*
X162560000Y-61000000D03*
X162560000Y-58500000D03*
G04 #@! TD*
G04 #@! TO.C,RV1*
X162560000Y-134620000D03*
X162560000Y-132120000D03*
X162560000Y-129620000D03*
G04 #@! TD*
D13*
G04 #@! TO.C,R15*
X109220000Y-116840000D03*
D14*
X109220000Y-127000000D03*
G04 #@! TD*
D13*
G04 #@! TO.C,R14*
X157480000Y-114300000D03*
D14*
X157480000Y-124460000D03*
G04 #@! TD*
D13*
G04 #@! TO.C,R13*
X109220000Y-81280000D03*
D14*
X109220000Y-91440000D03*
G04 #@! TD*
D13*
G04 #@! TO.C,R12*
X157480000Y-96520000D03*
D14*
X157480000Y-106680000D03*
G04 #@! TD*
D13*
G04 #@! TO.C,R11*
X153035000Y-109220000D03*
D14*
X142875000Y-109220000D03*
G04 #@! TD*
D13*
G04 #@! TO.C,R10*
X157480000Y-78740000D03*
D14*
X157480000Y-88900000D03*
G04 #@! TD*
D13*
G04 #@! TO.C,R9*
X147320000Y-121920000D03*
D14*
X147320000Y-132080000D03*
G04 #@! TD*
D13*
G04 #@! TO.C,R8*
X153035000Y-84455000D03*
D14*
X142875000Y-84455000D03*
G04 #@! TD*
D13*
G04 #@! TO.C,R7*
X118745000Y-107315000D03*
D14*
X128905000Y-107315000D03*
G04 #@! TD*
D13*
G04 #@! TO.C,R6*
X157480000Y-60960000D03*
D14*
X157480000Y-71120000D03*
G04 #@! TD*
D13*
G04 #@! TO.C,R5*
X118745000Y-104140000D03*
D14*
X128905000Y-104140000D03*
G04 #@! TD*
D13*
G04 #@! TO.C,R4*
X157480000Y-139700000D03*
D14*
X157480000Y-129540000D03*
G04 #@! TD*
D13*
G04 #@! TO.C,R3*
X134620000Y-121920000D03*
D14*
X134620000Y-132080000D03*
G04 #@! TD*
D13*
G04 #@! TO.C,R2*
X153035000Y-78105000D03*
D14*
X142875000Y-78105000D03*
G04 #@! TD*
D13*
G04 #@! TO.C,R1*
X128905000Y-100965000D03*
D14*
X118745000Y-100965000D03*
G04 #@! TD*
D15*
G04 #@! TO.C,J8*
X116840000Y-137160000D03*
G36*
G01*
X115940000Y-135470000D02*
X115940000Y-133770000D01*
G75*
G02*
X115990000Y-133720000I50000J0D01*
G01*
X117690000Y-133720000D01*
G75*
G02*
X117740000Y-133770000I0J-50000D01*
G01*
X117740000Y-135470000D01*
G75*
G02*
X117690000Y-135520000I-50000J0D01*
G01*
X115990000Y-135520000D01*
G75*
G02*
X115940000Y-135470000I0J50000D01*
G01*
G37*
G04 #@! TD*
D16*
G04 #@! TO.C,J7*
X109220000Y-99060000D03*
X109220000Y-101600000D03*
X109220000Y-104140000D03*
X109220000Y-106680000D03*
X109220000Y-109220000D03*
X111760000Y-99060000D03*
X111760000Y-101600000D03*
X111760000Y-104140000D03*
X111760000Y-106680000D03*
G36*
G01*
X112660000Y-108584705D02*
X112660000Y-109855295D01*
G75*
G02*
X112395295Y-110120000I-264705J0D01*
G01*
X111124705Y-110120000D01*
G75*
G02*
X110860000Y-109855295I0J264705D01*
G01*
X110860000Y-108584705D01*
G75*
G02*
X111124705Y-108320000I264705J0D01*
G01*
X112395295Y-108320000D01*
G75*
G02*
X112660000Y-108584705I0J-264705D01*
G01*
G37*
G04 #@! TD*
D17*
G04 #@! TO.C,J6*
X111720000Y-58420000D03*
G36*
G01*
X108320000Y-59205295D02*
X108320000Y-57634705D01*
G75*
G02*
X108584705Y-57370000I264705J0D01*
G01*
X109855295Y-57370000D01*
G75*
G02*
X110120000Y-57634705I0J-264705D01*
G01*
X110120000Y-59205295D01*
G75*
G02*
X109855295Y-59470000I-264705J0D01*
G01*
X108584705Y-59470000D01*
G75*
G02*
X108320000Y-59205295I0J264705D01*
G01*
G37*
G04 #@! TD*
G04 #@! TO.C,J5*
X124420000Y-58420000D03*
G36*
G01*
X121020000Y-59205295D02*
X121020000Y-57634705D01*
G75*
G02*
X121284705Y-57370000I264705J0D01*
G01*
X122555295Y-57370000D01*
G75*
G02*
X122820000Y-57634705I0J-264705D01*
G01*
X122820000Y-59205295D01*
G75*
G02*
X122555295Y-59470000I-264705J0D01*
G01*
X121284705Y-59470000D01*
G75*
G02*
X121020000Y-59205295I0J264705D01*
G01*
G37*
G04 #@! TD*
G04 #@! TO.C,J4*
X144820000Y-137160000D03*
G36*
G01*
X148220000Y-136374705D02*
X148220000Y-137945295D01*
G75*
G02*
X147955295Y-138210000I-264705J0D01*
G01*
X146684705Y-138210000D01*
G75*
G02*
X146420000Y-137945295I0J264705D01*
G01*
X146420000Y-136374705D01*
G75*
G02*
X146684705Y-136110000I264705J0D01*
G01*
X147955295Y-136110000D01*
G75*
G02*
X148220000Y-136374705I0J-264705D01*
G01*
G37*
G04 #@! TD*
G04 #@! TO.C,J3*
X137120000Y-58420000D03*
G36*
G01*
X133720000Y-59205295D02*
X133720000Y-57634705D01*
G75*
G02*
X133984705Y-57370000I264705J0D01*
G01*
X135255295Y-57370000D01*
G75*
G02*
X135520000Y-57634705I0J-264705D01*
G01*
X135520000Y-59205295D01*
G75*
G02*
X135255295Y-59470000I-264705J0D01*
G01*
X133984705Y-59470000D01*
G75*
G02*
X133720000Y-59205295I0J264705D01*
G01*
G37*
G04 #@! TD*
G04 #@! TO.C,J2*
X132120000Y-137160000D03*
G36*
G01*
X135520000Y-136374705D02*
X135520000Y-137945295D01*
G75*
G02*
X135255295Y-138210000I-264705J0D01*
G01*
X133984705Y-138210000D01*
G75*
G02*
X133720000Y-137945295I0J264705D01*
G01*
X133720000Y-136374705D01*
G75*
G02*
X133984705Y-136110000I264705J0D01*
G01*
X135255295Y-136110000D01*
G75*
G02*
X135520000Y-136374705I0J-264705D01*
G01*
G37*
G04 #@! TD*
G04 #@! TO.C,J1*
X149820000Y-58420000D03*
G36*
G01*
X146420000Y-59205295D02*
X146420000Y-57634705D01*
G75*
G02*
X146684705Y-57370000I264705J0D01*
G01*
X147955295Y-57370000D01*
G75*
G02*
X148220000Y-57634705I0J-264705D01*
G01*
X148220000Y-59205295D01*
G75*
G02*
X147955295Y-59470000I-264705J0D01*
G01*
X146684705Y-59470000D01*
G75*
G02*
X146420000Y-59205295I0J264705D01*
G01*
G37*
G04 #@! TD*
D12*
G04 #@! TO.C,D2*
X114935000Y-118110000D03*
G36*
G01*
X111445000Y-119010000D02*
X111445000Y-117210000D01*
G75*
G02*
X111495000Y-117160000I50000J0D01*
G01*
X113295000Y-117160000D01*
G75*
G02*
X113345000Y-117210000I0J-50000D01*
G01*
X113345000Y-119010000D01*
G75*
G02*
X113295000Y-119060000I-50000J0D01*
G01*
X111495000Y-119060000D01*
G75*
G02*
X111445000Y-119010000I0J50000D01*
G01*
G37*
G04 #@! TD*
G04 #@! TO.C,D1*
X112395000Y-90170000D03*
G36*
G01*
X115885000Y-89270000D02*
X115885000Y-91070000D01*
G75*
G02*
X115835000Y-91120000I-50000J0D01*
G01*
X114035000Y-91120000D01*
G75*
G02*
X113985000Y-91070000I0J50000D01*
G01*
X113985000Y-89270000D01*
G75*
G02*
X114035000Y-89220000I50000J0D01*
G01*
X115835000Y-89220000D01*
G75*
G02*
X115885000Y-89270000I0J-50000D01*
G01*
G37*
G04 #@! TD*
D14*
G04 #@! TO.C,C9*
X134580000Y-86995000D03*
X132080000Y-86995000D03*
G04 #@! TD*
G04 #@! TO.C,C8*
X134580000Y-112395000D03*
X132080000Y-112395000D03*
G04 #@! TD*
G04 #@! TO.C,C7*
X121920000Y-114340000D03*
G36*
G01*
X122720000Y-117690000D02*
X121120000Y-117690000D01*
G75*
G02*
X121070000Y-117640000I0J50000D01*
G01*
X121070000Y-116040000D01*
G75*
G02*
X121120000Y-115990000I50000J0D01*
G01*
X122720000Y-115990000D01*
G75*
G02*
X122770000Y-116040000I0J-50000D01*
G01*
X122770000Y-117640000D01*
G75*
G02*
X122720000Y-117690000I-50000J0D01*
G01*
G37*
G04 #@! TD*
G04 #@! TO.C,C6*
X121920000Y-91480000D03*
G36*
G01*
X122720000Y-94830000D02*
X121120000Y-94830000D01*
G75*
G02*
X121070000Y-94780000I0J50000D01*
G01*
X121070000Y-93180000D01*
G75*
G02*
X121120000Y-93130000I50000J0D01*
G01*
X122720000Y-93130000D01*
G75*
G02*
X122770000Y-93180000I0J-50000D01*
G01*
X122770000Y-94780000D01*
G75*
G02*
X122720000Y-94830000I-50000J0D01*
G01*
G37*
G04 #@! TD*
G04 #@! TO.C,C5*
X139660000Y-73025000D03*
X137160000Y-73025000D03*
G04 #@! TD*
G04 #@! TO.C,C4*
X139660000Y-98425000D03*
X137160000Y-98425000D03*
G04 #@! TD*
G04 #@! TO.C,C3*
X142875000Y-106640000D03*
X142875000Y-104140000D03*
G04 #@! TD*
G04 #@! TO.C,C2*
X142915000Y-81280000D03*
X145415000Y-81280000D03*
G04 #@! TD*
G04 #@! TO.C,C1*
X128865000Y-97790000D03*
X126365000Y-97790000D03*
G04 #@! TD*
M02*
